<?xml version="1.0" standalone="no"?>
<!DOCTYPE svg PUBLIC "-//W3C//DTD SVG 1.1//EN" "http://www.w3.org/Graphics/SVG/1.1/DTD/svg11.dtd" >
<svg>
<metadata>
Created by FontForge 20090622 at Tue May 28 08:28:55 2019
 By deploy user
(c) Copyright 2001 by Tom Truong. All Rights Reserved
</metadata>
<defs>
<font id="UVNBachDang" horiz-adv-x="1346" >
  <font-face 
    font-family="UVN Bach Dang"
    font-weight="400"
    font-stretch="normal"
    units-per-em="2048"
    panose-1="2 7 6 3 8 7 6 2 3 3"
    ascent="1638"
    descent="-410"
    x-height="815"
    cap-height="1356"
    bbox="-342 -512 2077 2145"
    underline-thickness="115"
    underline-position="-189"
    unicode-range="U+0020-U+F002"
  />
<missing-glyph horiz-adv-x="1024" 
d="M128 0v2145h768v-2145h-768zM256 128h512v1889h-512v-1889z" />
    <glyph glyph-name=".notdef" horiz-adv-x="1024" 
d="M128 0v2145h768v-2145h-768zM256 128h512v1889h-512v-1889z" />
    <glyph glyph-name=".null" horiz-adv-x="0" 
 />
    <glyph glyph-name="nonmarkingreturn" horiz-adv-x="494" 
 />
    <glyph glyph-name="space" unicode=" " horiz-adv-x="494" 
 />
    <glyph glyph-name="exclam" unicode="!" horiz-adv-x="674" 
d="M238 63q0 38 27 64.5t65 26.5q39 0 64.5 -26t25.5 -65q0 -38 -26 -65t-64 -27q-39 0 -65.5 26.5t-26.5 65.5zM350 295h-31q0 632 -88 879q62 87 103 210q46 -122 106 -210q-90 -260 -90 -879z" />
    <glyph glyph-name="quotedbl" unicode="&#x22;" horiz-adv-x="678" 
d="M518 864h-31l-65 457q-4 28 -4 39q0 102 86 102q84 0 84 -100q0 -28 -2 -41zM190 864h-32l-64 457q-4 29 -4 41q0 100 84 100q86 0 86 -100q0 -13 -4 -41z" />
    <glyph glyph-name="numbersign" unicode="#" horiz-adv-x="1575" 
d="M700 868l-100 -286h289l102 286h-291zM778 1456h133l-168 -471h287l168 471h131l-166 -471h307l-40 -117h-310l-100 -286h332l-43 -115h-330l-166 -469h-133l166 469h-287l-166 -469h-131l166 469h-324l43 115h322l100 286h-348l43 117h348z" />
    <glyph glyph-name="dollar" unicode="$" horiz-adv-x="985" 
d="M420 801q67 -17 122 -27l1 544q-46 11 -79 11h-16q-16 0 -28 -2v-526zM377 811v508q-98 -27 -155.5 -103t-57.5 -178q0 -188 213 -227zM586 27q110 21 181 98.5t71 187.5q0 220 -252 267v-553zM420 41q54 -16 123 -16v563q-61 14 -123 20v-567zM68 14v471h24
q21 -344 285 -434v563q-131 17 -210 95q-85 82 -85 211q0 345 295 432v170h43v-164q41 4 49 4q25 0 73 -8l1 168h43v-179q23 -8 98 -55q66 -41 82 -41q49 0 49 101h21v-420h-23q-23 303 -227 377v-539q342 -46 342 -340q0 -165 -90 -281q-93 -120 -252 -151v-291h-43v291
q-61 0 -123 14v-305h-43v311q-20 6 -123 52q-90 40 -107 40q-45 0 -49 -91z" />
    <glyph glyph-name="percent" unicode="%" horiz-adv-x="1442" 
d="M979 346q0 -143 13 -203q29 -129 122 -129q74 0 107 72q30 68 30 260t-30 260q-33 70 -107 70q-73 0 -104 -68.5t-31 -261.5zM846 346q0 135 65 239q75 120 203 120q129 0 205 -120q65 -103 65 -239q0 -134 -66 -239q-77 -121 -204 -121q-128 0 -203 121q-65 104 -65 239
zM188 991q0 -142 14 -203q30 -129 124 -129q95 0 124 129q13 59 13 203q0 193 -30 261q-33 71 -107 71q-96 0 -125 -128q-13 -59 -13 -204zM57 991q0 136 65 240q76 121 204 121t204 -121q66 -105 66 -240q0 -134 -66 -239q-77 -121 -204 -121q-128 0 -204 121
q-65 104 -65 239zM391 -25h-61l719 1385h63z" />
    <glyph glyph-name="ampersand" unicode="&#x26;" horiz-adv-x="1464" 
d="M778 227q-196 -245 -381 -245q-124 0 -219.5 102t-95.5 227q0 212 344 391q-137 196 -137 306q0 105 83.5 185.5t188.5 80.5q98 0 161.5 -57t63.5 -154q0 -159 -190 -285l272 -370q197 241 283 241q48 0 82.5 -31t34.5 -79q0 -119 -109 -119q-76 0 -96 69q-4 13 -5 42
q-1 26 -7 26q-11 0 -162 -176q183 -248 311 -248q82 0 150 143l30 -20q-66 -126 -109 -176q-79 -92 -175 -92q-87 0 -181 84q-46 42 -137 155zM578 803q174 117 174 262q0 74 -46 124t-120 50q-148 0 -148 -137q0 -105 138 -297zM756 256q-94 114 -316 422
q-190 -101 -190 -244q0 -113 89 -217q93 -108 204 -108q102 0 213 147z" />
    <glyph glyph-name="quotesingle" unicode="'" horiz-adv-x="348" 
d="M190 864h-32l-66 457q-2 14 -2 39q0 102 84 102q86 0 86 -100q0 -13 -4 -41z" />
    <glyph glyph-name="parenleft" unicode="(" horiz-adv-x="664" 
d="M639 1352q-317 -265 -317 -777v-221q0 -511 317 -776v-33q-227 159 -350 400t-123 520t123 520t350 399v-32z" />
    <glyph glyph-name="parenright" unicode=")" horiz-adv-x="664" 
d="M25 1352v32q227 -158 350 -399t123 -520t-123 -520t-350 -400v33q317 266 317 776v221q0 511 -317 777z" />
    <glyph glyph-name="asterisk" unicode="*" horiz-adv-x="1024" 
d="M506 979q-14 157 -92 290q-8 13 -11 21q0 8 8 11t17 2l45 -7q19 88 35 88q14 0 41 -86q16 4 47 13q16 -2 16 -19q-2 -7 -8 -19q-68 -137 -69 -292q132 67 246 171q18 17 30 24q9 -2 16 -66q60 6 66 6q18 0 18 -16q0 -7 -1 -13q-1 -2 -58 -45q10 -19 27 -57
q-2 -12 -15 -12q-2 0 -8 2q-43 12 -86 12q-168 0 -229 -33q79 -82 172.5 -142.5t93.5 -66.5q0 -7 -15 -13l-1 -1l-35 -12q32 -65 32 -74q0 -22 -20 -22q-6 0 -74 45q-13 -14 -40 -39q-2 -1 -5 -2q-12 0 -22 57q-29 166 -107 252q-36 -71 -60 -157l-40 -161l-3 2l-40 39
q-65 -57 -74 -57q-18 0 -18 21q0 3 22 73q-57 23 -57 33q118 87 135 101q67 57 114 127q-50 14 -118 14q-61 0 -126 -7.5t-67 -7.5q-32 0 -32 17q1 2 32 43q-77 48 -77 59q0 15 45 15l49 -5q3 76 20 76q9 -6 23 -19q115 -112 258 -163z" />
    <glyph glyph-name="plus" unicode="+" horiz-adv-x="1706" 
d="M795 1221h118v-551h539v-117h-539v-553h-118v553h-541v117h541v551z" />
    <glyph glyph-name="comma" unicode="," horiz-adv-x="494" 
d="M225 -393l-20 22q172 170 172 324q0 53 -43 53q-17 0 -56 -14.5t-61 -14.5q-108 0 -108 101q0 49 38 79q35 27 86 27q84 0 132 -67q43 -59 43 -146q0 -197 -183 -364z" />
    <glyph glyph-name="hyphen" unicode="-" horiz-adv-x="786" 
d="M170 344v131h446v-131h-446z" />
    <glyph glyph-name="hyphen" unicode="&#x2010;" horiz-adv-x="786" 
d="M170 344v131h446v-131h-446z" />
    <glyph glyph-name="period" unicode="." horiz-adv-x="494" 
d="M156 76q0 38 26 65t64 27t65 -27t27 -65q0 -39 -26.5 -64.5t-65.5 -25.5q-38 0 -64 26t-26 64z" />
    <glyph glyph-name="slash" unicode="/" horiz-adv-x="569" 
d="M-4 -190h-55l573 1574h55z" />
    <glyph glyph-name="zero" unicode="0" horiz-adv-x="985" 
d="M246 668q0 -383 56 -519q60 -145 192 -145q131 0 190 144q55 135 55 520q0 383 -55 517q-59 142 -190 142q-133 0 -192 -143q-56 -135 -56 -516zM57 668q0 144 30 261q42 168 138 285q116 142 269 142q152 0 268 -143q96 -116 139 -284q29 -117 29 -261q0 -145 -29 -261
q-43 -167 -139 -286q-118 -146 -268 -146q-151 0 -268 145q-97 120 -139 287q-30 116 -30 261z" />
    <glyph glyph-name="one" unicode="1" horiz-adv-x="985" 
d="M287 0v35h168v1044q0 72 -19 72q-71 0 -311 -154l-6 35q289 169 440 305h70v-1302h151v-35h-493z" />
    <glyph glyph-name="two" unicode="2" horiz-adv-x="985" 
d="M39 0q40 120 312 385q173 168 237 264q104 156 104 332q0 149 -71 240q-77 100 -222 100q-98 0 -188 -64q-100 -69 -100 -163q0 -45 45 -56q42 -8 84 -15q45 -17 45 -75q0 -42 -27.5 -71t-69.5 -29q-63 0 -99 58q-30 49 -30 116q0 154 123 248q112 86 271 86
q186 0 303 -95q127 -103 127 -284q0 -155 -139 -308q-64 -70 -265 -229q-213 -168 -301 -278h682l33 209h31l-56 -371h-829z" />
    <glyph glyph-name="three" unicode="3" horiz-adv-x="985" 
d="M221 768q32 -2 84 -2q190 0 272 52q105 67 105 245q0 121 -60 191q-64 75 -182 75q-98 0 -176 -44.5t-78 -88.5q0 -14 33 -17q46 -4 63 -12q33 -17 33 -65q0 -38 -22.5 -67t-59.5 -29q-108 0 -108 124q0 114 114 176q92 50 216 50q164 0 267 -67q122 -79 122 -234
q0 -128 -101 -208q-88 -70 -223 -87q171 -24 272 -111q115 -98 115 -262q0 -184 -156 -303q-143 -109 -333 -109q-144 0 -249 58q-128 72 -128 205q0 57 31 98q34 45 90 45q40 0 70 -29t30 -69t-25.5 -69.5t-64.5 -29.5q-9 0 -26.5 3t-26.5 3q-21 0 -21 -32q0 -50 90.5 -100
t206.5 -50q334 0 334 365q0 200 -97 290q-93 85 -296 85q-27 0 -115 -6v26z" />
    <glyph glyph-name="four" unicode="4" horiz-adv-x="985" 
d="M422 0v35h149v446h-553l11 15l702 899l23 -17l-592 -755h409v458h177v-458h198v-142h-198v-446h157v-35h-483z" />
    <glyph glyph-name="five" unicode="5" horiz-adv-x="985" 
d="M150 713l-31 18q43 64 43 256q0 202 -35 330q76 39 252 39q92 0 198 -17.5t117 -17.5q62 0 62 59h22v-26q0 -180 -200 -180q-44 0 -130.5 13t-130.5 13q-75 0 -131 -33q9 -54 9 -182q0 -154 -21 -213q124 62 260 62q207 0 340 -105q146 -114 146 -315q0 -202 -164 -326
q-150 -113 -359 -113q-142 0 -241 65q-115 75 -115 210q0 56 31 93.5t86 37.5q94 0 94 -98q0 -55 -38 -70q-3 -1 -72 -11q-38 -5 -38 -36q0 -54 83 -106t196 -52q172 0 265 114q85 105 85 281t-79 279q-88 115 -259 115q-143 0 -245 -84z" />
    <glyph glyph-name="six" unicode="6" horiz-adv-x="985" 
d="M520 811q-145 0 -221 -110q-66 -95 -66 -246q0 -451 271 -451q137 0 200 155q46 111 46 271q0 147 -43 246q-59 135 -187 135zM834 1378l12 -22q-577 -148 -598 -670q133 172 293 172q178 0 289 -130q104 -123 104 -304q0 -184 -127 -315q-128 -134 -311 -134
q-200 0 -324 154q-115 143 -115 348q0 363 213 597q200 219 564 304z" />
    <glyph glyph-name="seven" unicode="7" horiz-adv-x="985" 
d="M231 586v131h388l174 454h-580q-66 0 -80 -9.5t-47 -143.5l-25 4q12 105 41 315h856l-285 -620h100v-131h-160l-9 -19q-147 -320 -147 -397q0 -14 28 -14q127 0 127 -88q0 -93 -88 -93q-104 0 -104 140q0 84 69 264l79 207h-337z" />
    <glyph glyph-name="eight" unicode="8" horiz-adv-x="985" 
d="M500 735q119 27 165 122q35 72 35 210q0 262 -196 262q-211 0 -211 -278q0 -272 207 -316zM500 711q-256 -69 -256 -357q0 -140 58 -235q70 -113 202 -113q128 0 194 96q56 83 56 217q0 328 -254 392zM457 723q-139 31 -226 100q-110 85 -110 211q0 143 121 239
q112 89 258 89q141 0 253 -88q121 -94 121 -232q0 -244 -329 -319q399 -123 399 -410q0 -162 -148 -257q-127 -81 -298 -81q-173 0 -299 82q-146 96 -146 260q0 152 131 266q107 92 273 140z" />
    <glyph glyph-name="nine" unicode="9" horiz-adv-x="985" 
d="M459 526q145 0 220 110q66 96 66 247q0 450 -272 450q-136 0 -199 -155q-45 -111 -45 -271q0 -147 43 -246q59 -135 187 -135zM145 -41l-12 23q577 150 598 669q-132 -172 -295 -172q-178 0 -288 130q-103 123 -103 304q0 183 127 316t309 133q201 0 325 -153
q116 -143 116 -349q0 -363 -213 -597q-200 -219 -564 -304z" />
    <glyph glyph-name="colon" unicode=":" horiz-adv-x="674" 
d="M246 750q0 39 26.5 64.5t65.5 25.5q38 0 64 -26t26 -64q0 -39 -25.5 -66t-64.5 -27t-65.5 27t-26.5 66zM246 76q0 39 26.5 64.5t65.5 25.5q38 0 64 -26t26 -64q0 -39 -25.5 -64.5t-64.5 -25.5t-65.5 25.5t-26.5 64.5z" />
    <glyph glyph-name="semicolon" unicode=";" horiz-adv-x="674" 
d="M299 -393l-23 22q173 169 173 324q0 53 -41 53q-17 0 -56 -14.5t-61 -14.5q-109 0 -109 101q0 50 36 78t87 28q84 0 132 -67q42 -59 42 -146q0 -200 -180 -364zM246 750q0 38 26 64t64 26q39 0 65.5 -25.5t26.5 -64.5t-26.5 -66t-65.5 -27q-38 0 -64 27.5t-26 65.5z" />
    <glyph glyph-name="less" unicode="&#x3c;" horiz-adv-x="1706" 
d="M1442 1145v-127l-1000 -408l1000 -405v-129l-1178 483v103z" />
    <glyph glyph-name="equal" unicode="=" horiz-adv-x="1706" 
d="M254 477h1198v-117h-1198v117zM254 860h1198v-117h-1198v117z" />
    <glyph glyph-name="greater" unicode="&#x3e;" horiz-adv-x="1706" 
d="M264 1145l1178 -483v-103l-1178 -483v129l1000 405l-1000 408v127z" />
    <glyph glyph-name="question" unicode="?" horiz-adv-x="920" 
d="M256 61q0 39 25.5 66t64.5 27t64.5 -27t25.5 -66t-25.5 -64.5t-64.5 -25.5q-38 0 -64 26t-26 64zM346 279l-24 -5q-29 108 -29 222q0 199 191 354q186 151 186 289q0 98 -71 158q-67 57 -167 57q-58 0 -118 -26q-74 -33 -74 -83q0 -21 64.5 -48t64.5 -81q0 -90 -90 -90
q-109 0 -109 121q0 110 78 176q74 61 186 61q143 0 224 -102q75 -94 75 -240q0 -151 -101 -274l-189 -185q-101 -105 -101 -212q0 -46 4 -92z" />
    <glyph glyph-name="at" unicode="@" horiz-adv-x="2019" 
d="M1190 336q-123 -211 -309 -211q-135 0 -210 104q-67 92 -67 232q0 193 145 365q151 180 341 180q176 0 221 -195l53 180h143l-170 -610q-18 -65 -18 -109q0 -102 94 -102q75 0 164 66q252 186 252 546q0 283 -204 457q-194 164 -482 164q-392 0 -636.5 -252t-244.5 -645
q0 -175 57 -304t181 -235q230 -196 581 -196q328 0 613 206l30 -36q-299 -222 -655 -222q-187 0 -342 46q-268 81 -425 287.5t-157 484.5q0 289 177 528q173 236 450 332q160 55 344 55q333 0 540 -174q220 -185 220 -512q0 -157 -58.5 -298t-162.5 -235
q-119 -108 -258 -108q-195 0 -207 211zM1098 965q-139 0 -251 -232q-97 -200 -97 -358q0 -82 33 -136q39 -65 116 -65q151 0 267 220q100 191 100 358q0 84 -41 144q-47 69 -127 69z" />
    <glyph glyph-name="A" unicode="A" horiz-adv-x="934" 
d="M162 469h397l-207 580zM-145 0v29q74 0 112.5 27t61.5 98l395 1216h22l482 -1341h135v-29h-520v29h176l-150 411h-417l-101 -326q-8 -26 -8 -36q0 -43 166 -49v-29h-354z" />
    <glyph glyph-name="B" unicode="B" horiz-adv-x="1165" 
d="M379 29h88q401 0 401 348q0 334 -436 334q-9 0 -26.5 -1t-26.5 -1v-680zM379 736q26 -3 86 -3q176 0 266 51q119 66 119 228q0 155 -107 238q-97 75 -256 75h-108v-589zM25 0v29h151v1298h-151v29h536q197 0 322 -62q164 -82 164 -260q0 -148 -122 -233
q-103 -71 -261 -82q423 -41 423 -348q0 -180 -144 -281q-127 -90 -314 -90h-604z" />
    <glyph glyph-name="C" unicode="C" horiz-adv-x="1241" 
d="M1094 485h26v-458h-26q-16 96 -66 96q-13 0 -139 -76t-232 -76q-178 0 -339 132q-151 123 -215 299q-42 112 -42 247q0 218 92 397q101 195 285 285q109 53 228 53q101 0 233.5 -69.5t138.5 -69.5q52 0 56 82h26v-405h-26q-19 176 -126 299q-118 135 -288 135
q-391 0 -391 -699q0 -210 30 -332q47 -187 175 -270q80 -53 165 -53q135 0 255 97.5t157 229.5q16 60 23 156z" />
    <glyph glyph-name="D" unicode="D" horiz-adv-x="1337" 
d="M379 29h119q551 0 551 649t-551 649h-119v-1298zM25 0v29h151v1298h-151v29h512q171 0 290 -37q207 -64 327 -245q116 -174 116 -396q0 -242 -135 -422q-139 -186 -372 -235q-98 -21 -226 -21h-512z" />
    <glyph glyph-name="E" unicode="E" horiz-adv-x="1284" 
d="M178 29v1298h-143v29h1003l25 -330h-31q-16 186 -114 250q-79 51 -279 51h-256v-622h63q159 0 216 35q79 49 79 204h29v-508h-29q0 147 -53 192.5t-305 45.5v-645h262q239 0 338 63q127 80 127 303h29v-395h-1104v29h143z" />
    <glyph glyph-name="F" unicode="F" horiz-adv-x="1171" 
d="M39 0v29h158v1298h-158v29h1026l29 -346h-33q-16 196 -139 265q-92 52 -308 52h-213v-622h54q204 0 262.5 51t58.5 205h29v-525l-29 1q-1 141 -58.5 190t-262.5 49h-54v-647h166v-29h-528z" />
    <glyph glyph-name="G" unicode="G" 
d="M1198 178q-233 -207 -496 -207q-301 0 -475 201q-164 190 -164 496q0 172 53 309q69 176 223 290q159 117 345 117q100 0 195 -41q16 -7 95 -57q69 -43 83 -43q61 0 61 98h27v-413h-29q-22 182 -128 299q-116 129 -292 129q-221 0 -328 -222q-83 -171 -83 -417
q0 -715 420 -715q288 0 288 305v99h-162v28h506v-28h-139v-228z" />
    <glyph glyph-name="H" unicode="H" horiz-adv-x="1460" 
d="M25 0v29h151v1298h-151v29h512v-29h-158v-606h702v606h-157v29h512v-29h-152v-1298h152v-29h-512v29h157v663h-702v-663h158v-29h-512z" />
    <glyph glyph-name="I" unicode="I" horiz-adv-x="555" 
d="M25 0v29h153v1298h-153v29h505v-29h-145v-1298h145v-29h-505z" />
    <glyph glyph-name="J" unicode="J" horiz-adv-x="707" 
d="M293 1327h-158v29h508v-29h-147v-989q0 -222 -50 -330q-73 -158 -266 -158q-89 0 -159 41q-84 49 -84 132q0 49 30 80.5t78 31.5q86 0 86 -88q0 -79 -92 -94q19 -68 117 -68q89 0 119 88q18 52 18 164v1190z" />
    <glyph glyph-name="K" unicode="K" horiz-adv-x="1063" 
d="M-29 0v29h156v1298h-156v29h508v-29h-145v-627l471 463q84 83 84 119q0 43 -170 45v29h485v-29q-110 0 -193 -47q-56 -31 -157 -125l-369 -344l633 -782h146v-29h-551v29h166l-525 651l-20 -21v-630h145v-29h-508z" />
    <glyph glyph-name="L" unicode="L" horiz-adv-x="1180" 
d="M25 0v29h153v1298h-153v29h505v-29h-145v-1298h229q311 0 411.5 79t100.5 334h29v-442h-1130z" />
    <glyph glyph-name="M" unicode="M" horiz-adv-x="1565" 
d="M25 0v29q101 3 124 23q27 23 27 120v1155h-151v29h350l416 -1022l399 1022h352v-29h-147v-1298h147v-29h-508v29h156v1233l-481 -1233h-17l-475 1179v-1036q0 -100 29 -121.5t149 -21.5v-29h-370z" />
    <glyph glyph-name="N" unicode="N" horiz-adv-x="1352" 
d="M217 186q0 -101 41 -130q30 -21 139 -27v-29h-374v29q96 7 123.5 35t27.5 124v1139h-151v29h387l725 -994v807q0 102 -41 131q-30 21 -140 27v29h373v-29q-96 -7 -123.5 -35.5t-27.5 -124.5v-1177h-23l-936 1278v-1082z" />
    <glyph glyph-name="O" unicode="O" 
d="M289 678q0 -255 70 -430q99 -246 315 -246q217 0 314 246q69 174 69 430t-69 431q-98 247 -314 247t-315 -247q-70 -176 -70 -431zM66 678q0 145 42 268q64 186 216 309q160 129 350 129q189 0 349 -129q152 -123 216 -308q41 -123 41 -269q0 -147 -41 -269
q-64 -186 -216 -309q-160 -129 -349 -129q-190 0 -350 130q-152 123 -216 310q-42 122 -42 267z" />
    <glyph glyph-name="P" unicode="P" horiz-adv-x="1124" 
d="M383 1329v-667q103 -37 192 -37q145 0 227 99q75 92 75 241q0 366 -437 366q-10 0 -29 -1t-28 -1zM25 0v29h155v1298h-155v29h530q518 0 518 -373q0 -189 -141 -297q-127 -98 -322 -98q-107 0 -227 35v-594h147v-29h-505z" />
    <glyph glyph-name="Q" unicode="Q" 
d="M569 -18q-241 59 -376 255q-127 185 -127 441q0 145 42 268q64 186 216 309q160 129 350 129q189 0 349 -129q153 -123 216 -308q41 -123 41 -269q0 -259 -130 -444q-137 -196 -382 -252v-152q0 -229 190 -229q61 0 127 34l11 -26q-104 -49 -203 -49q-147 0 -231 68
q-93 75 -93 218v136zM289 678q0 -255 70 -430q99 -246 315 -246q217 0 314 246q69 174 69 430t-69 431q-98 247 -314 247t-315 -247q-70 -176 -70 -431z" />
    <glyph glyph-name="R" unicode="R" horiz-adv-x="1237" 
d="M387 1327v-606h68q401 0 401 297q0 167 -83 240q-77 69 -247 69h-139zM25 0v29h153v1298h-153v29h569q471 0 471 -322q0 -284 -383 -321q205 -31 277 -134q56 -82 76 -305q22 -245 120 -245q41 0 74 14l12 -27q-94 -30 -182 -30q-155 0 -209 141q-17 45 -48 287
q-23 177 -97 228q-71 48 -318 48v-661h143v-29h-505z" />
    <glyph glyph-name="S" unicode="S" horiz-adv-x="1014" 
d="M94 485h29q14 -204 113 -334q113 -149 307 -149q138 0 233.5 86.5t95.5 222.5q0 55 -22 103q-53 116 -256 164q-287 67 -333 91q-165 88 -165 314q0 179 96 288q100 113 277 113q85 0 172 -37l158 -79q51 -1 51 78h29v-400h-29q-22 180 -109 286q-101 124 -272 124
q-134 0 -208 -69q-77 -71 -77 -204q0 -146 109 -213q33 -20 153 -40q265 -44 359 -99q160 -94 160 -315q0 -196 -109 -317q-113 -126 -307 -126q-108 0 -236.5 53.5t-140.5 53.5q-46 0 -50 -80h-28v485z" />
    <glyph glyph-name="T" unicode="T" horiz-adv-x="1223" 
d="M1198 1356v-395h-29q0 153 -10 204q-22 113 -141 146q-58 16 -219 16h-86v-1298h149v-29h-506v29h150v1298h-84q-265 0 -328 -78q-23 -29 -34 -82.5t-11 -205.5h-29v395h1178z" />
    <glyph glyph-name="U" unicode="U" 
d="M168 1327h-156v29h535v-29h-168v-912q0 -124 10 -178q38 -217 340 -217q142 0 241 56q115 64 149 192q14 55 14 181v706q0 128 -36 154q-26 18 -165 18v29h401v-29q-111 0 -137.5 -27.5t-26.5 -146.5v-696q0 -142 -14 -203q-65 -283 -483 -283q-408 0 -484 254
q-20 67 -20 228v874z" />
    <glyph glyph-name="V" unicode="V" horiz-adv-x="1010" 
d="M-133 1327v29h524v-29h-166l361 -1042l309 889q27 78 27 94q0 38 -58 51q-16 3 -88 8v29h375v-29q-102 -4 -136 -23q-42 -25 -73 -114l-442 -1235l-492 1372h-141z" />
    <glyph glyph-name="W" unicode="W" horiz-adv-x="1511" 
d="M14 1327h-141v29h440v-29h-82l361 -1042l143 411l-223 631h-141v29h786v-29q-101 -4 -136 -24q-42 -25 -73 -113l-86 -248l225 -657l312 889q24 68 24 94q0 38 -56 51q-16 4 -87 9v28h373v-29q-100 -4 -134 -24q-42 -25 -73 -113l-442 -1235l-248 684l-240 -678l-10 -6z
M729 1327l115 -326q84 246 84 269q0 57 -94 57h-105z" />
    <glyph glyph-name="X" unicode="X" horiz-adv-x="1114" 
d="M-141 0v29q110 0 152 14q63 22 112 98l336 525l-381 661h-137v29h501v-29h-120l264 -463l184 287q64 100 64 125q0 55 -152 51v29h379v-29q-137 0 -228 -144l-227 -358l447 -796h121v-29h-515v29h150l-332 596l-268 -420q-66 -103 -66 -125q0 -52 136 -51v-29h-420z" />
    <glyph glyph-name="Y" unicode="Y" horiz-adv-x="1014" 
d="M233 0v29h177v483l-363 815h-160v29h523v-29h-146l328 -729l264 598q21 48 21 74q0 57 -136 57v29h349v-29q-86 0 -116 -17q-36 -19 -69 -93l-295 -666v-522h174v-29h-551z" />
    <glyph glyph-name="Z" unicode="Z" horiz-adv-x="1223" 
d="M43 0l809 1327h-225q-297 0 -392 -61.5t-95 -223.5q0 -26 3 -53h-28v367h995l-821 -1327h262q315 0 423.5 70.5t108.5 252.5q0 7 -1 21.5t-1 21.5h29v-395h-1067z" />
    <glyph glyph-name="bracketleft" unicode="[" horiz-adv-x="664" 
d="M639 -436h-444v1792h444v-31h-303v-1726h303v-35z" />
    <glyph glyph-name="backslash" unicode="\" horiz-adv-x="569" 
d="M627 -190h-54l-573 1574h55z" />
    <glyph glyph-name="bracketright" unicode="]" horiz-adv-x="664" 
d="M25 -436v35h303v1726h-303v31h444v-1792h-444z" />
    <glyph glyph-name="asciicircum" unicode="^" horiz-adv-x="2048" 
d="M934 1462h178l520 -565h-92l-518 436l-520 -436h-90z" />
    <glyph glyph-name="underscore" unicode="_" horiz-adv-x="1024" 
d="M0 -365h1024v-118h-1024v118z" />
    <glyph glyph-name="grave" unicode="`" horiz-adv-x="1024" 
d="M688 950h-67l-330 205q-62 39 -62 82q0 72 74 72q38 0 96 -60z" />
    <glyph glyph-name="a" unicode="a" horiz-adv-x="901" 
d="M922 88q-86 -106 -177 -106q-136 0 -163 129q-80 -136 -291 -136q-96 0 -163 54q-73 58 -73 151q0 277 518 277v207q0 147 -157 147q-51 0 -108 -26q-68 -30 -68 -74l38 -40q19 -23 19 -50q0 -97 -88 -97q-94 0 -94 97q0 105 104 167q88 52 201 52q85 0 168 -36
q95 -41 127 -109q18 -38 18 -124v-411q0 -129 62 -129q46 0 104 78zM573 150v276q-22 2 -61 2q-279 0 -279 -225q0 -183 144 -183q133 0 196 130z" />
    <glyph glyph-name="b" unicode="b" horiz-adv-x="1010" 
d="M301 578v-369q86 -203 264 -203q117 0 162 93q31 64 31 194v235q0 277 -197 277q-176 0 -260 -227zM10 29h119v1298h-119v29q124 0 150 3q77 8 141 46v-754q85 189 272 189q162 0 270 -137q101 -127 101 -293q0 -185 -100 -306q-108 -129 -289 -129q-157 0 -256 160v-135
h-289v29z" />
    <glyph glyph-name="c" unicode="c" horiz-adv-x="801" 
d="M764 272q-14 -133 -89 -213q-81 -84 -212 -84q-180 0 -291 113.5t-111 294.5q0 187 117 320q122 139 307 139q97 0 174 -44q93 -53 93 -143q0 -37 -31 -64.5t-68 -27.5q-38 0 -64 28t-26 66q0 34 23 62q30 39 32 43q-1 25 -55 43q-42 14 -76 14q-55 0 -102 -19
q-92 -38 -122 -135q-19 -61 -19 -188v-131q0 -155 35 -227q50 -107 190 -107q236 0 264 260h31z" />
    <glyph glyph-name="d" unicode="d" horiz-adv-x="1010" 
d="M246 291q0 -129 31 -193q44 -92 161 -92q181 0 264 203v366q-3 8 -10 25q-37 91 -97 142q-69 59 -153 59q-196 0 -196 -275v-235zM705 135q-107 -160 -256 -160q-182 0 -289 129q-101 121 -101 306q0 164 102 292q109 136 269 136q185 0 272 -189v678h-116v29
q121 0 148 3q74 8 140 46v-1376h119v-29h-288v135z" />
    <glyph glyph-name="e" unicode="e" horiz-adv-x="801" 
d="M233 518h316v96q0 197 -160 197q-156 0 -156 -225v-68zM233 489v-237q0 -244 205 -244q114 0 194 78q71 70 101 186h31q-35 -132 -115 -211q-90 -88 -219 -88q-167 0 -278 132q-105 125 -105 296q0 169 88 296q100 143 262 143q147 0 247 -103q95 -99 106 -248h-517z" />
    <glyph glyph-name="f" unicode="f" horiz-adv-x="541" 
d="M47 0v29h119v757h-119v29h118q0 14 -1 43v43q0 197 52 325q73 181 241 181q74 0 123 -47.5t49 -120.5q0 -98 -99 -98q-75 0 -75 82q0 34 48 67t48 43q0 43 -90 43q-87 0 -115 -112q-14 -56 -14 -182v-267h180v-29h-180v-757h117v-29h-402z" />
    <glyph glyph-name="g" unicode="g" horiz-adv-x="905" 
d="M549 -37h-180q-242 0 -242 -217q0 -114 88 -174q76 -51 195 -51q148 0 263 78q130 88 130 229q0 90 -89 119q-50 16 -165 16zM262 528q0 -225 172 -225q105 0 140 86q22 53 22 178q0 112 -26 167q-38 81 -138 81q-110 0 -147 -96q-23 -58 -23 -191zM219 -43
q-72 6 -116 66q-42 55 -42 129q0 170 195 180q-147 99 -147 225q0 129 101 209q93 74 226 74q135 0 215 -82q68 78 150 78q98 0 98 -82q0 -68 -70 -68q-75 0 -75 59q0 34 26 60q-56 -10 -108 -66q76 -92 76 -184q0 -121 -99 -203q-93 -78 -217 -78q-31 0 -92 15.5t-92 15.5
q-53 0 -95 -24q-51 -29 -51 -78q0 -46 41 -64q37 -18 181 -18h229q168 -9 226 -53q69 -53 69 -193q0 -180 -130 -287q-122 -100 -306 -100q-144 0 -250 51q-137 66 -137 195q0 139 194 223z" />
    <glyph glyph-name="h" unicode="h" horiz-adv-x="995" 
d="M25 0v29h116v1298h-116v29q122 0 149 3q78 8 139 46v-748q114 183 289 183q120 0 190 -68t70 -188v-555h119v-29h-403v29h114v614q0 78 -17 111q-25 47 -95 47q-157 0 -267 -201v-571h113v-29h-401z" />
    <glyph glyph-name="i" unicode="i" horiz-adv-x="455" 
d="M141 786h-116v29q230 0 288 25v-811h113v-29h-401v29h116v757zM135 1305q0 37 26.5 64.5t63.5 27.5q38 0 64 -27t26 -65q0 -39 -25.5 -65t-64.5 -26q-38 0 -64 26.5t-26 64.5z" />
    <glyph glyph-name="j" unicode="j" horiz-adv-x="455" 
d="M152 786h-119v29q229 0 289 25v-854q0 -191 -54 -318q-76 -176 -241 -176q-73 0 -121.5 47.5t-48.5 120.5q0 96 96 96q32 0 55 -21.5t23 -53.5q0 -40 -49.5 -73t-49.5 -42q0 -43 91 -43q71 0 100 62t29 248v953zM143 1305q0 37 26.5 64.5t63.5 27.5q39 0 65 -26.5
t26 -65.5t-26 -65t-65 -26q-38 0 -64 26.5t-26 64.5z" />
    <glyph glyph-name="k" unicode="k" horiz-adv-x="948" 
d="M25 0v29h116v1298h-116v29q122 0 150 3q72 8 140 46v-1059l265 262q98 97 98 121q0 31 -123 31v28h344v-28q-110 0 -201 -88l-198 -191l358 -452h115v-29h-434v29h102l-254 340l-72 -72v-268h111v-29h-401z" />
    <glyph glyph-name="l" unicode="l" horiz-adv-x="455" 
d="M25 0v29h116v1298h-116v29q123 0 149 3q78 8 139 46v-1376h113v-29h-401z" />
    <glyph glyph-name="m" unicode="m" horiz-adv-x="1546" 
d="M141 786h-116v29q230 0 288 25v-183q114 183 289 183q99 0 166 -48q72 -51 88 -145q120 193 297 193q120 0 190 -68t70 -188v-555h119v-29h-404v29h115v614q0 79 -17 112q-25 46 -96 46q-149 0 -268 -201v-571h119v-29h-403v29h114v614q0 78 -17 111q-25 47 -95 47
q-157 0 -267 -201v-571h113v-29h-401v29h116v757z" />
    <glyph glyph-name="n" unicode="n" horiz-adv-x="995" 
d="M25 0v29h116v757h-116v29q230 0 288 25v-183q114 183 289 183q120 0 190 -68t70 -188v-555h119v-29h-403v29h114v614q0 78 -17 111q-25 47 -95 47q-157 0 -267 -201v-571h113v-29h-401z" />
    <glyph glyph-name="o" unicode="o" horiz-adv-x="891" 
d="M47 408q0 167 115 297q120 135 284 135q167 0 285 -134q113 -129 113 -298q0 -168 -114 -297q-119 -134 -284 -134q-166 0 -285 134q-114 129 -114 297zM231 285q0 -279 215 -279q213 0 213 279v247q0 279 -213 279q-215 0 -215 -279v-247z" />
    <glyph glyph-name="p" unicode="p" horiz-adv-x="1010" 
d="M301 578v-369q82 -203 266 -203q117 0 162 93q31 64 31 194v235q0 277 -197 277q-179 0 -262 -227zM301 -465h119v-29h-408v29h119v1251h-119v29q225 0 289 25v-189q85 189 272 189q161 0 271 -137q102 -128 102 -293q0 -185 -100 -306q-108 -129 -289 -129
q-157 0 -256 160v-600z" />
    <glyph glyph-name="q" unicode="q" horiz-adv-x="1010" 
d="M707 578q-84 227 -261 227q-196 0 -196 -277v-235q0 -129 31 -194q44 -93 161 -93q181 0 265 203v369zM709 -465v600q-99 -160 -256 -160q-182 0 -289 129q-101 121 -101 306q0 165 101 293q109 137 270 137q188 0 273 -189v189q62 -25 290 -25v-29h-118v-1251h118v-29
h-407v29h119z" />
    <glyph glyph-name="r" unicode="r" horiz-adv-x="682" 
d="M25 0v29h116v757h-116v29q230 0 288 25v-213q87 213 226 213q53 0 90 -26q41 -30 41 -81q0 -98 -82 -98q-36 0 -64 25t-28 61q0 34 38 80q-18 4 -24 4q-60 0 -114 -81q-47 -70 -75 -182q-8 -31 -8 -34v-479h113v-29h-401z" />
    <glyph glyph-name="s" unicode="s" horiz-adv-x="674" 
d="M72 -6v287h20q72 -271 258 -271q87 0 136 51t49 138q0 155 -199 155q-118 0 -188 57q-76 61 -76 177q0 103 62.5 176.5t164.5 73.5q79 0 173 -45q19 -9 22 -9q37 0 22 55l33 1v-240h-23q-45 211 -223 211q-69 0 -117 -39q-51 -42 -51 -110q0 -27 10 -51q24 -62 106 -80
l162 -21q101 -18 153 -78q57 -65 57 -168q0 -125 -65 -205q-71 -86 -193 -86q-99 0 -198 63q-24 15 -30 15q-37 0 -37 -57h-28z" />
    <glyph glyph-name="t" unicode="t" horiz-adv-x="592" 
d="M305 143q0 -125 88 -125q106 0 146 113h30q-48 -156 -207 -156q-64 0 -119 28q-62 31 -82 87q-11 28 -11 125v571h-142v29q231 0 273 272h24v-272h227v-29h-227v-643z" />
    <glyph glyph-name="u" unicode="u" horiz-adv-x="991" 
d="M686 786h-119v29q229 0 289 25v-811h115v-29h-287v182q-122 -182 -293 -182q-120 0 -191 68.5t-71 187.5v530h-117v29q229 0 289 25v-645q0 -156 121 -156q142 0 264 201v546z" />
    <glyph glyph-name="v" unicode="v" horiz-adv-x="901" 
d="M92 786h-86v29h381v-29h-117l244 -575l188 461q17 42 17 63q0 36 -51 47q-14 3 -80 5v28h284v-29h-12q-51 0 -90 -58q-18 -27 -49 -103l-262 -639l-17 -11z" />
    <glyph glyph-name="w" unicode="w" horiz-adv-x="1352" 
d="M6 786v29h381v-29h-117l244 -575l141 342l-102 233h-131v29h450v-29h-139l242 -575l188 460q19 46 19 64q0 37 -52 47q-14 2 -81 4v29h284v-29q-51 0 -78 -27t-71 -134l-264 -639l-17 -11l-229 531l-215 -520l-17 -11l-352 811h-84z" />
    <glyph glyph-name="x" unicode="x" horiz-adv-x="891" 
d="M37 786v29h399v-29h-102l149 -247l115 145q29 37 29 57q0 45 -99 45v29h301v-29q-116 0 -190 -96l-139 -180l293 -481h100v-29h-428v29h135l-194 323l-150 -188q-45 -56 -45 -86q0 -49 106 -49v-29h-319v29q128 0 211 125l4 6l174 221l-244 405h-106z" />
    <glyph glyph-name="y" unicode="y" horiz-adv-x="901" 
d="M219 -510q-44 0 -72 29t-28 73q0 39 24.5 66t63.5 27q85 0 86 -93q0 -4 -1 -12t-1 -12l2 -3q1 -1 4 -1q62 0 147 405l-352 817h-86v29h381v-29h-117l252 -602l180 487q17 46 17 68q0 50 -168 47v29h321v-29q-60 0 -99 -54q-23 -31 -52 -109l-180 -484q-44 -119 -87 -276
l-48 -175q-37 -119 -78 -158.5t-109 -39.5z" />
    <glyph glyph-name="z" unicode="z" horiz-adv-x="782" 
d="M25 0l503 786h-198q-139 0 -184 -73q-33 -53 -33 -203h-31v305h672l-518 -786h202q133 0 190 73q50 64 50 201h27v-303h-680z" />
    <glyph glyph-name="braceleft" unicode="{" horiz-adv-x="1024" 
d="M846 1516v-51q-142 -2 -194.5 -56t-52.5 -254v-49.5v-51.5q0 -224 -61 -306t-225 -113q164 -31 225 -113t61 -308v-50v-49q0 -200 52 -253t195 -55v-51h-10q-244 0 -322 101q-58 75 -58 290v80q1 57 1 88q0 158 -59 218t-222 73v60q165 15 223 74t58 216q0 32 -1 87v80
q0 219 60 294q79 99 330 99z" />
    <glyph glyph-name="bar" unicode="|" horiz-adv-x="1024" 
d="M449 1565h126v-2048h-126v2048z" />
    <glyph glyph-name="braceright" unicode="}" horiz-adv-x="1024" 
d="M178 1516h10q243 0 322 -102q58 -76 58 -290v-81q-1 -56 -1 -87q0 -157 58 -216t223 -74v-60q-160 -13 -219 -71q-62 -62 -62 -220q0 -264 -6 -310q-15 -131 -91 -186q-87 -63 -292 -63v51q143 2 195 55t52 253v49v50q0 226 61 308t225 113q-164 31 -226 114
q-60 80 -60 305v51v50q0 200 -52.5 254t-194.5 56v51z" />
    <glyph glyph-name="asciitilde" unicode="~" horiz-adv-x="1706" 
d="M1530 758v-131q-202 -144 -387 -144q-101 0 -290 69t-290 69q-157 0 -385 -160v133q209 145 387 145q105 0 295.5 -68.5t284.5 -68.5q163 0 385 156z" />
    <glyph glyph-name="exclamdown" unicode="&#xa1;" horiz-adv-x="674" 
d="M432 1292q0 -38 -26 -64t-64 -26t-64 26t-26 64t26 65t64 27q39 0 64.5 -26.5t25.5 -65.5zM319 1063h33q0 -629 88 -881q-63 -91 -102 -211q-48 127 -107 211q88 247 88 881z" />
    <glyph glyph-name="cent" unicode="&#xa2;" horiz-adv-x="985" 
d="M487 35v796q-111 -23 -154.5 -94t-43.5 -305q0 -240 43.5 -311t154.5 -86zM487 -174v174q-177 15 -279 120.5t-102 282.5q0 176 103 300q105 128 278 151v162h37l1 -158q102 -2 177 -43q95 -51 95 -143q0 -38 -29.5 -64t-67.5 -26q-39 0 -65.5 26.5t-26.5 65.5
q0 32 21 59l35 45q-1 53 -140 53l1 -798q230 10 255 260h29q-31 -280 -285 -293v-174h-37z" />
    <glyph glyph-name="sterling" unicode="&#xa3;" horiz-adv-x="985" 
d="M328 168q-70 31 -119 31q-121 0 -121 -99q0 -77 78 -77q79 0 162 145zM82 633v37h182q-137 175 -137 334q0 160 119 261q112 95 276 95q128 0 211 -56q96 -64 96 -186q0 -63 -26 -113q-33 -61 -90 -61q-42 0 -71.5 28t-29.5 70q0 37 22 66t58 29q5 0 14.5 -1t14.5 -1
q49 0 49 47q0 62 -76 103q-66 36 -133 36q-123 0 -195 -96q-65 -86 -65 -213q0 -154 76 -342h399v-37h-393q37 -101 37 -219q0 -69 -14 -127q121 -37 263.5 -111t172.5 -74q56 0 116 84l21 -16q-107 -195 -225 -195q-71 0 -201 67l-195 105q-90 -161 -196 -161
q-49 0 -82 31.5t-33 80.5q0 92 82 150q74 51 170 51q33 0 77 -6q5 45 5 67q0 141 -92 273h-207z" />
    <glyph glyph-name="currency" unicode="&#xa4;" horiz-adv-x="985" 
d="M907 481h27v-450h-27q-6 94 -49 94q-8 0 -107.5 -75t-191.5 -75q-167 0 -310 166t-169 406h-111l21 49h86q0 99 4 145h-111l23 50h94q34 222 143 378q135 191 336 191q92 0 194.5 -66.5t104.5 -66.5q43 0 43 80h27v-398h-27q-11 159 -92 280q-95 144 -242 144
q-165 0 -246 -192q-61 -143 -61 -334v-16h426l-20 -50h-408v-145h342l-20 -49h-322q0 -196 57 -341q79 -202 244 -202q130 0 235.5 139.5t106.5 337.5z" />
    <glyph glyph-name="yen" unicode="&#xa5;" horiz-adv-x="1096" 
d="M313 0v29h170v475l-49 112h-397v48h377l-66 147h-311v47h289l-199 451h-158v28h477v-28h-141l322 -719l262 590q18 41 18 71q0 58 -133 58v28h344v-28q-86 0 -115 -17q-34 -19 -67 -94l-150 -340h271v-47h-293l-64 -147h357v-48h-379l-33 -71v-516h172v-29h-504z" />
    <glyph glyph-name="brokenbar" unicode="&#xa6;" horiz-adv-x="1024" 
d="M449 408h126v-758h-126v758zM449 1432h126v-758h-126v758z" />
    <glyph glyph-name="section" unicode="&#xa7;" horiz-adv-x="1024" 
d="M301 791q-147 -141 -147 -234q0 -55 35 -101q32 -44 106 -83l405 -199q134 120 134 236q0 47 -24 84q-46 68 -236 160q-242 115 -273 137zM279 807q-86 92 -86 209q0 146 98 255q101 113 246 113q111 0 191 -53q93 -60 93 -166q0 -53 -28 -88q-31 -39 -82 -39
q-39 0 -64.5 28t-25.5 67q0 86 86 86q10 0 61 -19l9 2l3 4q0 51 -73.5 101.5t-167.5 50.5q-105 0 -177.5 -71.5t-72.5 -176.5q0 -65 38 -109q35 -42 179 -108q257 -118 332 -194q77 -81 77 -191q0 -172 -190 -352q135 -99 135 -242q0 -172 -101 -278q-103 -109 -274 -109
q-117 0 -206 59q-103 67 -103 178q0 51 33 92.5t82 41.5q42 0 68 -29t26 -72q0 -34 -24.5 -57t-59.5 -23q-10 0 -28 6.5t-27 6.5q-17 0 -17 -15q0 -73 92 -119q77 -38 158 -38q123 0 205 62q92 68 92 187q0 88 -139 180q-57 37 -281 149q-173 86 -217 141q-55 67 -55 167
q0 170 195 363z" />
    <glyph glyph-name="dieresis" unicode="&#xa8;" horiz-adv-x="1024" 
d="M604 1151q0 40 29 70t69 30t70.5 -30t30.5 -70q0 -43 -29 -70.5t-72 -27.5q-42 0 -70 28t-28 70zM223 1151q0 40 29.5 70t69.5 30t70 -30t30 -70q0 -42 -29 -70t-71 -28q-43 0 -71 27.5t-28 70.5z" />
    <glyph glyph-name="copyright" unicode="&#xa9;" horiz-adv-x="1683" 
d="M1120 1096h35l2 -314h-41q-68 275 -280 275q-248 0 -248 -373q0 -381 266 -381q170 0 283 174l34 -24q-115 -209 -342 -209q-171 0 -287 124t-116 296q0 179 109 306q115 132 292 132q72 0 148 -34t82 -34q53 0 63 62zM844 1303q-256 0 -437.5 -184.5t-181.5 -440.5
t180.5 -438.5t436.5 -182.5t436 182.5t180 438.5t-179 440.5t-435 184.5zM844 1382q290 0 495 -206.5t205 -497.5t-205.5 -497t-496.5 -206q-292 0 -497.5 205.5t-205.5 497.5q0 293 206 498.5t499 205.5z" />
    <glyph glyph-name="ordfeminine" unicode="&#xaa;" horiz-adv-x="676" 
d="M692 848q-64 -74 -133 -74q-100 0 -123 90q-58 -94 -217 -94q-71 0 -121 35q-57 40 -57 108q0 193 389 193v145q0 103 -119 103q-36 0 -79 -18q-52 -22 -52 -52l28 -27q15 -16 15 -36q0 -68 -65 -68q-72 0 -72 68q0 75 81 118q66 35 148 35q65 0 126 -24q71 -28 97 -78
q13 -27 13 -86v-287q0 -90 45 -90q34 0 78 53zM430 891v194h-45q-209 0 -209 -157q0 -127 107 -127q100 0 147 90z" />
    <glyph glyph-name="guillemotleft" unicode="&#xab;" horiz-adv-x="909" 
d="M449 410l325 311h27q-55 -108 -226 -311q88 -106 122 -150q66 -88 104 -162h-27q-75 80 -325 312zM111 410l325 311h29q-56 -107 -227 -311q89 -107 122 -150q67 -88 105 -162h-29q-87 92 -325 312z" />
    <glyph glyph-name="logicalnot" unicode="&#xac;" horiz-adv-x="1706" 
d="M254 858h1198v-502h-115v385h-1083v117z" />
    <glyph glyph-name="registered" unicode="&#xae;" horiz-adv-x="1683" 
d="M729 719q32 -2 66 -2q235 0 235 174q0 80 -60 123q-53 39 -136 39q-105 0 -105 -72v-262zM469 1092h393q122 0 206 -40q112 -53 112 -161q0 -147 -287 -199q110 -34 160 -98q46 -59 64 -176q13 -88 59 -88q67 0 67 133h43v-12q0 -179 -160 -179q-46 0 -78 17
q-54 28 -64 102l-12 138q-14 80 -73 119q-51 32 -170 32v-248q0 -59 35 -81q25 -16 90 -20v-40h-385v40q65 3 92 19q35 23 35 82v516q0 60 -35 82q-25 15 -92 19v43zM844 1303q-256 0 -437.5 -184.5t-181.5 -440.5q0 -257 180.5 -439t436.5 -182t436 182.5t180 438.5
q0 257 -179 441t-435 184zM844 1382q293 0 496.5 -206.5t203.5 -499.5q0 -209 -122 -390t-315 -260q-126 -51 -271 -51q-289 0 -493 207t-204 496q0 293 206 498.5t499 205.5z" />
    <glyph glyph-name="degree" unicode="&#xb0;" horiz-adv-x="674" 
d="M338 1372q-85 0 -144 -58.5t-59 -142.5q0 -85 59 -143.5t144 -58.5t143 58.5t58 143.5t-58 143t-143 58zM338 1454q118 0 200.5 -82.5t82.5 -200.5t-83.5 -200t-201.5 -82q-119 0 -200 81.5t-81 200.5t82 201t201 82z" />
    <glyph glyph-name="plusminus" unicode="&#xb1;" horiz-adv-x="1706" 
d="M254 158h1198v-117h-1198v117zM795 1180h118v-344h539v-117h-539v-344h-118v344h-541v117h541v344z" />
    <glyph glyph-name="twosuperior" unicode="&#xb2;" horiz-adv-x="649" 
d="M27 535q25 71 198 225q119 106 158 157q74 97 74 205q0 93 -50.5 149t-142.5 56q-62 0 -122 -37q-68 -42 -68 -100q0 -30 57 -36.5t57 -49.5q0 -62 -63 -62q-41 0 -65 33q-21 30 -21 72q0 96 85 152q75 49 175 49q118 0 195 -53q88 -62 88 -175q0 -94 -95 -188
q-43 -43 -173 -136q-140 -100 -197 -165h450l23 127h20l-37 -223h-546z" />
    <glyph glyph-name="threesuperior" unicode="&#xb3;" horiz-adv-x="649" 
d="M146 995q22 -2 55 -2q119 0 173 28q77 40 77 150q0 160 -160 160q-47 0 -100 -19q-68 -24 -68 -61q2 -5 46 -12q40 -6 40 -43q0 -57 -55 -57q-72 0 -72 73q0 70 79 107q61 29 140 29q256 0 256 -181q0 -79 -70 -127q-57 -39 -143 -49q254 -35 254 -225q0 -114 -108 -184
q-94 -62 -214 -62q-93 0 -161 33q-88 42 -88 125q0 35 22 60.5t57 25.5q25 0 45.5 -17.5t20.5 -41.5q0 -60 -59 -60q-6 0 -17.5 2t-17.5 2q-12 0 -12 -20q0 -41 79 -68q63 -22 115 -22q221 0 221 219q0 124 -70 178q-61 47 -190 47q-12 0 -75 -4v16z" />
    <glyph glyph-name="acute" unicode="&#xb4;" horiz-adv-x="1024" 
d="M336 950l289 299q58 60 96 60q74 0 74 -72q0 -43 -62 -82l-330 -205h-67z" />
    <glyph glyph-name="paragraph" unicode="&#xb6;" horiz-adv-x="1024" 
d="M948 1479v-78h-125v-1401h-94v1401h-182v-1401h-96v782q-164 8 -265 94q-110 94 -110 254q0 166 116 261q108 88 277 88h479z" />
    <glyph glyph-name="cedilla" unicode="&#xb8;" horiz-adv-x="1024" 
d="M258 -342l21 41q146 -55 213 -55q98 0 98 98q0 94 -84 94q-10 0 -29 -3v167h35v-124q7 0 21 1h22q188 0 188 -137q0 -73 -78 -111q-61 -30 -143 -30q-103 0 -264 59z" />
    <glyph glyph-name="onesuperior" unicode="&#xb9;" horiz-adv-x="651" 
d="M188 535v20h111v627q0 43 -12 43q-44 0 -205 -92l-4 20q187 101 291 184h45v-782h100v-20h-326z" />
    <glyph glyph-name="ordmasculine" unicode="&#xba;" horiz-adv-x="668" 
d="M35 1071q0 121 90 212t211 91q122 0 209.5 -90t87.5 -213q0 -120 -89 -210.5t-208 -90.5q-121 0 -211 89.5t-90 211.5zM174 985q0 -194 162 -194q160 0 160 194v174q0 195 -160 195q-162 0 -162 -195v-174z" />
    <glyph glyph-name="guillemotright" unicode="&#xbb;" horiz-adv-x="909" 
d="M459 410l-326 -312h-29q53 101 228 312q-90 107 -122 150q-68 88 -106 161h29q100 -104 326 -311zM795 410q-112 -101 -326 -312h-27q54 105 226 312q-86 102 -122 149q-66 88 -104 162h27q86 -91 326 -311z" />
    <glyph glyph-name="onequarter" unicode="&#xbc;" horiz-adv-x="1583" 
d="M1229 0v20h94v250h-348q2 5 448 510l15 -8l-373 -424h258v258h111v-258h125v-78h-125v-250h98v-20h-303zM340 -25h-61l962 1385h62zM180 588v20h105v584q0 41 -11 41q-43 0 -196 -86l-4 18q180 95 278 172h43v-729h97v-20h-312z" />
    <glyph glyph-name="onehalf" unicode="&#xbd;" horiz-adv-x="1583" 
d="M987 0q26 69 209 226q100 86 140 140q63 86 63 183q0 87 -49 138.5t-136 51.5q-58 0 -116 -34q-66 -39 -66 -93q0 -27 55.5 -34t55.5 -48q0 -55 -62 -55q-82 0 -82 96q0 91 82 143q71 46 166 46q112 0 186 -49q87 -58 87 -164q0 -86 -90 -173q-41 -40 -161 -124
q-137 -96 -194 -160h430l21 117h18l-35 -207h-522zM340 -25h-61l962 1385h62zM180 588v20h105v584q0 41 -11 41q-43 0 -196 -86l-4 18q180 95 278 172h43v-729h97v-20h-312z" />
    <glyph glyph-name="threequarters" unicode="&#xbe;" horiz-adv-x="1583" 
d="M1229 0v20h94v250h-348q2 5 448 510l15 -8l-373 -424h258v258h111v-258h125v-78h-125v-250h98v-20h-303zM340 -25h-61l962 1385h62zM140 1018q16 -2 53 -2q114 0 164 26q73 37 73 142q0 147 -154 147q-43 0 -94 -18q-65 -23 -65 -56q2 -6 44 -12q38 -5 38 -41
q0 -53 -52 -53q-69 0 -69 70q0 66 76 101q58 26 133 26q98 0 163 -35q82 -45 82 -135q0 -73 -68 -118q-56 -37 -136 -46q243 -31 243 -209q0 -108 -103 -174q-90 -58 -204 -58q-87 0 -152 31q-85 40 -85 117q0 80 75 80q64 0 64 -56q0 -22 -17.5 -38.5t-39.5 -16.5
q-6 0 -17 2t-16 2q-15 0 -15 -18q0 -38 78 -64q61 -20 111 -20q209 0 209 205q0 210 -248 210q-32 0 -72 -3z" />
    <glyph glyph-name="questiondown" unicode="&#xbf;" horiz-adv-x="920" 
d="M555 1075l27 4q28 -110 28 -223q0 -192 -194 -355q-183 -154 -183 -286q0 -99 70 -159q66 -58 166 -58q58 0 120 27q75 34 75 84q0 18 -64.5 45t-64.5 82q0 90 88 90q108 0 108 -121q0 -111 -78 -176q-73 -62 -186 -62q-142 0 -223 103q-74 95 -74 241q0 151 101 274
l189 186q101 104 101 210q0 26 -6 94zM647 1294q0 -38 -26 -65t-64 -27t-65 27t-27 65q0 39 26.5 64.5t65.5 25.5q38 0 64 -26t26 -64z" />
    <glyph glyph-name="Agrave" unicode="&#xc0;" horiz-adv-x="934" 
d="M162 469h397l-207 580zM-145 0v29q74 0 112.5 27t61.5 98l395 1216h22l482 -1341h135v-29h-520v29h176l-150 411h-417l-101 -326q-8 -26 -8 -36q0 -43 166 -49v-29h-354zM643 1495h-67l-330 205q-62 39 -62 82q0 72 74 72q38 0 96 -60z" />
    <glyph glyph-name="Aacute" unicode="&#xc1;" horiz-adv-x="934" 
d="M162 469h397l-207 580zM-145 0v29q74 0 112.5 27t61.5 98l395 1216h22l482 -1341h135v-29h-520v29h176l-150 411h-417l-101 -326q-8 -26 -8 -36q0 -43 166 -49v-29h-354zM291 1495l289 299q58 60 96 60q74 0 74 -72q0 -43 -62 -82l-330 -205h-67z" />
    <glyph glyph-name="Acircumflex" unicode="&#xc2;" horiz-adv-x="934" 
d="M162 469h397l-207 580zM-145 0v29q74 0 112.5 27t61.5 98l395 1216h22l482 -1341h135v-29h-520v29h176l-150 411h-417l-101 -326q-8 -26 -8 -36q0 -43 166 -49v-29h-354zM152 1436l232 348h118l232 -348h-58l-233 209l-233 -209h-58z" />
    <glyph glyph-name="Atilde" unicode="&#xc3;" horiz-adv-x="934" 
d="M162 469h397l-207 580zM-145 0v29q74 0 112.5 27t61.5 98l395 1216h22l482 -1341h135v-29h-520v29h176l-150 411h-417l-101 -326q-8 -26 -8 -36q0 -43 166 -49v-29h-354zM754 1792q-40 -205 -195 -205q-39 0 -120.5 24t-110.5 24q-70 0 -97 -93h-51q38 211 197 211
q32 0 173 -36q43 -11 56 -11q68 0 94 86h54z" />
    <glyph glyph-name="Adieresis" unicode="&#xc4;" horiz-adv-x="934" 
d="M162 469h397l-207 580zM-145 0v29q74 0 112.5 27t61.5 98l395 1216h22l482 -1341h135v-29h-520v29h176l-150 411h-417l-101 -326q-8 -26 -8 -36q0 -43 166 -49v-29h-354zM559 1696q0 40 29 70t69 30t70.5 -30t30.5 -70q0 -43 -29 -70.5t-72 -27.5q-42 0 -70 28t-28 70z
M178 1696q0 40 29.5 70t69.5 30t70 -30t30 -70q0 -42 -29 -70t-71 -28q-43 0 -71 27.5t-28 70.5z" />
    <glyph glyph-name="Aring" unicode="&#xc5;" horiz-adv-x="934" 
d="M270 1677q0 -71 47.5 -119.5t118.5 -48.5q69 0 118.5 49.5t49.5 118.5t-49.5 118.5t-118.5 49.5q-71 0 -118.5 -48.5t-47.5 -119.5zM197 1677q0 102 68.5 171t170.5 69t172 -69t70 -171t-70 -171.5t-172 -69.5t-170.5 69.5t-68.5 171.5zM162 469h397l-207 580zM-145 0v29
q74 0 112.5 27t61.5 98l395 1216h22l482 -1341h135v-29h-520v29h176l-150 411h-417l-101 -326q-8 -26 -8 -36q0 -43 166 -49v-29h-354z" />
    <glyph glyph-name="AE" unicode="&#xc6;" horiz-adv-x="1788" 
d="M713 473v856h-21l-440 -856h461zM205 0h-398v25q118 0 190 73q45 45 114 178l546 1053h-178v27h1092l24 -330h-28q-17 187 -114 250q-79 51 -279 51h-259v-622h64q159 0 217 35q80 50 80 204h29v-504h-29q0 142 -53.5 188t-243.5 46h-64v-645h263q238 0 337 63
q127 80 127 303h29v-395h-1104v29h146v415h-482l-127 -251q-36 -71 -36 -103q0 -59 137 -59v-31z" />
    <glyph glyph-name="Ccedilla" unicode="&#xc7;" horiz-adv-x="1241" 
d="M1094 485h26v-458h-26q-16 96 -66 96q-13 0 -139 -76t-232 -76q-178 0 -339 132q-151 123 -215 299q-42 112 -42 247q0 218 92 397q101 195 285 285q109 53 228 53q101 0 233.5 -69.5t138.5 -69.5q52 0 56 82h26v-405h-26q-19 176 -126 299q-118 135 -288 135
q-391 0 -391 -699q0 -210 30 -332q47 -187 175 -270q80 -53 165 -53q135 0 255 97.5t157 229.5q16 60 23 156zM389 -342l21 41q146 -55 213 -55q98 0 98 98q0 94 -84 94q-10 0 -29 -3v167h35v-124q7 0 21 1h22q188 0 188 -137q0 -73 -78 -111q-61 -30 -143 -30
q-103 0 -264 59z" />
    <glyph glyph-name="Egrave" unicode="&#xc8;" horiz-adv-x="1284" 
d="M178 29v1298h-143v29h1003l25 -330h-31q-16 186 -114 250q-79 51 -279 51h-256v-622h63q159 0 216 35q79 49 79 204h29v-508h-29q0 147 -53 192.5t-305 45.5v-645h262q239 0 338 63q127 80 127 303h29v-395h-1104v29h143zM864 1495h-67l-330 205q-62 39 -62 82
q0 72 74 72q38 0 96 -60z" />
    <glyph glyph-name="Eacute" unicode="&#xc9;" horiz-adv-x="1284" 
d="M178 29v1298h-143v29h1003l25 -330h-31q-16 186 -114 250q-79 51 -279 51h-256v-622h63q159 0 216 35q79 49 79 204h29v-508h-29q0 147 -53 192.5t-305 45.5v-645h262q239 0 338 63q127 80 127 303h29v-395h-1104v29h143zM512 1495l289 299q58 60 96 60q74 0 74 -72
q0 -43 -62 -82l-330 -205h-67z" />
    <glyph glyph-name="Ecircumflex" unicode="&#xca;" horiz-adv-x="1284" 
d="M178 29v1298h-143v29h1003l25 -330h-31q-16 186 -114 250q-79 51 -279 51h-256v-622h63q159 0 216 35q79 49 79 204h29v-508h-29q0 147 -53 192.5t-305 45.5v-645h262q239 0 338 63q127 80 127 303h29v-395h-1104v29h143zM326 1436l232 348h118l232 -348h-58l-233 209
l-233 -209h-58z" />
    <glyph glyph-name="Edieresis" unicode="&#xcb;" horiz-adv-x="1284" 
d="M178 29v1298h-143v29h1003l25 -330h-31q-16 186 -114 250q-79 51 -279 51h-256v-622h63q159 0 216 35q79 49 79 204h29v-508h-29q0 147 -53 192.5t-305 45.5v-645h262q239 0 338 63q127 80 127 303h29v-395h-1104v29h143zM780 1696q0 40 29 70t69 30t70.5 -30t30.5 -70
q0 -43 -29 -70.5t-72 -27.5q-42 0 -70 28t-28 70zM399 1696q0 40 29.5 70t69.5 30t70 -30t30 -70q0 -42 -29 -70t-71 -28q-43 0 -71 27.5t-28 70.5z" />
    <glyph glyph-name="Igrave" unicode="&#xcc;" horiz-adv-x="555" 
d="M25 0v29h153v1298h-153v29h505v-29h-145v-1298h145v-29h-505zM422 1495h-67l-330 205q-62 39 -62 82q0 72 74 72q38 0 96 -60z" />
    <glyph glyph-name="Iacute" unicode="&#xcd;" horiz-adv-x="555" 
d="M25 0v29h153v1298h-153v29h505v-29h-145v-1298h145v-29h-505zM70 1495l289 299q58 60 96 60q74 0 74 -72q0 -43 -62 -82l-330 -205h-67z" />
    <glyph glyph-name="Icircumflex" unicode="&#xce;" horiz-adv-x="555" 
d="M25 0v29h153v1298h-153v29h505v-29h-145v-1298h145v-29h-505zM-45 1495l232 348h118l232 -348h-58l-233 209l-233 -209h-58z" />
    <glyph glyph-name="Idieresis" unicode="&#xcf;" horiz-adv-x="555" 
d="M25 0v29h153v1298h-153v29h505v-29h-145v-1298h145v-29h-505zM338 1696q0 40 29 70t69 30t70.5 -30t30.5 -70q0 -43 -29 -70.5t-72 -27.5q-42 0 -70 28t-28 70zM-43 1696q0 40 29.5 70t69.5 30t70 -30t30 -70q0 -42 -29 -70t-71 -28q-43 0 -71 27.5t-28 70.5z" />
    <glyph glyph-name="Eth" unicode="&#xd0;" horiz-adv-x="1337" 
d="M379 29h119q551 0 551 649t-551 649h-119v-594h352v-53h-352v-651zM25 0v29h149v651h-174v53h174v594h-149v29h512q171 0 290 -37q207 -64 327 -245q116 -174 116 -396q0 -242 -135 -422q-139 -186 -372 -235q-98 -21 -226 -21h-512z" />
    <glyph glyph-name="Ntilde" unicode="&#xd1;" horiz-adv-x="1352" 
d="M217 186q0 -101 41 -130q30 -21 139 -27v-29h-374v29q96 7 123.5 35t27.5 124v1139h-151v29h387l725 -994v807q0 102 -41 131q-30 21 -140 27v29h373v-29q-96 -7 -123.5 -35.5t-27.5 -124.5v-1177h-23l-936 1278v-1082zM963 1792q-40 -205 -195 -205q-39 0 -120.5 24
t-110.5 24q-70 0 -97 -93h-51q38 211 197 211q32 0 173 -36q43 -11 56 -11q68 0 94 86h54z" />
    <glyph glyph-name="Ograve" unicode="&#xd2;" 
d="M289 678q0 -255 70 -430q99 -246 315 -246q217 0 314 246q69 174 69 430t-69 431q-98 247 -314 247t-315 -247q-70 -176 -70 -431zM66 678q0 145 42 268q64 186 216 309q160 129 350 129q189 0 349 -129q152 -123 216 -308q41 -123 41 -269q0 -147 -41 -269
q-64 -186 -216 -309q-160 -129 -349 -129q-190 0 -350 130q-152 123 -216 310q-42 122 -42 267zM871 1495h-67l-330 205q-62 39 -62 82q0 72 74 72q38 0 96 -60z" />
    <glyph glyph-name="Oacute" unicode="&#xd3;" 
d="M289 678q0 -255 70 -430q99 -246 315 -246q217 0 314 246q69 174 69 430t-69 431q-98 247 -314 247t-315 -247q-70 -176 -70 -431zM66 678q0 145 42 268q64 186 216 309q160 129 350 129q189 0 349 -129q152 -123 216 -308q41 -123 41 -269q0 -147 -41 -269
q-64 -186 -216 -309q-160 -129 -349 -129q-190 0 -350 130q-152 123 -216 310q-42 122 -42 267zM459 1495l289 299q58 60 96 60q74 0 74 -72q0 -43 -62 -82l-330 -205h-67z" />
    <glyph glyph-name="Ocircumflex" unicode="&#xd4;" 
d="M289 678q0 -255 70 -430q99 -246 315 -246q217 0 314 246q69 174 69 430t-69 431q-98 247 -314 247t-315 -247q-70 -176 -70 -431zM66 678q0 145 42 268q64 186 216 309q160 129 350 129q189 0 349 -129q152 -123 216 -308q41 -123 41 -269q0 -147 -41 -269
q-64 -186 -216 -309q-160 -129 -349 -129q-190 0 -350 130q-152 123 -216 310q-42 122 -42 267zM385 1436l232 348h118l232 -348h-58l-233 209l-233 -209h-58z" />
    <glyph glyph-name="Otilde" unicode="&#xd5;" 
d="M289 678q0 -255 70 -430q99 -246 315 -246q217 0 314 246q69 174 69 430t-69 431q-98 247 -314 247t-315 -247q-70 -176 -70 -431zM66 678q0 145 42 268q64 186 216 309q160 129 350 129q189 0 349 -129q152 -123 216 -308q41 -123 41 -269q0 -147 -41 -269
q-64 -186 -216 -309q-160 -129 -349 -129q-190 0 -350 130q-152 123 -216 310q-42 122 -42 267zM952 1792q-40 -205 -195 -205q-39 0 -120.5 24t-110.5 24q-70 0 -97 -93h-51q38 211 197 211q32 0 173 -36q43 -11 56 -11q68 0 94 86h54z" />
    <glyph glyph-name="Odieresis" unicode="&#xd6;" 
d="M289 678q0 -255 70 -430q99 -246 315 -246q217 0 314 246q69 174 69 430t-69 431q-98 247 -314 247t-315 -247q-70 -176 -70 -431zM66 678q0 145 42 268q64 186 216 309q160 129 350 129q189 0 349 -129q152 -123 216 -308q41 -123 41 -269q0 -147 -41 -269
q-64 -186 -216 -309q-160 -129 -349 -129q-190 0 -350 130q-152 123 -216 310q-42 122 -42 267zM727 1696q0 40 29 70t69 30t70.5 -30t30.5 -70q0 -43 -29 -70.5t-72 -27.5q-42 0 -70 28t-28 70zM346 1696q0 40 29.5 70t69.5 30t70 -30t30 -70q0 -42 -29 -70t-71 -28
q-43 0 -71 27.5t-28 70.5z" />
    <glyph glyph-name="multiply" unicode="&#xd7;" horiz-adv-x="1706" 
d="M381 1169l477 -477l475 477l82 -82l-475 -477l475 -475l-82 -82l-475 475l-477 -475l-80 82l475 475l-475 477z" />
    <glyph glyph-name="Oslash" unicode="&#xd8;" 
d="M63 0l166 197q-163 190 -163 481q0 118 29 224q56 204 211 339q163 143 368 143q227 0 405 -182l164 193l33 -21l-170 -200q174 -190 174 -500q0 -112 -26 -212q-55 -207 -209 -345q-164 -146 -371 -146q-227 0 -418 195l-166 -195zM332 319l661 785q-117 252 -313 252
q-223 0 -321 -247q-70 -174 -70 -437q0 -199 43 -353zM1008 1057l-660 -783q107 -272 326 -272q222 0 318 260q65 177 65 447q0 176 -49 348z" />
    <glyph glyph-name="Ugrave" unicode="&#xd9;" 
d="M168 1327h-156v29h535v-29h-168v-912q0 -124 10 -178q38 -217 340 -217q142 0 241 56q115 64 149 192q14 55 14 181v706q0 128 -36 154q-26 18 -165 18v29h401v-29q-111 0 -137.5 -27.5t-26.5 -146.5v-696q0 -142 -14 -203q-65 -283 -483 -283q-408 0 -484 254
q-20 67 -20 228v874zM910 1495h-67l-330 205q-62 39 -62 82q0 72 74 72q38 0 96 -60z" />
    <glyph glyph-name="Uacute" unicode="&#xda;" 
d="M168 1327h-156v29h535v-29h-168v-912q0 -124 10 -178q38 -217 340 -217q142 0 241 56q115 64 149 192q14 55 14 181v706q0 128 -36 154q-26 18 -165 18v29h401v-29q-111 0 -137.5 -27.5t-26.5 -146.5v-696q0 -142 -14 -203q-65 -283 -483 -283q-408 0 -484 254
q-20 67 -20 228v874zM498 1495l289 299q58 60 96 60q74 0 74 -72q0 -43 -62 -82l-330 -205h-67z" />
    <glyph glyph-name="Ucircumflex" unicode="&#xdb;" 
d="M168 1327h-156v29h535v-29h-168v-912q0 -124 10 -178q38 -217 340 -217q142 0 241 56q115 64 149 192q14 55 14 181v706q0 128 -36 154q-26 18 -165 18v29h401v-29q-111 0 -137.5 -27.5t-26.5 -146.5v-696q0 -142 -14 -203q-65 -283 -483 -283q-408 0 -484 254
q-20 67 -20 228v874zM383 1495l232 348h118l232 -348h-58l-233 209l-233 -209h-58z" />
    <glyph glyph-name="Udieresis" unicode="&#xdc;" 
d="M168 1327h-156v29h535v-29h-168v-912q0 -124 10 -178q38 -217 340 -217q142 0 241 56q115 64 149 192q14 55 14 181v706q0 128 -36 154q-26 18 -165 18v29h401v-29q-111 0 -137.5 -27.5t-26.5 -146.5v-696q0 -142 -14 -203q-65 -283 -483 -283q-408 0 -484 254
q-20 67 -20 228v874zM766 1696q0 40 29 70t69 30t70.5 -30t30.5 -70q0 -43 -29 -70.5t-72 -27.5q-42 0 -70 28t-28 70zM385 1696q0 40 29.5 70t69.5 30t70 -30t30 -70q0 -42 -29 -70t-71 -28q-43 0 -71 27.5t-28 70.5z" />
    <glyph glyph-name="Yacute" unicode="&#xdd;" horiz-adv-x="1014" 
d="M233 0v29h177v483l-363 815h-160v29h523v-29h-146l328 -729l264 598q21 48 21 74q0 57 -136 57v29h349v-29q-86 0 -116 -17q-36 -19 -69 -93l-295 -666v-522h174v-29h-551zM332 1495l289 299q58 60 96 60q74 0 74 -72q0 -43 -62 -82l-330 -205h-67z" />
    <glyph glyph-name="Thorn" unicode="&#xde;" horiz-adv-x="1124" 
d="M383 1049v-666q117 -39 192 -39q145 0 227 101q75 93 75 241q0 365 -435 365q-10 0 -30 -1t-29 -1zM180 1327h-155v29h516v-29h-158v-252h172q518 0 518 -370q0 -190 -140 -298q-128 -98 -323 -98q-110 0 -227 37v-317h147v-29h-505v29h155v1298z" />
    <glyph glyph-name="germandbls" unicode="&#xdf;" horiz-adv-x="1034" 
d="M20 0v29h107v757h-107v29h107v35q0 236 85 379q104 176 323 176q121 0 202 -74q84 -77 84 -196q0 -89 -62 -181q-21 -31 -115 -138q-62 -70 -62 -107q0 -31 70 -68l98 -45q135 -65 179 -124t44 -157q0 -149 -89 -243q-91 -97 -239 -97q-103 0 -171 53q-75 58 -75 158
q0 109 105 109q82 0 82 -80q0 -32 -46 -70t-46 -55q0 -44 61 -67q45 -17 98 -17q100 0 169 61q73 63 73 162q0 85 -59 135q-33 28 -134 71q-213 91 -213 179q0 51 65 142l101 129q78 102 78 254q0 101 -49 165q-54 70 -152 70q-149 0 -204 -160q-33 -97 -33 -284v-901h100
v-29h-375z" />
    <glyph glyph-name="agrave" unicode="&#xe0;" horiz-adv-x="901" 
d="M922 88q-86 -106 -177 -106q-136 0 -163 129q-80 -136 -291 -136q-96 0 -163 54q-73 58 -73 151q0 277 518 277v207q0 147 -157 147q-51 0 -108 -26q-68 -30 -68 -74l38 -40q19 -23 19 -50q0 -97 -88 -97q-94 0 -94 97q0 105 104 167q88 52 201 52q85 0 168 -36
q95 -41 127 -109q18 -38 18 -124v-411q0 -129 62 -129q46 0 104 78zM573 150v276q-22 2 -61 2q-279 0 -279 -225q0 -183 144 -183q133 0 196 130zM627 950h-67l-330 205q-62 39 -62 82q0 72 74 72q38 0 96 -60z" />
    <glyph glyph-name="aacute" unicode="&#xe1;" horiz-adv-x="901" 
d="M922 88q-86 -106 -177 -106q-136 0 -163 129q-80 -136 -291 -136q-96 0 -163 54q-73 58 -73 151q0 277 518 277v207q0 147 -157 147q-51 0 -108 -26q-68 -30 -68 -74l38 -40q19 -23 19 -50q0 -97 -88 -97q-94 0 -94 97q0 105 104 167q88 52 201 52q85 0 168 -36
q95 -41 127 -109q18 -38 18 -124v-411q0 -129 62 -129q46 0 104 78zM573 150v276q-22 2 -61 2q-279 0 -279 -225q0 -183 144 -183q133 0 196 130zM275 950l289 299q58 60 96 60q74 0 74 -72q0 -43 -62 -82l-330 -205h-67z" />
    <glyph glyph-name="acircumflex" unicode="&#xe2;" horiz-adv-x="901" 
d="M922 88q-86 -106 -177 -106q-136 0 -163 129q-80 -136 -291 -136q-96 0 -163 54q-73 58 -73 151q0 277 518 277v207q0 147 -157 147q-51 0 -108 -26q-68 -30 -68 -74l38 -40q19 -23 19 -50q0 -97 -88 -97q-94 0 -94 97q0 105 104 167q88 52 201 52q85 0 168 -36
q95 -41 127 -109q18 -38 18 -124v-411q0 -129 62 -129q46 0 104 78zM573 150v276q-22 2 -61 2q-279 0 -279 -225q0 -183 144 -183q133 0 196 130zM150 950l232 348h118l232 -348h-58l-233 209l-233 -209h-58z" />
    <glyph glyph-name="atilde" unicode="&#xe3;" horiz-adv-x="901" 
d="M922 88q-86 -106 -177 -106q-136 0 -163 129q-80 -136 -291 -136q-96 0 -163 54q-73 58 -73 151q0 277 518 277v207q0 147 -157 147q-51 0 -108 -26q-68 -30 -68 -74l38 -40q19 -23 19 -50q0 -97 -88 -97q-94 0 -94 97q0 105 104 167q88 52 201 52q85 0 168 -36
q95 -41 127 -109q18 -38 18 -124v-411q0 -129 62 -129q46 0 104 78zM573 150v276q-22 2 -61 2q-279 0 -279 -225q0 -183 144 -183q133 0 196 130zM738 1247q-40 -205 -195 -205q-39 0 -120.5 24t-110.5 24q-70 0 -97 -93h-51q38 211 197 211q32 0 173 -36q43 -11 56 -11
q68 0 94 86h54z" />
    <glyph glyph-name="adieresis" unicode="&#xe4;" horiz-adv-x="901" 
d="M922 88q-86 -106 -177 -106q-136 0 -163 129q-80 -136 -291 -136q-96 0 -163 54q-73 58 -73 151q0 277 518 277v207q0 147 -157 147q-51 0 -108 -26q-68 -30 -68 -74l38 -40q19 -23 19 -50q0 -97 -88 -97q-94 0 -94 97q0 105 104 167q88 52 201 52q85 0 168 -36
q95 -41 127 -109q18 -38 18 -124v-411q0 -129 62 -129q46 0 104 78zM573 150v276q-22 2 -61 2q-279 0 -279 -225q0 -183 144 -183q133 0 196 130zM543 1151q0 40 29 70t69 30t70.5 -30t30.5 -70q0 -43 -29 -70.5t-72 -27.5q-42 0 -70 28t-28 70zM162 1151q0 40 29.5 70
t69.5 30t70 -30t30 -70q0 -42 -29 -70t-71 -28q-43 0 -71 27.5t-28 70.5z" />
    <glyph glyph-name="aring" unicode="&#xe5;" horiz-adv-x="901" 
d="M254 1147q0 -72 47 -120t119 -48q71 0 119.5 48.5t48.5 119.5q0 69 -49.5 118.5t-118.5 49.5t-117.5 -49t-48.5 -119zM178 1147q0 102 70 170.5t172 68.5t172 -68.5t70 -170.5t-70 -172t-172 -70t-172 70t-70 172zM922 88q-86 -106 -177 -106q-136 0 -163 129
q-80 -136 -291 -136q-96 0 -163 54q-73 58 -73 151q0 277 518 277v207q0 147 -157 147q-51 0 -108 -26q-68 -30 -68 -74l38 -40q19 -23 19 -50q0 -97 -88 -97q-94 0 -94 97q0 105 104 167q88 52 201 52q85 0 168 -36q95 -41 127 -109q18 -38 18 -124v-411q0 -129 62 -129
q46 0 104 78zM573 150v276q-22 2 -61 2q-279 0 -279 -225q0 -183 144 -183q133 0 196 130z" />
    <glyph glyph-name="ae" unicode="&#xe6;" horiz-adv-x="1331" 
d="M580 150l-1 276q-22 2 -63 2q-280 0 -280 -229q0 -179 143 -179q132 0 201 130zM752 520h327v94q0 197 -164 197q-163 0 -163 -225v-66zM582 104q-93 -131 -293 -131q-95 0 -162 53q-72 57 -72 150q0 281 525 281v207q0 84 -45 118q-39 29 -127 29q-47 0 -102 -26
q-66 -31 -66 -72l37 -41q20 -24 20 -51q0 -97 -88 -97q-94 0 -94 97q0 106 104 168q87 51 201 51q186 0 287 -99q97 99 221 99q149 0 247 -101q93 -96 105 -247h-528v-213q0 -269 221 -269q112 0 191 79q70 70 100 185h32q-81 -299 -370 -299q-217 0 -344 129z" />
    <glyph glyph-name="ccedilla" unicode="&#xe7;" horiz-adv-x="801" 
d="M764 272q-14 -133 -89 -213q-81 -84 -212 -84q-180 0 -291 113.5t-111 294.5q0 187 117 320q122 139 307 139q97 0 174 -44q93 -53 93 -143q0 -37 -31 -64.5t-68 -27.5q-38 0 -64 28t-26 66q0 34 23 62q30 39 32 43q-1 25 -55 43q-42 14 -76 14q-55 0 -102 -19
q-92 -38 -122 -135q-19 -61 -19 -188v-131q0 -155 35 -227q50 -107 190 -107q236 0 264 260h31zM186 -342l21 41q146 -55 213 -55q98 0 98 98q0 94 -84 94q-10 0 -29 -3v167h35v-124q7 0 21 1h22q188 0 188 -137q0 -73 -78 -111q-61 -30 -143 -30q-103 0 -264 59z" />
    <glyph glyph-name="egrave" unicode="&#xe8;" horiz-adv-x="801" 
d="M233 518h316v96q0 197 -160 197q-156 0 -156 -225v-68zM233 489v-237q0 -244 205 -244q114 0 194 78q71 70 101 186h31q-35 -132 -115 -211q-90 -88 -219 -88q-167 0 -278 132q-105 125 -105 296q0 169 88 296q100 143 262 143q147 0 247 -103q95 -99 106 -248h-517z
M631 950h-67l-330 205q-62 39 -62 82q0 72 74 72q38 0 96 -60z" />
    <glyph glyph-name="eacute" unicode="&#xe9;" horiz-adv-x="801" 
d="M233 518h316v96q0 197 -160 197q-156 0 -156 -225v-68zM233 489v-237q0 -244 205 -244q114 0 194 78q71 70 101 186h31q-35 -132 -115 -211q-90 -88 -219 -88q-167 0 -278 132q-105 125 -105 296q0 169 88 296q100 143 262 143q147 0 247 -103q95 -99 106 -248h-517z
M279 950l289 299q58 60 96 60q74 0 74 -72q0 -43 -62 -82l-330 -205h-67z" />
    <glyph glyph-name="ecircumflex" unicode="&#xea;" horiz-adv-x="801" 
d="M233 518h316v96q0 197 -160 197q-156 0 -156 -225v-68zM233 489v-237q0 -244 205 -244q114 0 194 78q71 70 101 186h31q-35 -132 -115 -211q-90 -88 -219 -88q-167 0 -278 132q-105 125 -105 296q0 169 88 296q100 143 262 143q147 0 247 -103q95 -99 106 -248h-517z
M124 950l232 348h118l232 -348h-58l-233 209l-233 -209h-58z" />
    <glyph glyph-name="edieresis" unicode="&#xeb;" horiz-adv-x="801" 
d="M233 518h316v96q0 197 -160 197q-156 0 -156 -225v-68zM233 489v-237q0 -244 205 -244q114 0 194 78q71 70 101 186h31q-35 -132 -115 -211q-90 -88 -219 -88q-167 0 -278 132q-105 125 -105 296q0 169 88 296q100 143 262 143q147 0 247 -103q95 -99 106 -248h-517z
M547 1151q0 40 29 70t69 30t70.5 -30t30.5 -70q0 -43 -29 -70.5t-72 -27.5q-42 0 -70 28t-28 70zM166 1151q0 40 29.5 70t69.5 30t70 -30t30 -70q0 -42 -29 -70t-71 -28q-43 0 -71 27.5t-28 70.5z" />
    <glyph glyph-name="igrave" unicode="&#xec;" horiz-adv-x="455" 
d="M141 786h-116v29q240 0 288 25v-811h113v-29h-401v29h116v757zM403 950h-67l-330 205q-62 39 -62 82q0 72 74 72q38 0 96 -60z" />
    <glyph glyph-name="iacute" unicode="&#xed;" horiz-adv-x="455" 
d="M141 786h-116v29q240 0 288 25v-811h113v-29h-401v29h116v757zM51 950l289 299q58 60 96 60q74 0 74 -72q0 -43 -62 -82l-330 -205h-67z" />
    <glyph glyph-name="icircumflex" unicode="&#xee;" horiz-adv-x="455" 
d="M141 786h-116v29q240 0 288 25v-811h113v-29h-401v29h116v757zM-64 950l232 348h118l232 -348h-58l-233 209l-233 -209h-58z" />
    <glyph glyph-name="idieresis" unicode="&#xef;" horiz-adv-x="455" 
d="M141 786h-116v29q240 0 288 25v-811h113v-29h-401v29h116v757zM319 1151q0 40 29 70t69 30t70.5 -30t30.5 -70q0 -43 -29 -70.5t-72 -27.5q-42 0 -70 28t-28 70zM-62 1151q0 40 29.5 70t69.5 30t70 -30t30 -70q0 -42 -29 -70t-71 -28q-43 0 -71 27.5t-28 70.5z" />
    <glyph glyph-name="eth" unicode="&#xf0;" horiz-adv-x="891" 
d="M598 1159q246 -295 246 -686q0 -204 -92 -340q-106 -156 -301 -156q-168 0 -285 133q-113 128 -113 298q0 166 115 297q119 135 283 135q107 0 188 -64q-30 180 -137 340l-256 -121l-23 47l256 117q-71 106 -190 217l26 29q143 -100 248 -209l254 117l19 -45zM231 532
v-247q0 -279 215 -279q213 0 213 279v247q0 279 -213 279q-215 0 -215 -279z" />
    <glyph glyph-name="ntilde" unicode="&#xf1;" horiz-adv-x="995" 
d="M25 0v29h116v757h-116v29q230 0 288 25v-183q114 183 289 183q120 0 190 -68t70 -188v-555h119v-29h-403v29h114v614q0 78 -17 111q-25 47 -95 47q-157 0 -267 -201v-571h113v-29h-401zM785 1247q-40 -205 -195 -205q-39 0 -120.5 24t-110.5 24q-70 0 -97 -93h-51
q38 211 197 211q32 0 173 -36q43 -11 56 -11q68 0 94 86h54z" />
    <glyph glyph-name="ograve" unicode="&#xf2;" horiz-adv-x="891" 
d="M47 408q0 167 115 297q120 135 284 135q167 0 285 -134q113 -129 113 -298q0 -168 -114 -297q-119 -134 -284 -134q-166 0 -285 134q-114 129 -114 297zM231 285q0 -279 215 -279q213 0 213 279v247q0 279 -213 279q-215 0 -215 -279v-247zM643 950h-67l-330 205
q-62 39 -62 82q0 72 74 72q38 0 96 -60z" />
    <glyph glyph-name="oacute" unicode="&#xf3;" horiz-adv-x="891" 
d="M47 408q0 167 115 297q120 135 284 135q167 0 285 -134q113 -129 113 -298q0 -168 -114 -297q-119 -134 -284 -134q-166 0 -285 134q-114 129 -114 297zM231 285q0 -279 215 -279q213 0 213 279v247q0 279 -213 279q-215 0 -215 -279v-247zM291 950l289 299q58 60 96 60
q74 0 74 -72q0 -43 -62 -82l-330 -205h-67z" />
    <glyph glyph-name="ocircumflex" unicode="&#xf4;" horiz-adv-x="891" 
d="M47 408q0 167 115 297q120 135 284 135q167 0 285 -134q113 -129 113 -298q0 -168 -114 -297q-119 -134 -284 -134q-166 0 -285 134q-114 129 -114 297zM231 285q0 -279 215 -279q213 0 213 279v247q0 279 -213 279q-215 0 -215 -279v-247zM163 950l232 348h118l232 -348
h-58l-233 209l-233 -209h-58z" />
    <glyph glyph-name="otilde" unicode="&#xf5;" horiz-adv-x="891" 
d="M47 408q0 167 115 297q120 135 284 135q167 0 285 -134q113 -129 113 -298q0 -168 -114 -297q-119 -134 -284 -134q-166 0 -285 134q-114 129 -114 297zM231 285q0 -279 215 -279q213 0 213 279v247q0 279 -213 279q-215 0 -215 -279v-247zM754 1247q-40 -205 -195 -205
q-39 0 -120.5 24t-110.5 24q-70 0 -97 -93h-51q38 211 197 211q32 0 173 -36q43 -11 56 -11q68 0 94 86h54z" />
    <glyph glyph-name="odieresis" unicode="&#xf6;" horiz-adv-x="891" 
d="M47 408q0 167 115 297q120 135 284 135q167 0 285 -134q113 -129 113 -298q0 -168 -114 -297q-119 -134 -284 -134q-166 0 -285 134q-114 129 -114 297zM231 285q0 -279 215 -279q213 0 213 279v247q0 279 -213 279q-215 0 -215 -279v-247zM559 1151q0 40 29 70t69 30
t70.5 -30t30.5 -70q0 -43 -29 -70.5t-72 -27.5q-42 0 -70 28t-28 70zM178 1151q0 40 29.5 70t69.5 30t70 -30t30 -70q0 -42 -29 -70t-71 -28q-43 0 -71 27.5t-28 70.5z" />
    <glyph glyph-name="divide" unicode="&#xf7;" horiz-adv-x="1706" 
d="M854 365q47 0 81 -34t34 -81q0 -48 -33.5 -81.5t-81.5 -33.5t-81.5 33.5t-33.5 81.5t33.5 81.5t81.5 33.5zM254 670h1198v-117h-1198v117zM854 1085q48 0 81.5 -33t33.5 -81t-33.5 -81.5t-81.5 -33.5q-49 0 -82 33t-33 82q0 47 34 80.5t81 33.5z" />
    <glyph glyph-name="oslash" unicode="&#xf8;" horiz-adv-x="901" 
d="M659 285v327l-411 -450q8 -74 67 -117q54 -39 131 -39q213 0 213 279zM238 532v-331l411 450q-29 160 -203 160q-122 0 -171 -83q-37 -64 -37 -196zM715 723l108 119l23 -25l-107 -115q105 -135 105 -290q0 -173 -111 -302q-117 -135 -287 -135q-173 0 -264 117
l-121 -135l-22 27l121 131q-111 143 -111 293q0 171 114 299q119 133 288 133q155 0 264 -117z" />
    <glyph glyph-name="ugrave" unicode="&#xf9;" horiz-adv-x="991" 
d="M686 786h-119v29q229 0 289 25v-811h115v-29h-287v182q-122 -182 -293 -182q-120 0 -191 68.5t-71 187.5v530h-117v29q229 0 289 25v-645q0 -156 121 -156q142 0 264 201v546zM672 950h-67l-330 205q-62 39 -62 82q0 72 74 72q38 0 96 -60z" />
    <glyph glyph-name="uacute" unicode="&#xfa;" horiz-adv-x="991" 
d="M686 786h-119v29q229 0 289 25v-811h115v-29h-287v182q-122 -182 -293 -182q-120 0 -191 68.5t-71 187.5v530h-117v29q229 0 289 25v-645q0 -156 121 -156q142 0 264 201v546zM320 950l289 299q58 60 96 60q74 0 74 -72q0 -43 -62 -82l-330 -205h-67z" />
    <glyph glyph-name="ucircumflex" unicode="&#xfb;" horiz-adv-x="991" 
d="M686 786h-119v29q229 0 289 25v-811h115v-29h-287v182q-122 -182 -293 -182q-120 0 -191 68.5t-71 187.5v530h-117v29q229 0 289 25v-645q0 -156 121 -156q142 0 264 201v546zM205 950l232 348h118l232 -348h-58l-233 209l-233 -209h-58z" />
    <glyph glyph-name="udieresis" unicode="&#xfc;" horiz-adv-x="991" 
d="M686 786h-119v29q229 0 289 25v-811h115v-29h-287v182q-122 -182 -293 -182q-120 0 -191 68.5t-71 187.5v530h-117v29q229 0 289 25v-645q0 -156 121 -156q142 0 264 201v546zM588 1151q0 40 29 70t69 30t70.5 -30t30.5 -70q0 -43 -29 -70.5t-72 -27.5q-42 0 -70 28
t-28 70zM207 1151q0 40 29.5 70t69.5 30t70 -30t30 -70q0 -42 -29 -70t-71 -28q-43 0 -71 27.5t-28 70.5z" />
    <glyph glyph-name="yacute" unicode="&#xfd;" horiz-adv-x="901" 
d="M219 -510q-44 0 -72 29t-28 73q0 39 24.5 66t63.5 27q85 0 86 -93q0 -4 -1 -12t-1 -12l2 -3q1 -1 4 -1q62 0 147 405l-352 817h-86v29h381v-29h-117l252 -602l180 487q17 46 17 68q0 50 -168 47v29h321v-29q-60 0 -99 -54q-23 -31 -52 -109l-180 -484q-44 -119 -87 -276
l-48 -175q-37 -119 -78 -158.5t-109 -39.5zM275 950l289 299q58 60 96 60q74 0 74 -72q0 -43 -62 -82l-330 -205h-67z" />
    <glyph glyph-name="thorn" unicode="&#xfe;" horiz-adv-x="1010" 
d="M301 578v-369q82 -203 266 -203q117 0 162 93q31 64 31 194v235q0 275 -199 275q-178 0 -260 -225zM420 -465v-29h-408v29h119v1792h-119v29q122 0 149 3q76 8 140 46v-754q85 189 272 189q162 0 271 -137q102 -127 102 -293q0 -185 -100 -306q-108 -129 -289 -129
q-157 0 -256 160v-600h119z" />
    <glyph glyph-name="ydieresis" unicode="&#xff;" horiz-adv-x="901" 
d="M219 -510q-44 0 -72 29t-28 73q0 39 24.5 66t63.5 27q85 0 86 -93q0 -4 -1 -12t-1 -12l2 -3q1 -1 4 -1q62 0 147 405l-352 817h-86v29h381v-29h-117l252 -602l180 487q17 46 17 68q0 50 -168 47v29h321v-29q-60 0 -99 -54q-23 -31 -52 -109l-180 -484q-44 -119 -87 -276
l-48 -175q-37 -119 -78 -158.5t-109 -39.5zM543 1151q0 40 29 70t69 30t70.5 -30t30.5 -70q0 -43 -29 -70.5t-72 -27.5q-42 0 -70 28t-28 70zM162 1151q0 40 29.5 70t69.5 30t70 -30t30 -70q0 -42 -29 -70t-71 -28q-43 0 -71 27.5t-28 70.5z" />
    <glyph glyph-name="Cacute" unicode="&#x106;" horiz-adv-x="1241" 
d="M1094 485h26v-458h-26q-16 96 -66 96q-13 0 -139 -76t-232 -76q-178 0 -339 132q-151 123 -215 299q-42 112 -42 247q0 218 92 397q101 195 285 285q109 53 228 53q101 0 233.5 -69.5t138.5 -69.5q52 0 56 82h26v-405h-26q-19 176 -126 299q-118 135 -288 135
q-391 0 -391 -699q0 -210 30 -332q47 -187 175 -270q80 -53 165 -53q135 0 255 97.5t157 229.5q16 60 23 156zM445 1495l289 299q58 60 96 60q74 0 74 -72q0 -43 -62 -82l-330 -205h-67z" />
    <glyph glyph-name="cacute" unicode="&#x107;" horiz-adv-x="801" 
d="M764 272q-14 -133 -89 -213q-81 -84 -212 -84q-180 0 -291 113.5t-111 294.5q0 187 117 320q122 139 307 139q97 0 174 -44q93 -53 93 -143q0 -37 -31 -64.5t-68 -27.5q-38 0 -64 28t-26 66q0 34 23 62q30 39 32 43q-1 25 -55 43q-42 14 -76 14q-55 0 -102 -19
q-92 -38 -122 -135q-19 -61 -19 -188v-131q0 -155 35 -227q50 -107 190 -107q236 0 264 260h31zM264 950l289 299q58 60 96 60q74 0 74 -72q0 -43 -62 -82l-330 -205h-67z" />
    <glyph glyph-name="Ccaron" unicode="&#x10c;" horiz-adv-x="1241" 
d="M1094 485h26v-458h-26q-16 96 -66 96q-13 0 -139 -76t-232 -76q-178 0 -339 132q-151 123 -215 299q-42 112 -42 247q0 218 92 397q101 195 285 285q109 53 228 53q101 0 233.5 -69.5t138.5 -69.5q52 0 56 82h26v-405h-26q-19 176 -126 299q-118 135 -288 135
q-391 0 -391 -699q0 -210 30 -332q47 -187 175 -270q80 -53 165 -53q135 0 255 97.5t157 229.5q16 60 23 156zM330 1843h58l233 -211l233 211h58l-232 -348h-118z" />
    <glyph glyph-name="ccaron" unicode="&#x10d;" horiz-adv-x="801" 
d="M764 272q-14 -133 -89 -213q-81 -84 -212 -84q-180 0 -291 113.5t-111 294.5q0 187 117 320q122 139 307 139q97 0 174 -44q93 -53 93 -143q0 -37 -31 -64.5t-68 -27.5q-38 0 -64 28t-26 66q0 34 23 62q30 39 32 43q-1 25 -55 43q-42 14 -76 14q-55 0 -102 -19
q-92 -38 -122 -135q-19 -61 -19 -188v-131q0 -155 35 -227q50 -107 190 -107q236 0 264 260h31zM149 1298h58l233 -211l233 211h58l-232 -348h-118z" />
    <glyph glyph-name="Dslash" unicode="&#x110;" horiz-adv-x="1337" 
d="M379 29h119q551 0 551 649t-551 649h-119v-594h352v-53h-352v-651zM25 0v29h149v651h-174v53h174v594h-149v29h512q171 0 290 -37q207 -64 327 -245q116 -174 116 -396q0 -242 -135 -422q-139 -186 -372 -235q-98 -21 -226 -21h-512z" />
    <glyph glyph-name="dcroat" unicode="&#x111;" horiz-adv-x="1010" 
d="M246 291q0 -128 31 -193q45 -92 161 -92q182 0 264 203v366l-9 24q-36 90 -97 142q-70 60 -154 60q-196 0 -196 -275v-235zM702 135q-98 -160 -253 -160q-181 0 -289 130q-101 121 -101 305q0 164 103 292q110 136 270 136q191 0 270 -189v389h-294v52h294v237h-116v29
q123 0 149 3q76 8 139 46v-315h138v-52h-138v-1009h119v-29h-291v135z" />
    <glyph glyph-name="Gbreve" unicode="&#x11e;" 
d="M1198 178q-233 -207 -496 -207q-301 0 -475 201q-164 190 -164 496q0 172 53 309q69 176 223 290q159 117 345 117q100 0 195 -41q16 -7 95 -57q69 -43 83 -43q61 0 61 98h27v-413h-29q-22 182 -128 299q-116 129 -292 129q-221 0 -328 -222q-83 -171 -83 -417
q0 -715 420 -715q288 0 288 305v99h-162v28h506v-28h-139v-228zM381 1805h51q32 -142 242 -142q208 0 240 142h51q-40 -271 -291 -271q-250 0 -293 271z" />
    <glyph glyph-name="gbreve" unicode="&#x11f;" horiz-adv-x="905" 
d="M549 -37h-180q-242 0 -242 -217q0 -114 88 -174q76 -51 195 -51q148 0 263 78q130 88 130 229q0 90 -89 119q-50 16 -165 16zM262 528q0 -225 172 -225q105 0 140 86q22 53 22 178q0 112 -26 167q-38 81 -138 81q-110 0 -147 -96q-23 -58 -23 -191zM219 -43
q-72 6 -116 66q-42 55 -42 129q0 170 195 180q-147 99 -147 225q0 129 101 209q93 74 226 74q135 0 215 -82q68 78 150 78q98 0 98 -82q0 -68 -70 -68q-75 0 -75 59q0 34 26 60q-56 -10 -108 -66q76 -92 76 -184q0 -121 -99 -203q-93 -78 -217 -78q-31 0 -92 15.5t-92 15.5
q-53 0 -95 -24q-51 -29 -51 -78q0 -46 41 -64q37 -18 181 -18h229q168 -9 226 -53q69 -53 69 -193q0 -180 -130 -287q-122 -100 -306 -100q-144 0 -250 51q-137 66 -137 195q0 139 194 223zM160 1260h51q32 -142 242 -142q208 0 240 142h51q-40 -271 -291 -271
q-250 0 -293 271z" />
    <glyph glyph-name="Idotaccent" unicode="&#x130;" horiz-adv-x="555" 
d="M25 0v29h153v1298h-153v29h505v-29h-145v-1298h145v-29h-505zM146 1651q0 41 29.5 70.5t70.5 29.5t70.5 -29.5t29.5 -70.5q0 -42 -29 -71t-71 -29t-71 29t-29 71z" />
    <glyph glyph-name="dotlessi" unicode="&#x131;" horiz-adv-x="455" 
d="M141 786h-116v29q240 0 288 25v-811h113v-29h-401v29h116v757z" />
    <glyph glyph-name="Lslash" unicode="&#x141;" horiz-adv-x="1180" 
d="M25 0v29h151v549l-176 -127v67l176 123v686h-151v29h505v-29h-145v-557l406 285v-68l-406 -287v-671h229q311 0 411.5 79t100.5 334h29v-442h-1130z" />
    <glyph glyph-name="lslash" unicode="&#x142;" horiz-adv-x="455" 
d="M25 0v29h118v592l-143 -99v60l143 104v641h-118v29q122 0 149 3q75 8 139 46v-610l142 100v-68l-142 -100v-698h113v-29h-401z" />
    <glyph glyph-name="OE" unicode="&#x152;" horiz-adv-x="1907" 
d="M864 1212q0 83 -54 110q-37 19 -130 19q-430 0 -430 -643q0 -303 68 -457q100 -227 362 -227q93 0 130 19q54 28 54 110v1069zM678 -14q-279 0 -467 205q-184 200 -184 481q0 297 176 494q184 204 477 204q50 0 149.5 -7t149.5 -7h745l25 -330h-29q-16 187 -114 250
q-79 51 -279 51h-258v-622h64q162 0 221 38q76 50 76 201h28v-500h-28q0 138 -54 184t-243 46h-64v-645h262q239 0 338 63q127 80 127 303h29v-395h-852q-49 0 -147.5 -7t-147.5 -7z" />
    <glyph glyph-name="oe" unicode="&#x153;" horiz-adv-x="1421" 
d="M854 520h313v94q0 197 -157 197q-156 0 -156 -225v-66zM231 283q0 -277 215 -277q213 0 213 277v247q0 277 -213 277q-215 0 -215 -277v-247zM752 137q-139 -162 -306 -162t-285 135q-114 129 -114 298q0 177 122 304.5t298 127.5q155 0 295 -140q115 140 262 140
q145 0 243 -104q93 -100 103 -247h-516v-237q0 -120 42 -178q49 -66 165 -66q112 0 192 79q71 70 101 185h30q-34 -132 -115 -211q-91 -88 -220 -88q-185 0 -297 164z" />
    <glyph glyph-name="Scedilla" unicode="&#x15e;" horiz-adv-x="1014" 
d="M94 485h29q14 -204 113 -334q113 -149 307 -149q138 0 233.5 86.5t95.5 222.5q0 55 -22 103q-53 116 -256 164q-287 67 -333 91q-165 88 -165 314q0 179 96 288q100 113 277 113q85 0 172 -37l158 -79q51 -1 51 78h29v-400h-29q-22 180 -109 286q-101 124 -272 124
q-134 0 -208 -69q-77 -71 -77 -204q0 -146 109 -213q33 -20 153 -40q265 -44 359 -99q160 -94 160 -315q0 -196 -109 -317q-113 -126 -307 -126q-108 0 -236.5 53.5t-140.5 53.5q-46 0 -50 -80h-28v485zM254 -342l21 41q146 -55 213 -55q98 0 98 98q0 94 -84 94
q-10 0 -29 -3v167h35v-124q7 0 21 1h22q188 0 188 -137q0 -73 -78 -111q-61 -30 -143 -30q-103 0 -264 59z" />
    <glyph glyph-name="scedilla" unicode="&#x15f;" horiz-adv-x="674" 
d="M72 -6v287h20q72 -271 258 -271q87 0 136 51t49 138q0 155 -199 155q-118 0 -188 57q-76 61 -76 177q0 103 62.5 176.5t164.5 73.5q79 0 173 -45q19 -9 22 -9q37 0 22 55l33 1v-240h-23q-45 211 -223 211q-69 0 -117 -39q-51 -42 -51 -110q0 -27 10 -51q24 -62 106 -80
l162 -21q101 -18 153 -78q57 -65 57 -168q0 -125 -65 -205q-71 -86 -193 -86q-99 0 -198 63q-24 15 -30 15q-37 0 -37 -57h-28zM84 -342l21 41q146 -55 213 -55q98 0 98 98q0 94 -84 94q-10 0 -29 -3v167h35v-124q7 0 21 1h22q188 0 188 -137q0 -73 -78 -111
q-61 -30 -143 -30q-103 0 -264 59z" />
    <glyph glyph-name="Scaron" unicode="&#x160;" horiz-adv-x="1014" 
d="M94 485h29q14 -204 113 -334q113 -149 307 -149q138 0 233.5 86.5t95.5 222.5q0 55 -22 103q-53 116 -256 164q-287 67 -333 91q-165 88 -165 314q0 179 96 288q100 113 277 113q85 0 172 -37l158 -79q51 -1 51 78h29v-400h-29q-22 180 -109 286q-101 124 -272 124
q-134 0 -208 -69q-77 -71 -77 -204q0 -146 109 -213q33 -20 153 -40q265 -44 359 -99q160 -94 160 -315q0 -196 -109 -317q-113 -126 -307 -126q-108 0 -236.5 53.5t-140.5 53.5q-46 0 -50 -80h-28v485zM217 1843h58l233 -211l233 211h58l-232 -348h-118z" />
    <glyph glyph-name="scaron" unicode="&#x161;" horiz-adv-x="674" 
d="M72 -6v287h20q72 -271 258 -271q87 0 136 51t49 138q0 155 -199 155q-118 0 -188 57q-76 61 -76 177q0 103 62.5 176.5t164.5 73.5q79 0 173 -45q19 -9 22 -9q37 0 22 55l33 1v-240h-23q-45 211 -223 211q-69 0 -117 -39q-51 -42 -51 -110q0 -27 10 -51q24 -62 106 -80
l162 -21q101 -18 153 -78q57 -65 57 -168q0 -125 -65 -205q-71 -86 -193 -86q-99 0 -198 63q-24 15 -30 15q-37 0 -37 -57h-28zM47 1298h58l233 -211l233 211h58l-232 -348h-118z" />
    <glyph glyph-name="Ydieresis" unicode="&#x178;" horiz-adv-x="1014" 
d="M233 0v29h177v483l-363 815h-160v29h523v-29h-146l328 -729l264 598q21 48 21 74q0 57 -136 57v29h349v-29q-86 0 -116 -17q-36 -19 -69 -93l-295 -666v-522h174v-29h-551zM600 1696q0 40 29 70t69 30t70.5 -30t30.5 -70q0 -43 -29 -70.5t-72 -27.5q-42 0 -70 28t-28 70z
M219 1696q0 40 29.5 70t69.5 30t70 -30t30 -70q0 -42 -29 -70t-71 -28q-43 0 -71 27.5t-28 70.5z" />
    <glyph glyph-name="Zcaron" unicode="&#x17d;" horiz-adv-x="1223" 
d="M43 0l809 1327h-225q-297 0 -392 -61.5t-95 -223.5q0 -26 3 -53h-28v367h995l-821 -1327h262q315 0 423.5 70.5t108.5 252.5q0 7 -1 21.5t-1 21.5h29v-395h-1067zM321 1843h58l233 -211l233 211h58l-232 -348h-118z" />
    <glyph glyph-name="zcaron" unicode="&#x17e;" horiz-adv-x="782" 
d="M25 0l503 786h-198q-139 0 -184 -73q-33 -53 -33 -203h-31v305h672l-518 -786h202q133 0 190 73q50 64 50 201h27v-303h-680zM100 1298h58l233 -211l233 211h58l-232 -348h-118z" />
    <glyph glyph-name="florin" unicode="&#x192;" horiz-adv-x="985" 
d="M373 649h-236v37h240q31 241 111 416q118 258 303 258q68 0 111.5 -38t43.5 -105q0 -42 -27.5 -72.5t-68.5 -30.5q-36 0 -61 22.5t-25 57.5q0 29 24.5 63.5t24.5 36.5q0 33 -41 33q-154 0 -197 -412l-24 -229h248v-37h-248q-58 -598 -159 -850t-277 -252q-59 0 -98 28
q-44 32 -44 89q0 94 93 94q75 0 75 -82q0 -11 -12 -33.5t-12 -33.5q0 -23 37 -23q72 0 111.5 102t60.5 371z" />
    <glyph glyph-name="circumflex" unicode="&#x2c6;" horiz-adv-x="1024" 
d="M221 950l232 348h118l232 -348h-58l-233 209l-233 -209h-58z" />
    <glyph glyph-name="caron" unicode="&#x2c7;" horiz-adv-x="1024" 
d="M221 1298h58l233 -211l233 211h58l-232 -348h-118z" />
    <glyph glyph-name="macron" unicode="&#xaf;" horiz-adv-x="1024" 
d="M254 1042v125h516v-125h-516z" />
    <glyph glyph-name="macron" unicode="&#x2c9;" horiz-adv-x="1024" 
d="M254 1042v125h516v-125h-516z" />
    <glyph glyph-name="breve" unicode="&#x2d8;" horiz-adv-x="1024" 
d="M219 1260h51q32 -142 242 -142q208 0 240 142h51q-40 -271 -291 -271q-250 0 -293 271z" />
    <glyph glyph-name="dotaccent" unicode="&#x2d9;" horiz-adv-x="1024" 
d="M412 1106q0 41 29.5 70.5t70.5 29.5t70.5 -29.5t29.5 -70.5q0 -42 -29 -71t-71 -29t-71 29t-29 71z" />
    <glyph glyph-name="ring" unicode="&#x2da;" horiz-adv-x="1024" 
d="M362 1171q0 -63 43.5 -106t106.5 -43t106.5 43t43.5 106q0 62 -44 107t-106 45q-63 0 -106.5 -44.5t-43.5 -107.5zM272 1171q0 102 69 172t171 70t172 -70t70 -172t-70 -170.5t-172 -68.5t-171 68.5t-69 170.5z" />
    <glyph glyph-name="ogonek" unicode="&#x2db;" horiz-adv-x="1024" 
d="M625 0q-183 -141 -183 -266q0 -119 103 -119q77 0 119 74l28 -19q-74 -149 -211 -149q-66 0 -111 38q-48 40 -48 105q0 172 253 336h50z" />
    <glyph glyph-name="tilde" unicode="&#x2dc;" horiz-adv-x="1024" 
d="M799 1247q-40 -205 -195 -205q-39 0 -120.5 24t-110.5 24q-70 0 -97 -93h-51q38 211 197 211q32 0 173 -36q43 -11 56 -11q68 0 94 86h54z" />
    <glyph glyph-name="hungarumlaut" unicode="&#x2dd;" horiz-adv-x="1024" 
d="M594 950l143 279q42 82 92 82q28 0 48 -20t20 -48q0 -32 -41 -76l-203 -217h-59zM319 950l144 279q42 82 92 82q28 0 48 -20t20 -48q0 -33 -41 -76l-205 -217h-58z" />
    <glyph glyph-name="Delta" unicode="&#x394;" horiz-adv-x="1208" 
d="M555 1212l-389 -1042h768zM596 1497h29l555 -1497h-1151z" />
    <glyph glyph-name="Delta" unicode="&#x2206;" horiz-adv-x="1208" 
d="M555 1212l-389 -1042h768zM596 1497h29l555 -1497h-1151z" />
    <glyph glyph-name="Omega" unicode="&#x3a9;" horiz-adv-x="1567" 
d="M1100 188v-26h313l66 203h61l-108 -365h-500q270 469 270 864q0 240 -86 384q-106 177 -330 177t-331 -177q-86 -144 -86 -384q0 -390 272 -864h-500l-110 365h61l68 -203h311v26q-146 179 -214 319q-89 182 -89 370q0 272 173 446t445 174q271 0 444 -174.5t173 -445.5
q0 -188 -89 -370q-68 -140 -214 -319z" />
    <glyph glyph-name="Omega" unicode="&#x2126;" horiz-adv-x="1567" 
d="M1100 188v-26h313l66 203h61l-108 -365h-500q270 469 270 864q0 240 -86 384q-106 177 -330 177t-331 -177q-86 -144 -86 -384q0 -390 272 -864h-500l-110 365h61l68 -203h311v26q-146 179 -214 319q-89 182 -89 370q0 272 173 446t445 174q271 0 444 -174.5t173 -445.5
q0 -188 -89 -370q-68 -140 -214 -319z" />
    <glyph glyph-name="mu" unicode="&#xb5;" horiz-adv-x="1120" 
d="M164 193q-25 -124 -52 -339l-4 -28q-33 -244 -108 -244q-80 0 -80 88q0 39 64.5 273.5t105.5 427.5l109 514h147l-104 -492q-13 -62 -13 -112q0 -175 160 -175q199 0 258 269l111 510h149l-114 -531q-21 -98 -21 -137q0 -108 92 -108q67 0 109 58q22 30 50 107
q22 58 38 58q26 0 26 -37q0 -24 -11 -66q-64 -247 -259 -247q-149 0 -149 213q-91 -218 -281 -218q-195 0 -223 216z" />
    <glyph glyph-name="mu" unicode="&#x3bc;" horiz-adv-x="1120" 
d="M164 193q-25 -124 -52 -339l-4 -28q-33 -244 -108 -244q-80 0 -80 88q0 39 64.5 273.5t105.5 427.5l109 514h147l-104 -492q-13 -62 -13 -112q0 -175 160 -175q199 0 258 269l111 510h149l-114 -531q-21 -98 -21 -137q0 -108 92 -108q67 0 109 58q22 30 50 107
q22 58 38 58q26 0 26 -37q0 -24 -11 -66q-64 -247 -259 -247q-149 0 -149 213q-91 -218 -281 -218q-195 0 -223 216z" />
    <glyph glyph-name="pi" unicode="&#x3c0;" horiz-adv-x="1354" 
d="M1329 885l-35 -162h-329q-32 -167 -54 -452q-25 -314 -120 -314q-78 0 -78 94q0 57 77.5 282.5t116.5 389.5h-375q-29 -158 -53 -448q-26 -318 -123 -318q-77 0 -77 96q0 55 78 277q78 226 118 393h-133q-130 0 -179 -44q-44 -40 -73 -171h-59q33 186 99 270
q85 107 257 107h942z" />
    <glyph glyph-name="endash" unicode="&#x2013;" horiz-adv-x="1024" 
d="M0 352v115h1024v-115h-1024z" />
    <glyph glyph-name="emdash" unicode="&#x2014;" horiz-adv-x="2048" 
d="M0 467h2048v-115h-2048v115z" />
    <glyph glyph-name="quoteleft" unicode="&#x2018;" horiz-adv-x="494" 
d="M291 1384l20 -22q-170 -168 -170 -326q0 -51 41 -51q17 0 56 14.5t61 14.5q109 0 109 -103q0 -49 -39 -79q-35 -27 -86 -27q-84 0 -132 68q-42 60 -42 147q0 202 182 364z" />
    <glyph glyph-name="quoteright" unicode="&#x2019;" horiz-adv-x="494" 
d="M225 807l-20 22q172 170 172 324q0 53 -43 53q-17 0 -56 -14t-61 -14q-108 0 -108 100q0 49 38 79q35 27 86 27q84 0 132 -67q43 -59 43 -146q0 -197 -183 -364z" />
    <glyph glyph-name="quotesinglbase" unicode="&#x201a;" horiz-adv-x="494" 
d="M225 -393l-20 22q172 170 172 324q0 53 -43 53q-17 0 -56 -14.5t-61 -14.5q-108 0 -108 101q0 49 38 79q35 27 86 27q84 0 132 -67q43 -59 43 -146q0 -197 -183 -364z" />
    <glyph glyph-name="quotedblleft" unicode="&#x201c;" horiz-adv-x="872" 
d="M674 1384l20 -22q-170 -168 -170 -326q0 -51 41 -51q17 0 56 14.5t61 14.5q109 0 109 -103q0 -49 -39 -79q-35 -27 -86 -27q-84 0 -131 68q-41 60 -41 147q0 200 180 364zM291 1384l20 -22q-170 -168 -170 -326q0 -51 41 -51q17 0 56 14.5t61 14.5q109 0 109 -103
q0 -49 -39 -79q-35 -27 -86 -27q-84 0 -132 68q-42 60 -42 147q0 202 182 364z" />
    <glyph glyph-name="quotedblright" unicode="&#x201d;" horiz-adv-x="872" 
d="M596 807l-21 22q170 168 170 324q0 53 -40 53q-17 0 -56 -14t-61 -14q-109 0 -109 100q0 50 36 78t87 28q84 0 132 -67q42 -59 42 -146q0 -200 -180 -364zM225 807l-20 22q172 170 172 324q0 53 -43 53q-17 0 -56 -14t-61 -14q-108 0 -108 100q0 49 38 79q35 27 86 27
q84 0 132 -67q43 -59 43 -146q0 -197 -183 -364z" />
    <glyph glyph-name="quotedblbase" unicode="&#x201e;" horiz-adv-x="872" 
d="M600 -393l-22 22q172 170 172 324q0 53 -41 53q-17 0 -56 -14.5t-61 -14.5q-109 0 -109 101q0 50 36 78t87 28q84 0 132 -67q42 -59 42 -146q0 -200 -180 -364zM225 -393l-20 22q172 170 172 324q0 53 -43 53q-17 0 -56 -14.5t-61 -14.5q-108 0 -108 101q0 49 38 79
q35 27 86 27q84 0 132 -67q43 -59 43 -146q0 -197 -183 -364z" />
    <glyph glyph-name="dagger" unicode="&#x2020;" horiz-adv-x="1024" 
d="M491 760q-187 0 -333 -96q-14 -10 -23 -13q-9 0 -16 8t-4 17l14 49q-111 21 -111 41q0 16 111 47q-14 51 -14 55q0 23 22 23q8 0 45 -31q88 -76 275 -76h34q-3 245 -93 426q-3 6 -9 19q0 16 12 16q15 0 51 -16l29 121q8 34 29 34q19 0 27 -35l26 -120q36 16 51 16
q13 0 13 -16q-2 -6 -9 -19q-90 -181 -94 -425q92 2 123 4q76 6 119 26q13 6 63 42q46 34 50 34q18 0 18 -12q0 2 -8 -66q108 -33 108 -47q0 -21 -110 -41q12 -52 12 -57q0 -17 -16 -17q-9 3 -23 13q-146 96 -335 96q4 -557 113 -989q9 -36 9 -39q0 -13 -18 -13t-58 27
l-26 -147q-8 -48 -35 -48q-30 0 -39 47l-27 148q-38 -27 -57 -27q-18 0 -18 13q0 6 8 38q109 437 114 990z" />
    <glyph glyph-name="daggerdbl" unicode="&#x2021;" horiz-adv-x="1024" 
d="M422 465q74 105 78 372q-164 -12 -234 -46q-10 -5 -51 -37q-35 -27 -45 -27q-18 0 -18 16q0 6 13 64q-104 6 -104 43q0 23 105 43q-12 52 -12 59q0 15 20 15q12 0 42 -22q39 -30 42 -32q89 -51 225 -51h17q-12 160 -86 320q-17 37 -17 43q0 10 19 10q12 0 46 -10l23 114
q9 45 27 45t27 -45l23 -114q34 10 46 10q19 0 19 -10q0 -7 -17 -43q-75 -159 -83 -320q158 0 243 53l40 30q29 22 40 22q20 0 20 -15q0 -7 -12 -59q105 -20 105 -43q0 -37 -104 -43q13 -58 13 -64q0 -16 -18 -16q-11 0 -50 30q-46 35 -56 40q-70 34 -222 40q0 -268 76 -372
q-75 -102 -77 -373q165 14 233 47q10 5 51 37q35 27 45 27q18 0 18 -17q0 -9 -14 -63q105 -6 105 -43q0 -23 -105 -43q12 -52 12 -60q0 -14 -20 -14q-11 0 -41 22q-41 30 -43 31q-94 52 -225 52h-17q12 -161 86 -321q17 -37 17 -42q0 -10 -19 -10q-11 0 -47 10l-24 -115
q-9 -45 -25 -45q-18 0 -27 45l-22 115q-36 -10 -47 -10q-19 0 -19 10q0 7 17 43q75 159 84 319h-11q-72 1 -130 -12q-79 -18 -144 -71q-27 -21 -39 -21q-20 0 -20 14q0 8 12 60q-105 20 -105 43q0 37 105 43q-14 54 -14 63q0 17 18 17q11 0 50 -30q46 -35 56 -40
q68 -33 221 -41v14q0 260 -75 359z" />
    <glyph glyph-name="bullet" unicode="&#x2022;" horiz-adv-x="1208" 
d="M307 762q0 124 86.5 209.5t210.5 85.5q123 0 209 -86t86 -209t-87 -210t-210 -87q-124 0 -209.5 86.5t-85.5 210.5z" />
    <glyph glyph-name="ellipsis" unicode="&#x2026;" horiz-adv-x="2048" 
d="M250 76q0 38 26 65t64 27t65 -27t27 -65q0 -39 -26.5 -64.5t-65.5 -25.5q-38 0 -64 26t-26 64zM932 76q0 38 26 65t64 27t65 -27t27 -65q0 -39 -26.5 -64.5t-65.5 -25.5q-38 0 -64 26t-26 64zM1616 76q0 38 26 65t64 27t65 -27t27 -65q0 -39 -26.5 -64.5t-65.5 -25.5
q-38 0 -64 26t-26 64z" />
    <glyph glyph-name="perthousand" unicode="&#x2030;" horiz-adv-x="2134" 
d="M1671 346q0 -143 13 -203q29 -129 122 -129q96 0 125 128q13 59 13 204q0 144 -13 203q-29 127 -125 127q-73 0 -104 -68.5t-31 -261.5zM1538 346q0 135 65 239q75 120 203 120q129 0 205 -120q66 -103 66 -239q0 -135 -66 -239q-77 -121 -205 -121t-203 121
q-65 104 -65 239zM979 346q0 -143 13 -203q29 -129 122 -129q74 0 107 72q30 68 30 260t-30 260q-33 70 -107 70q-73 0 -104 -68.5t-31 -261.5zM846 346q0 135 65 239q75 120 203 120q129 0 205 -120q65 -103 65 -239q0 -134 -66 -239q-77 -121 -204 -121q-128 0 -203 121
q-65 104 -65 239zM188 991q0 -142 14 -203q30 -129 124 -129q95 0 124 129q13 59 13 203q0 193 -30 261q-33 71 -107 71q-96 0 -125 -128q-13 -59 -13 -204zM57 991q0 136 65 240q76 121 204 121t204 -121q66 -105 66 -240q0 -134 -66 -239q-77 -121 -204 -121
q-128 0 -204 121q-65 104 -65 239zM391 -25h-61l719 1385h63z" />
    <glyph glyph-name="guilsinglleft" unicode="&#x2039;" horiz-adv-x="569" 
d="M111 410l325 311h29q-56 -107 -227 -311q89 -107 122 -150q67 -88 105 -162h-29q-87 92 -325 312z" />
    <glyph glyph-name="guilsinglright" unicode="&#x203a;" horiz-adv-x="569" 
d="M459 410l-326 -312h-29q54 105 226 312q-86 102 -122 149q-66 88 -104 162h29q100 -104 326 -311z" />
    <glyph glyph-name="fraction" unicode="&#x2044;" horiz-adv-x="342" 
d="M-281 -25h-61l963 1385h61z" />
    <glyph glyph-name="franc" unicode="&#x20a3;" horiz-adv-x="1853" 
d="M39 0v29h158v1298h-158v29h1026l29 -346h-33q-16 196 -139 265q-92 52 -308 52h-213v-622h54q204 0 262.5 51t58.5 205h29v-525l-29 1q-1 141 -58.5 190t-262.5 49h-54v-647h166v-29h-528zM1196 0v29h116v757h-116v29q230 0 288 25v-213q87 213 226 213q53 0 90 -26
q41 -30 41 -81q0 -98 -82 -98q-36 0 -64 25t-28 61q0 34 38 80q-18 4 -24 4q-60 0 -114 -81q-47 -70 -75 -182q-8 -31 -8 -34v-479h113v-29h-401z" />
    <glyph glyph-name="u20AB" unicode="&#x20ab;" horiz-adv-x="697" 
d="M167 606q0 -196 132 -196q125 0 181 140v251q-2 5 -6 16q-56 139 -172 139q-135 0 -135 -189v-161zM480 499q-67 -110 -173 -110q-124 0 -198 89q-70 83 -70 209q0 113 70 201q76 93 186 93q131 0 185 -130v267h-202v36h202v162h-79v20q141 0 197 34v-216h95v-36h-95
v-692h82v-20h-200v93zM102 243h438v-81h-438v81z" />
    <glyph glyph-name="trademark" unicode="&#x2122;" horiz-adv-x="1683" 
d="M788 1438h183l141 -400l148 400h174v-25q-41 -3 -54 -9q-22 -12 -22 -46v-373q0 -34 22 -46q13 -6 54 -9v-27h-236v27q76 5 76 55v395l-178 -479h-15l-174 479v-395q0 -50 78 -55v-27h-197v27q42 2 55 9q23 11 23 46v371q0 50 -78 55v27zM256 1438h440l11 -178h-25
q-8 83 -42 117t-116 34v-426q0 -51 76 -55v-27h-248v27q40 2 53 9q23 11 23 46v426h-20q-123 0 -138 -151h-26z" />
    <glyph glyph-name="partialdiff" unicode="&#x2202;" horiz-adv-x="1044" 
d="M754 604q26 162 26 320q0 293 -151 293q-48 0 -117 -63.5t-109 -63.5q-30 0 -51.5 21.5t-21.5 51.5q0 71 84 115q69 37 147 37q199 0 298 -194q77 -152 77 -371q0 -335 -139 -555t-344 -220q-155 0 -249 114q-87 107 -87 265q0 176 98 303q106 140 277 140
q192 0 262 -193zM709 483q0 244 -172 244q-138 0 -206 -172q-50 -126 -50 -289q0 -239 172 -239q135 0 204 170q52 127 52 286z" />
    <glyph glyph-name="product" unicode="&#x220f;" horiz-adv-x="1595" 
d="M57 1473h1479v-70h-186v-1727h186v-69h-555v69h197v1727h-762v-1727h196v-69h-555v69h187v1727h-187v70z" />
    <glyph glyph-name="summation" unicode="&#x2211;" horiz-adv-x="1434" 
d="M12 1473h1135l98 -340h-74l-67 219q-16 51 -105 51h-741l864 -850v-37l-858 -756h900q47 0 65 10q22 12 35 54l71 229h74l-135 -446h-1260v28l959 838l-961 950v50z" />
    <glyph glyph-name="minus" unicode="&#x2212;" horiz-adv-x="1706" 
d="M254 670h1198v-119h-1198v119z" />
    <glyph glyph-name="periodcentered" horiz-adv-x="494" 
d="M156 668q0 38 26 65t64 27t65 -27t27 -65q0 -39 -26.5 -64.5t-65.5 -25.5q-38 0 -64 26t-26 64z" />
    <glyph glyph-name="radical" unicode="&#x221a;" horiz-adv-x="1288" 
d="M1106 1647h182v-82h-119l-594 -1606h-53l-323 893l-119 -43l-23 68l262 92l265 -729z" />
    <glyph glyph-name="infinity" unicode="&#x221e;" horiz-adv-x="1706" 
d="M905 559q101 -188 275 -188q106 0 172 74q63 71 63 178q0 101 -55 173q-60 78 -158 78q-158 0 -297 -315zM803 666q-102 190 -273 190q-108 0 -172.5 -72.5t-64.5 -181.5q0 -101 55 -172q60 -78 158 -78q103 0 187 111q48 63 110 203zM866 494q-136 -265 -321 -265
q-146 0 -236 121q-82 109 -82 260q0 154 70 260q80 123 227 123q185 0 316 -266q131 270 321 270q146 0 236 -121q82 -109 82 -260q0 -153 -69 -259q-81 -124 -226 -124q-109 0 -194 83q-59 57 -124 178z" />
    <glyph glyph-name="integral" unicode="&#x222b;" horiz-adv-x="1020" 
d="M301 -268q102 0 116 664l5 216q13 507 102.5 721.5t280.5 214.5q71 0 117 -35q51 -39 51 -108q0 -107 -113 -107q-117 0 -117 127q0 23 -20 23q-104 0 -119 -634l-6 -245q-5 -155 -31 -461q-68 -479 -354 -479q-67 0 -113 33q-53 38 -53 102q0 115 115 115q43 0 77.5 -27
t34.5 -69q0 -51 27 -51z" />
    <glyph glyph-name="approxequal" unicode="&#x2248;" horiz-adv-x="1706" 
d="M1530 584v-131q-208 -146 -389 -146q-99 0 -289 69.5t-289 69.5q-154 0 -385 -159v131q215 147 387 147q102 0 298 -69.5t280 -69.5q160 0 387 158zM1530 934v-131q-205 -144 -387 -144q-100 0 -290 69t-290 69q-155 0 -385 -158v131q211 145 387 145q102 0 297 -68.5
t281 -68.5q162 0 387 156z" />
    <glyph glyph-name="approxequal" unicode="&#x22f2;" horiz-adv-x="1706" 
d="M1530 584v-131q-208 -146 -389 -146q-99 0 -289 69.5t-289 69.5q-154 0 -385 -159v131q215 147 387 147q102 0 298 -69.5t280 -69.5q160 0 387 158zM1530 934v-131q-205 -144 -387 -144q-100 0 -290 69t-290 69q-155 0 -385 -158v131q211 145 387 145q102 0 297 -68.5
t281 -68.5q162 0 387 156z" />
    <glyph glyph-name="notequal" unicode="&#x2260;" horiz-adv-x="1706" 
d="M1210 1180l88 -70l-196 -250h350v-115h-424l-211 -270h635v-115h-709l-251 -319l-89 70l197 249h-346v115h420l211 270h-631v115h704z" />
    <glyph glyph-name="lessequal" unicode="&#x2264;" horiz-adv-x="1706" 
d="M262 150h1182v-117h-1182v117zM1444 1192v-125l-977 -324l977 -323v-125l-1182 399v101z" />
    <glyph glyph-name="greaterequal" unicode="&#x2265;" horiz-adv-x="1706" 
d="M262 150h1182v-117h-1182v117zM262 1192l1182 -397v-101l-1182 -399v125l979 323l-979 324v125z" />
    <glyph glyph-name="SF370000" unicode="&#x255f;" horiz-adv-x="934" 
d="M162 469h397l-207 580zM-145 0v29q74 0 112.5 27t61.5 98l395 1216h22l482 -1341h135v-29h-520v29h176l-150 411h-417l-101 -326q-8 -26 -8 -36q0 -43 166 -49v-29h-354z" />
    <glyph glyph-name="SF420000" unicode="&#x2560;" horiz-adv-x="1284" 
d="M178 29v1298h-143v29h1003l25 -330h-31q-16 186 -114 250q-79 51 -279 51h-256v-622h63q159 0 216 35q79 49 79 204h29v-508h-29q0 147 -53 192.5t-305 45.5v-645h262q239 0 338 63q127 80 127 303h29v-395h-1104v29h143z" />
    <glyph glyph-name="SF190000" unicode="&#x2561;" horiz-adv-x="555" 
d="M25 0v29h153v1298h-153v29h505v-29h-145v-1298h145v-29h-505z" />
    <glyph glyph-name="SF200000" unicode="&#x2562;" 
d="M289 678q0 -255 70 -430q99 -246 315 -246q217 0 314 246q69 174 69 430t-69 431q-98 247 -314 247t-315 -247q-70 -176 -70 -431zM66 678q0 145 42 268q64 186 216 309q160 129 350 129q189 0 349 -129q152 -123 216 -308q41 -123 41 -269q0 -147 -41 -269
q-64 -186 -216 -309q-160 -129 -349 -129q-190 0 -350 130q-152 123 -216 310q-42 122 -42 267z" />
    <glyph glyph-name="SF230000" unicode="&#x2563;" 
d="M168 1327h-156v29h535v-29h-168v-912q0 -124 10 -178q38 -217 340 -217q142 0 241 56q115 64 149 192q14 55 14 181v706q0 128 -36 154q-26 18 -165 18v29h401v-29q-111 0 -137.5 -27.5t-26.5 -146.5v-696q0 -142 -14 -203q-65 -283 -483 -283q-408 0 -484 254
q-20 67 -20 228v874z" />
    <glyph glyph-name="SF470000" unicode="&#x2564;" horiz-adv-x="1014" 
d="M233 0v29h177v483l-363 815h-160v29h523v-29h-146l328 -729l264 598q21 48 21 74q0 57 -136 57v29h349v-29q-86 0 -116 -17q-36 -19 -69 -93l-295 -666v-522h174v-29h-551z" />
    <glyph glyph-name="SF480000" unicode="&#x2565;" horiz-adv-x="901" 
d="M922 88q-86 -106 -177 -106q-136 0 -163 129q-80 -136 -291 -136q-96 0 -163 54q-73 58 -73 151q0 277 518 277v207q0 147 -157 147q-51 0 -108 -26q-68 -30 -68 -74l38 -40q19 -23 19 -50q0 -97 -88 -97q-94 0 -94 97q0 105 104 167q88 52 201 52q85 0 168 -36
q95 -41 127 -109q18 -38 18 -124v-411q0 -129 62 -129q46 0 104 78zM573 150v276q-22 2 -61 2q-279 0 -279 -225q0 -183 144 -183q133 0 196 130z" />
    <glyph glyph-name="SF410000" unicode="&#x2566;" horiz-adv-x="801" 
d="M233 518h316v96q0 197 -160 197q-156 0 -156 -225v-68zM233 489v-237q0 -244 205 -244q114 0 194 78q71 70 101 186h31q-35 -132 -115 -211q-90 -88 -219 -88q-167 0 -278 132q-105 125 -105 296q0 169 88 296q100 143 262 143q147 0 247 -103q95 -99 106 -248h-517z" />
    <glyph glyph-name="SF450000" unicode="&#x2567;" horiz-adv-x="455" 
d="M141 786h-116v29q230 0 288 25v-811h113v-29h-401v29h116v757zM135 1305q0 37 26.5 64.5t63.5 27.5q38 0 64 -27t26 -65q0 -39 -25.5 -65t-64.5 -26q-38 0 -64 26.5t-26 64.5z" />
    <glyph glyph-name="SF460000" unicode="&#x2568;" horiz-adv-x="455" 
d="M141 786h-116v29q240 0 288 25v-811h113v-29h-401v29h116v757z" />
    <glyph glyph-name="SF400000" unicode="&#x2569;" horiz-adv-x="891" 
d="M47 408q0 167 115 297q120 135 284 135q167 0 285 -134q113 -129 113 -298q0 -168 -114 -297q-119 -134 -284 -134q-166 0 -285 134q-114 129 -114 297zM231 285q0 -279 215 -279q213 0 213 279v247q0 279 -213 279q-215 0 -215 -279v-247z" />
    <glyph glyph-name="SF540000" unicode="&#x256a;" horiz-adv-x="991" 
d="M686 786h-119v29q229 0 289 25v-811h115v-29h-287v182q-122 -182 -293 -182q-120 0 -191 68.5t-71 187.5v530h-117v29q229 0 289 25v-645q0 -156 121 -156q142 0 264 201v546z" />
    <glyph glyph-name="SF530000" unicode="&#x256b;" horiz-adv-x="901" 
d="M219 -510q-44 0 -72 29t-28 73q0 39 24.5 66t63.5 27q85 0 86 -93q0 -4 -1 -12t-1 -12l2 -3q1 -1 4 -1q62 0 147 405l-352 817h-86v29h381v-29h-117l252 -602l180 487q17 46 17 68q0 50 -168 47v29h321v-29q-60 0 -99 -54q-23 -31 -52 -109l-180 -484q-44 -119 -87 -276
l-48 -175q-37 -119 -78 -158.5t-109 -39.5z" />
    <glyph glyph-name="lozenge" unicode="&#x25ca;" horiz-adv-x="1012" 
d="M506 1409l-385 -817l385 -825l385 825zM506 1653l500 -1061l-500 -1069l-500 1069z" />
    <glyph glyph-name="circle" unicode="&#x25cb;" horiz-adv-x="934" 
d="M152 1436l232 348h118l232 -348h-58l-233 209l-233 -209h-58zM164 1786l289 299q58 60 96 60q74 0 74 -72q0 -43 -62 -82l-330 -205h-67z" />
    <glyph glyph-name="H18533" unicode="&#x25cf;" horiz-adv-x="934" 
d="M152 1436l232 348h118l232 -348h-58l-233 209l-233 -209h-58zM719 1786h-67l-330 205q-62 39 -62 82q0 72 74 72q38 0 96 -60z" />
    <glyph glyph-name="invbullet" unicode="&#x25d8;" horiz-adv-x="934" 
d="M152 1436l232 348h118l232 -348h-58l-233 209l-233 -209h-58zM662 1726l-37 -2q-9 34 -9 69q0 63 59 110.5t59 90.5q0 67 -75 67q-59 0 -59 -34q0 -6 20 -14.5t20 -25.5q0 -28 -28 -28q-59 0 -59 50q0 48 35 82t87 34q145 0 145 -145q0 -58 -79.5 -123t-79.5 -103
q0 -14 1 -28z" />
    <glyph glyph-name="invcircle" unicode="&#x25d9;" horiz-adv-x="934" 
d="M152 1436l232 348h118l232 -348h-58l-233 209l-233 -209h-58zM800 2075q-40 -205 -195 -205q-39 0 -120.5 24t-110.5 24q-70 0 -97 -93h-51q38 211 197 211q32 0 173 -36q43 -11 56 -11q68 0 94 86h54z" />
    <glyph glyph-name="fi" unicode="&#xf001;" horiz-adv-x="985" 
d="M47 0v29h119v757h-119v29h118q0 11 -1 33v33q0 230 93 367q108 159 327 159q95 0 169 -38q91 -48 91 -134q0 -109 -101 -109q-37 0 -62.5 25.5t-25.5 62.5q0 59 51.5 81.5t51.5 27.5q0 32 -64 49q-46 12 -90 12q-164 0 -224 -94q-46 -73 -46 -250v-225h323q119 0 179 25
v-811h114v-29h-403v29h119v757h-330v-757h115v-29h-404z" />
    <glyph glyph-name="fl" unicode="&#xf002;" horiz-adv-x="985" 
d="M840 1405v-1376h112v-29h-397v29h119v1110q-51 24 -51 84q0 31 55 104q0 55 -121 55q-223 0 -223 -338v-229h158v-29h-156v-757h115v-29h-404v29h119v757h-119v29h118q0 10 -1 32v32q0 216 85 357q103 171 304 171q35 0 101.5 -17.5t97.5 -17.5q49 0 88 33z" />
    <glyph glyph-name="glyph275" horiz-adv-x="494" 
 />
    <glyph glyph-name="glyph276" horiz-adv-x="494" 
 />
    <glyph glyph-name="nonbreakingspace" unicode="&#xa0;" horiz-adv-x="985" 
 />
    <glyph glyph-name="apple" unicode="&#xf000;" horiz-adv-x="1618" 
d="M836 1216q-2 12 -2 37q0 132 101 237q96 99 230 124q2 -20 2 -62q0 -131 -103.5 -234.5t-211.5 -103.5q-3 0 -8.5 1t-7.5 1zM1505 403q-90 -195 -153 -280q-118 -158 -256 -158q-45 0 -128 33t-126 33q-45 0 -129.5 -33t-128.5 -33q-128 0 -259 176q-99 134 -156 296
q-56 155 -56 300q0 211 117 348q124 146 331 146q57 0 150 -34t129 -34q34 0 126 35t148 35q217 0 359 -164q-201 -128 -201 -328q0 -233 233 -338z" />
    <glyph glyph-name="sfthyphen" unicode="&#xad;" horiz-adv-x="786" 
d="M170 344v131h446v-131h-446z" />
    <glyph glyph-name="ch270" unicode="&#xb7;" horiz-adv-x="494" 
d="M156 668q0 38 26 65t64 27t65 -27t27 -65q0 -39 -26.5 -64.5t-65.5 -25.5q-38 0 -64 26t-26 64z" />
    <glyph glyph-name="ch270" unicode="&#x2219;" horiz-adv-x="494" 
d="M156 668q0 38 26 65t64 27t65 -27t27 -65q0 -39 -26.5 -64.5t-65.5 -25.5q-38 0 -64 26t-26 64z" />
    <glyph glyph-name="euro" horiz-adv-x="985" 
d="M907 481h27v-450h-27q-6 94 -49 94q-8 0 -107.5 -75t-191.5 -75q-167 0 -310 166t-169 406h-111l21 49h86q0 99 4 145h-111l23 50h94q34 222 143 378q135 191 336 191q92 0 194.5 -66.5t104.5 -66.5q43 0 43 80h27v-398h-27q-11 159 -92 280q-95 144 -242 144
q-165 0 -246 -192q-61 -143 -61 -334v-16h426l-20 -50h-408v-145h342l-20 -49h-322q0 -196 57 -341q79 -202 244 -202q130 0 235.5 139.5t106.5 337.5z" />
    <glyph glyph-name="glyph261" horiz-adv-x="494" 
d="M126 835l-13 27q214 113 259 260q17 55 -33 65q-38 -3 -112 6q-80 24 -80 92q0 16 6 35q22 72 104 72q23 0 45 -7q118 -36 118 -172q0 -41 -13 -83q-57 -188 -281 -295z" />
    <glyph glyph-name="glyph262" horiz-adv-x="1024" 
d="M487 961l-37 -2q-9 34 -9 69q0 63 59 110.5t59 90.5q0 67 -75 67q-59 0 -59 -34q0 -6 20 -14.5t20 -25.5q0 -28 -28 -28q-59 0 -59 50q0 48 35 82t87 34q145 0 145 -145q0 -58 -79.5 -123t-79.5 -103q0 -14 1 -28z" />
    <glyph glyph-name="glyph263" horiz-adv-x="901" 
d="M150 950l232 348h118l232 -348h-58l-233 209l-233 -209h-58zM162 1300l289 299q58 60 96 60q74 0 74 -72q0 -43 -62 -82l-330 -205h-67z" />
    <glyph glyph-name="glyph264" horiz-adv-x="901" 
d="M150 950l232 348h118l232 -348h-58l-233 209l-233 -209h-58zM717 1301h-67l-330 205q-62 39 -62 82q0 72 74 72q38 0 96 -60z" />
    <glyph glyph-name="glyph265" horiz-adv-x="901" 
d="M150 950l232 348h118l232 -348h-58l-233 209l-233 -209h-58zM661 1240l-37 -2q-9 34 -9 69q0 63 59 110.5t59 90.5q0 67 -75 67q-59 0 -59 -34q0 -6 20 -14.5t20 -25.5q0 -28 -28 -28q-59 0 -59 50q0 48 35 82t87 34q145 0 145 -145q0 -58 -79.5 -123t-79.5 -103
q0 -14 1 -28z" />
    <glyph glyph-name="glyph266" horiz-adv-x="901" 
d="M150 950l232 348h118l232 -348h-58l-233 209l-233 -209h-58zM799 1589q-40 -205 -195 -205q-39 0 -120.5 24t-110.5 24q-70 0 -97 -93h-51q38 211 197 211q32 0 173 -36q43 -11 56 -11q68 0 94 86h54z" />
    <glyph glyph-name="glyph267" horiz-adv-x="901" 
d="M160 1260h51q32 -142 242 -142q208 0 240 142h51q-40 -271 -291 -271q-250 0 -293 271zM297 1300l289 299q58 60 96 60q74 0 74 -72q0 -43 -62 -82l-330 -205h-67z" />
    <glyph glyph-name="glyph268" horiz-adv-x="901" 
d="M160 1260h51q32 -142 242 -142q208 0 240 142h51q-40 -271 -291 -271q-250 0 -293 271zM574 1301h-67l-330 205q-62 39 -62 82q0 72 74 72q38 0 96 -60z" />
    <glyph glyph-name="glyph269" horiz-adv-x="901" 
d="M160 1260h51q32 -142 242 -142q208 0 240 142h51q-40 -271 -291 -271q-250 0 -293 271zM446 1240l-37 -2q-9 34 -9 69q0 63 59 110.5t59 90.5q0 67 -75 67q-59 0 -59 -34q0 -6 20 -14.5t20 -25.5q0 -28 -28 -28q-59 0 -59 50q0 48 35 82t87 34q145 0 145 -145
q0 -58 -79.5 -123t-79.5 -103q0 -14 1 -28z" />
    <glyph glyph-name="glyph270" horiz-adv-x="901" 
d="M160 1260h51q32 -142 242 -142q208 0 240 142h51q-40 -271 -291 -271q-250 0 -293 271zM799 1589q-40 -205 -195 -205q-39 0 -120.5 24t-110.5 24q-70 0 -97 -93h-51q38 211 197 211q32 0 173 -36q43 -11 56 -11q68 0 94 86h54z" />
    <glyph glyph-name="glyph271" unicode="&#x102;" horiz-adv-x="934" 
d="M162 469h397l-207 580zM-145 0v29q74 0 112.5 27t61.5 98l395 1216h22l482 -1341h135v-29h-520v29h176l-150 411h-417l-101 -326q-8 -26 -8 -36q0 -43 166 -49v-29h-354zM152 1726h51q32 -142 242 -142q208 0 240 142h51q-40 -271 -291 -271q-250 0 -293 271z" />
    <glyph glyph-name="glyph272" unicode="&#x103;" horiz-adv-x="901" 
d="M160 1260h51q32 -142 242 -142q208 0 240 142h51q-40 -271 -291 -271q-250 0 -293 271zM922 88q-86 -106 -177 -106q-136 0 -163 129q-80 -136 -291 -136q-96 0 -163 54q-73 58 -73 151q0 277 518 277v207q0 147 -157 147q-51 0 -108 -26q-68 -30 -68 -74l38 -40
q19 -23 19 -50q0 -97 -88 -97q-94 0 -94 97q0 105 104 167q88 52 201 52q85 0 168 -36q95 -41 127 -109q18 -38 18 -124v-411q0 -129 62 -129q46 0 104 78zM573 150v276q-22 2 -61 2q-279 0 -279 -225q0 -183 144 -183q133 0 196 130z" />
    <glyph glyph-name="glyph273" unicode="&#x128;" horiz-adv-x="555" 
d="M25 0v29h153v1298h-153v29h505v-29h-145v-1298h145v-29h-505zM574 1792q-40 -205 -195 -205q-39 0 -120.5 24t-110.5 24q-70 0 -97 -93h-51q38 211 197 211q32 0 173 -36q43 -11 56 -11q68 0 94 86h54z" />
    <glyph glyph-name="glyph274" unicode="&#x129;" horiz-adv-x="455" 
d="M141 786h-116v29q240 0 288 25v-811h113v-29h-401v29h116v757zM553 1247q-40 -205 -195 -205q-39 0 -120.5 24t-110.5 24q-70 0 -97 -93h-51q38 211 197 211q32 0 173 -36q43 -11 56 -11q68 0 94 86h54z" />
    <glyph glyph-name="glyph275" unicode="&#x168;" 
d="M168 1327h-156v29h535v-29h-168v-912q0 -124 10 -178q38 -217 340 -217q142 0 241 56q115 64 149 192q14 55 14 181v706q0 128 -36 154q-26 18 -165 18v29h401v-29q-111 0 -137.5 -27.5t-26.5 -146.5v-696q0 -142 -14 -203q-65 -283 -483 -283q-408 0 -484 254
q-20 67 -20 228v874zM1002 1792q-40 -205 -195 -205q-39 0 -120.5 24t-110.5 24q-70 0 -97 -93h-51q38 211 197 211q32 0 173 -36q43 -11 56 -11q68 0 94 86h54z" />
    <glyph glyph-name="glyph276" unicode="&#x169;" horiz-adv-x="991" 
d="M686 786h-119v29q229 0 289 25v-811h115v-29h-287v182q-122 -182 -293 -182q-120 0 -191 68.5t-71 187.5v530h-117v29q229 0 289 25v-645q0 -156 121 -156q142 0 264 201v546zM760 1247q-40 -205 -195 -205q-39 0 -120.5 24t-110.5 24q-70 0 -97 -93h-51q38 211 197 211
q32 0 173 -36q43 -11 56 -11q68 0 94 86h54z" />
    <glyph glyph-name="glyph277" unicode="&#x1a0;" 
d="M289 678q0 -255 70 -430q99 -246 315 -246q217 0 314 246q69 174 69 430t-69 431q-98 247 -314 247t-315 -247q-70 -176 -70 -431zM66 678q0 145 42 268q64 186 216 309q160 129 350 129q189 0 349 -129q152 -123 216 -308q41 -123 41 -269q0 -147 -41 -269
q-64 -186 -216 -309q-160 -129 -349 -129q-190 0 -350 130q-152 123 -216 310q-42 122 -42 267zM1066 884l-13 27q214 113 259 260q17 55 -33 65q-38 -3 -112 6q-80 24 -80 92q0 16 6 35q22 72 104 72q23 0 45 -7q118 -36 118 -172q0 -41 -13 -83q-57 -188 -281 -295z" />
    <glyph glyph-name="glyph278" unicode="&#x1a1;" horiz-adv-x="891" 
d="M47 408q0 167 115 297q120 135 284 135q167 0 285 -134q113 -129 113 -298q0 -168 -114 -297q-119 -134 -284 -134q-166 0 -285 134q-114 129 -114 297zM231 285q0 -279 215 -279q213 0 213 279v247q0 279 -213 279q-215 0 -215 -279v-247zM622 454l-13 27
q214 113 259 260q17 55 -33 65q-38 -3 -112 6q-80 24 -80 92q0 16 6 35q22 72 104 72q23 0 45 -7q118 -36 118 -172q0 -41 -13 -83q-57 -188 -281 -295z" />
    <glyph glyph-name="glyph279" unicode="&#x1af;" 
d="M168 1327h-156v29h535v-29h-168v-912q0 -124 10 -178q38 -217 340 -217q142 0 241 56q115 64 149 192q14 55 14 181v706q0 128 -36 154q-26 18 -165 18v29h401v-29q-111 0 -137.5 -27.5t-26.5 -146.5v-696q0 -142 -14 -203q-65 -283 -483 -283q-408 0 -484 254
q-20 67 -20 228v874zM1101 884l-13 27q214 113 259 260q17 55 -33 65q-38 -3 -112 6q-80 24 -80 92q0 16 6 35q22 72 104 72q23 0 45 -7q118 -36 118 -172q0 -41 -13 -83q-57 -188 -281 -295z" />
    <glyph glyph-name="glyph280" unicode="&#x1b0;" horiz-adv-x="991" 
d="M686 786h-119v29q229 0 289 25v-811h115v-29h-287v182q-122 -182 -293 -182q-120 0 -191 68.5t-71 187.5v530h-117v29q229 0 289 25v-645q0 -156 121 -156q142 0 264 201v546zM705 454l-13 27q214 113 259 260q17 55 -33 65q-38 -3 -112 6q-80 24 -80 92q0 16 6 35
q22 72 104 72q23 0 45 -7q118 -36 118 -172q0 -41 -13 -83q-57 -188 -281 -295z" />
    <glyph glyph-name="glyph281" unicode="&#x1ea0;" horiz-adv-x="934" 
d="M162 469h397l-207 580zM-145 0v29q74 0 112.5 27t61.5 98l395 1216h22l482 -1341h135v-29h-520v29h176l-150 411h-417l-101 -326q-8 -26 -8 -36q0 -43 166 -49v-29h-354zM321 -278q0 38 26 65t64 27t65 -27t27 -65q0 -39 -26.5 -64.5t-65.5 -25.5q-38 0 -64 26t-26 64z
" />
    <glyph glyph-name="glyph282" unicode="&#x1ea1;" horiz-adv-x="901" 
d="M922 88q-86 -106 -177 -106q-136 0 -163 129q-80 -136 -291 -136q-96 0 -163 54q-73 58 -73 151q0 277 518 277v207q0 147 -157 147q-51 0 -108 -26q-68 -30 -68 -74l38 -40q19 -23 19 -50q0 -97 -88 -97q-94 0 -94 97q0 105 104 167q88 52 201 52q85 0 168 -36
q95 -41 127 -109q18 -38 18 -124v-411q0 -129 62 -129q46 0 104 78zM573 150v276q-22 2 -61 2q-279 0 -279 -225q0 -183 144 -183q133 0 196 130zM346 -278q0 38 26 65t64 27t65 -27t27 -65q0 -39 -26.5 -64.5t-65.5 -25.5q-38 0 -64 26t-26 64z" />
    <glyph glyph-name="glyph283" unicode="&#x1ea2;" horiz-adv-x="934" 
d="M162 469h397l-207 580zM-145 0v29q74 0 112.5 27t61.5 98l395 1216h22l482 -1341h135v-29h-520v29h176l-150 411h-417l-101 -326q-8 -26 -8 -36q0 -43 166 -49v-29h-354zM439 1469l-37 -2q-9 34 -9 69q0 63 59 110.5t59 90.5q0 67 -75 67q-59 0 -59 -34q0 -6 20 -14.5
t20 -25.5q0 -28 -28 -28q-59 0 -59 50q0 48 35 82t87 34q145 0 145 -145q0 -58 -79.5 -123t-79.5 -103q0 -14 1 -28z" />
    <glyph glyph-name="glyph284" unicode="&#x1ea3;" horiz-adv-x="901" 
d="M922 88q-86 -106 -177 -106q-136 0 -163 129q-80 -136 -291 -136q-96 0 -163 54q-73 58 -73 151q0 277 518 277v207q0 147 -157 147q-51 0 -108 -26q-68 -30 -68 -74l38 -40q19 -23 19 -50q0 -97 -88 -97q-94 0 -94 97q0 105 104 167q88 52 201 52q85 0 168 -36
q95 -41 127 -109q18 -38 18 -124v-411q0 -129 62 -129q46 0 104 78zM573 150v276q-22 2 -61 2q-279 0 -279 -225q0 -183 144 -183q133 0 196 130zM408 951l-37 -2q-9 34 -9 69q0 63 59 110.5t59 90.5q0 67 -75 67q-59 0 -59 -34q0 -6 20 -14.5t20 -25.5q0 -28 -28 -28
q-59 0 -59 50q0 48 35 82t87 34q145 0 145 -145q0 -58 -79.5 -123t-79.5 -103q0 -14 1 -28z" />
    <glyph glyph-name="glyph285" unicode="&#x1ea4;" horiz-adv-x="934" 
d="M162 469h397l-207 580zM-145 0v29q74 0 112.5 27t61.5 98l395 1216h22l482 -1341h135v-29h-520v29h176l-150 411h-417l-101 -326q-8 -26 -8 -36q0 -43 166 -49v-29h-354zM152 1436l232 348h118l232 -348h-58l-233 209l-233 -209h-58zM164 1786l289 299q58 60 96 60
q74 0 74 -72q0 -43 -62 -82l-330 -205h-67z" />
    <glyph glyph-name="glyph286" unicode="&#x1ea5;" horiz-adv-x="901" 
d="M922 88q-86 -106 -177 -106q-136 0 -163 129q-80 -136 -291 -136q-96 0 -163 54q-73 58 -73 151q0 277 518 277v207q0 147 -157 147q-51 0 -108 -26q-68 -30 -68 -74l38 -40q19 -23 19 -50q0 -97 -88 -97q-94 0 -94 97q0 105 104 167q88 52 201 52q85 0 168 -36
q95 -41 127 -109q18 -38 18 -124v-411q0 -129 62 -129q46 0 104 78zM573 150v276q-22 2 -61 2q-279 0 -279 -225q0 -183 144 -183q133 0 196 130zM150 950l232 348h118l232 -348h-58l-233 209l-233 -209h-58zM162 1300l289 299q58 60 96 60q74 0 74 -72q0 -43 -62 -82
l-330 -205h-67z" />
    <glyph glyph-name="glyph287" unicode="&#x1ea6;" horiz-adv-x="934" 
d="M162 469h397l-207 580zM-145 0v29q74 0 112.5 27t61.5 98l395 1216h22l482 -1341h135v-29h-520v29h176l-150 411h-417l-101 -326q-8 -26 -8 -36q0 -43 166 -49v-29h-354zM152 1436l232 348h118l232 -348h-58l-233 209l-233 -209h-58zM719 1786h-67l-330 205
q-62 39 -62 82q0 72 74 72q38 0 96 -60z" />
    <glyph glyph-name="glyph288" unicode="&#x1ea7;" horiz-adv-x="901" 
d="M922 88q-86 -106 -177 -106q-136 0 -163 129q-80 -136 -291 -136q-96 0 -163 54q-73 58 -73 151q0 277 518 277v207q0 147 -157 147q-51 0 -108 -26q-68 -30 -68 -74l38 -40q19 -23 19 -50q0 -97 -88 -97q-94 0 -94 97q0 105 104 167q88 52 201 52q85 0 168 -36
q95 -41 127 -109q18 -38 18 -124v-411q0 -129 62 -129q46 0 104 78zM573 150v276q-22 2 -61 2q-279 0 -279 -225q0 -183 144 -183q133 0 196 130zM150 950l232 348h118l232 -348h-58l-233 209l-233 -209h-58zM717 1301h-67l-330 205q-62 39 -62 82q0 72 74 72q38 0 96 -60z
" />
    <glyph glyph-name="glyph289" unicode="&#x1ea8;" horiz-adv-x="934" 
d="M162 469h397l-207 580zM-145 0v29q74 0 112.5 27t61.5 98l395 1216h22l482 -1341h135v-29h-520v29h176l-150 411h-417l-101 -326q-8 -26 -8 -36q0 -43 166 -49v-29h-354zM152 1436l232 348h118l232 -348h-58l-233 209l-233 -209h-58zM662 1726l-37 -2q-9 34 -9 69
q0 63 59 110.5t59 90.5q0 67 -75 67q-59 0 -59 -34q0 -6 20 -14.5t20 -25.5q0 -28 -28 -28q-59 0 -59 50q0 48 35 82t87 34q145 0 145 -145q0 -58 -79.5 -123t-79.5 -103q0 -14 1 -28z" />
    <glyph glyph-name="glyph290" unicode="&#x1ea9;" horiz-adv-x="901" 
d="M922 88q-86 -106 -177 -106q-136 0 -163 129q-80 -136 -291 -136q-96 0 -163 54q-73 58 -73 151q0 277 518 277v207q0 147 -157 147q-51 0 -108 -26q-68 -30 -68 -74l38 -40q19 -23 19 -50q0 -97 -88 -97q-94 0 -94 97q0 105 104 167q88 52 201 52q85 0 168 -36
q95 -41 127 -109q18 -38 18 -124v-411q0 -129 62 -129q46 0 104 78zM573 150v276q-22 2 -61 2q-279 0 -279 -225q0 -183 144 -183q133 0 196 130zM150 950l232 348h118l232 -348h-58l-233 209l-233 -209h-58zM661 1240l-37 -2q-9 34 -9 69q0 63 59 110.5t59 90.5
q0 67 -75 67q-59 0 -59 -34q0 -6 20 -14.5t20 -25.5q0 -28 -28 -28q-59 0 -59 50q0 48 35 82t87 34q145 0 145 -145q0 -58 -79.5 -123t-79.5 -103q0 -14 1 -28z" />
    <glyph glyph-name="glyph291" unicode="&#x1eaa;" horiz-adv-x="934" 
d="M162 469h397l-207 580zM-145 0v29q74 0 112.5 27t61.5 98l395 1216h22l482 -1341h135v-29h-520v29h176l-150 411h-417l-101 -326q-8 -26 -8 -36q0 -43 166 -49v-29h-354zM152 1436l232 348h118l232 -348h-58l-233 209l-233 -209h-58zM800 2075q-40 -205 -195 -205
q-39 0 -120.5 24t-110.5 24q-70 0 -97 -93h-51q38 211 197 211q32 0 173 -36q43 -11 56 -11q68 0 94 86h54z" />
    <glyph glyph-name="glyph292" unicode="&#x1eab;" horiz-adv-x="901" 
d="M922 88q-86 -106 -177 -106q-136 0 -163 129q-80 -136 -291 -136q-96 0 -163 54q-73 58 -73 151q0 277 518 277v207q0 147 -157 147q-51 0 -108 -26q-68 -30 -68 -74l38 -40q19 -23 19 -50q0 -97 -88 -97q-94 0 -94 97q0 105 104 167q88 52 201 52q85 0 168 -36
q95 -41 127 -109q18 -38 18 -124v-411q0 -129 62 -129q46 0 104 78zM573 150v276q-22 2 -61 2q-279 0 -279 -225q0 -183 144 -183q133 0 196 130zM150 950l232 348h118l232 -348h-58l-233 209l-233 -209h-58zM799 1589q-40 -205 -195 -205q-39 0 -120.5 24t-110.5 24
q-70 0 -97 -93h-51q38 211 197 211q32 0 173 -36q43 -11 56 -11q68 0 94 86h54z" />
    <glyph glyph-name="glyph293" unicode="&#x1eac;" horiz-adv-x="934" 
d="M162 469h397l-207 580zM-145 0v29q74 0 112.5 27t61.5 98l395 1216h22l482 -1341h135v-29h-520v29h176l-150 411h-417l-101 -326q-8 -26 -8 -36q0 -43 166 -49v-29h-354zM152 1436l232 348h118l232 -348h-58l-233 209l-233 -209h-58zM321 -278q0 38 26 65t64 27t65 -27
t27 -65q0 -39 -26.5 -64.5t-65.5 -25.5q-38 0 -64 26t-26 64z" />
    <glyph glyph-name="glyph294" unicode="&#x1ead;" horiz-adv-x="901" 
d="M922 88q-86 -106 -177 -106q-136 0 -163 129q-80 -136 -291 -136q-96 0 -163 54q-73 58 -73 151q0 277 518 277v207q0 147 -157 147q-51 0 -108 -26q-68 -30 -68 -74l38 -40q19 -23 19 -50q0 -97 -88 -97q-94 0 -94 97q0 105 104 167q88 52 201 52q85 0 168 -36
q95 -41 127 -109q18 -38 18 -124v-411q0 -129 62 -129q46 0 104 78zM573 150v276q-22 2 -61 2q-279 0 -279 -225q0 -183 144 -183q133 0 196 130zM150 950l232 348h118l232 -348h-58l-233 209l-233 -209h-58zM346 -278q0 38 26 65t64 27t65 -27t27 -65q0 -39 -26.5 -64.5
t-65.5 -25.5q-38 0 -64 26t-26 64z" />
    <glyph glyph-name="glyph295" unicode="&#x1eae;" horiz-adv-x="934" 
d="M162 469h397l-207 580zM-145 0v29q74 0 112.5 27t61.5 98l395 1216h22l482 -1341h135v-29h-520v29h176l-150 411h-417l-101 -326q-8 -26 -8 -36q0 -43 166 -49v-29h-354zM152 1726h51q32 -142 242 -142q208 0 240 142h51q-40 -271 -291 -271q-250 0 -293 271zM289 1766
l289 299q58 60 96 60q74 0 74 -72q0 -43 -62 -82l-330 -205h-67z" />
    <glyph glyph-name="glyph296" unicode="&#x1eaf;" horiz-adv-x="901" 
d="M160 1260h51q32 -142 242 -142q208 0 240 142h51q-40 -271 -291 -271q-250 0 -293 271zM922 88q-86 -106 -177 -106q-136 0 -163 129q-80 -136 -291 -136q-96 0 -163 54q-73 58 -73 151q0 277 518 277v207q0 147 -157 147q-51 0 -108 -26q-68 -30 -68 -74l38 -40
q19 -23 19 -50q0 -97 -88 -97q-94 0 -94 97q0 105 104 167q88 52 201 52q85 0 168 -36q95 -41 127 -109q18 -38 18 -124v-411q0 -129 62 -129q46 0 104 78zM573 150v276q-22 2 -61 2q-279 0 -279 -225q0 -183 144 -183q133 0 196 130zM297 1300l289 299q58 60 96 60
q74 0 74 -72q0 -43 -62 -82l-330 -205h-67z" />
    <glyph glyph-name="glyph297" unicode="&#x1eb0;" horiz-adv-x="934" 
d="M162 469h397l-207 580zM-145 0v29q74 0 112.5 27t61.5 98l395 1216h22l482 -1341h135v-29h-520v29h176l-150 411h-417l-101 -326q-8 -26 -8 -36q0 -43 166 -49v-29h-354zM152 1726h51q32 -142 242 -142q208 0 240 142h51q-40 -271 -291 -271q-250 0 -293 271zM565 1767
h-67l-330 205q-62 39 -62 82q0 72 74 72q38 0 96 -60z" />
    <glyph glyph-name="glyph298" unicode="&#x1eb1;" horiz-adv-x="901" 
d="M160 1260h51q32 -142 242 -142q208 0 240 142h51q-40 -271 -291 -271q-250 0 -293 271zM922 88q-86 -106 -177 -106q-136 0 -163 129q-80 -136 -291 -136q-96 0 -163 54q-73 58 -73 151q0 277 518 277v207q0 147 -157 147q-51 0 -108 -26q-68 -30 -68 -74l38 -40
q19 -23 19 -50q0 -97 -88 -97q-94 0 -94 97q0 105 104 167q88 52 201 52q85 0 168 -36q95 -41 127 -109q18 -38 18 -124v-411q0 -129 62 -129q46 0 104 78zM573 150v276q-22 2 -61 2q-279 0 -279 -225q0 -183 144 -183q133 0 196 130zM574 1301h-67l-330 205q-62 39 -62 82
q0 72 74 72q38 0 96 -60z" />
    <glyph glyph-name="glyph299" unicode="&#x1eb2;" horiz-adv-x="934" 
d="M162 469h397l-207 580zM-145 0v29q74 0 112.5 27t61.5 98l395 1216h22l482 -1341h135v-29h-520v29h176l-150 411h-417l-101 -326q-8 -26 -8 -36q0 -43 166 -49v-29h-354zM152 1726h51q32 -142 242 -142q208 0 240 142h51q-40 -271 -291 -271q-250 0 -293 271zM438 1706
l-37 -2q-9 34 -9 69q0 63 59 110.5t59 90.5q0 67 -75 67q-59 0 -59 -34q0 -6 20 -14.5t20 -25.5q0 -28 -28 -28q-59 0 -59 50q0 48 35 82t87 34q145 0 145 -145q0 -58 -79.5 -123t-79.5 -103q0 -14 1 -28z" />
    <glyph glyph-name="glyph300" unicode="&#x1eb3;" horiz-adv-x="901" 
d="M160 1260h51q32 -142 242 -142q208 0 240 142h51q-40 -271 -291 -271q-250 0 -293 271zM922 88q-86 -106 -177 -106q-136 0 -163 129q-80 -136 -291 -136q-96 0 -163 54q-73 58 -73 151q0 277 518 277v207q0 147 -157 147q-51 0 -108 -26q-68 -30 -68 -74l38 -40
q19 -23 19 -50q0 -97 -88 -97q-94 0 -94 97q0 105 104 167q88 52 201 52q85 0 168 -36q95 -41 127 -109q18 -38 18 -124v-411q0 -129 62 -129q46 0 104 78zM573 150v276q-22 2 -61 2q-279 0 -279 -225q0 -183 144 -183q133 0 196 130zM446 1240l-37 -2q-9 34 -9 69
q0 63 59 110.5t59 90.5q0 67 -75 67q-59 0 -59 -34q0 -6 20 -14.5t20 -25.5q0 -28 -28 -28q-59 0 -59 50q0 48 35 82t87 34q145 0 145 -145q0 -58 -79.5 -123t-79.5 -103q0 -14 1 -28z" />
    <glyph glyph-name="glyph301" unicode="&#x1eb4;" horiz-adv-x="934" 
d="M162 469h397l-207 580zM-145 0v29q74 0 112.5 27t61.5 98l395 1216h22l482 -1341h135v-29h-520v29h176l-150 411h-417l-101 -326q-8 -26 -8 -36q0 -43 166 -49v-29h-354zM152 1726h51q32 -142 242 -142q208 0 240 142h51q-40 -271 -291 -271q-250 0 -293 271zM791 2055
q-40 -205 -195 -205q-39 0 -120.5 24t-110.5 24q-70 0 -97 -93h-51q38 211 197 211q32 0 173 -36q43 -11 56 -11q68 0 94 86h54z" />
    <glyph glyph-name="glyph302" unicode="&#x1eb5;" horiz-adv-x="901" 
d="M160 1260h51q32 -142 242 -142q208 0 240 142h51q-40 -271 -291 -271q-250 0 -293 271zM922 88q-86 -106 -177 -106q-136 0 -163 129q-80 -136 -291 -136q-96 0 -163 54q-73 58 -73 151q0 277 518 277v207q0 147 -157 147q-51 0 -108 -26q-68 -30 -68 -74l38 -40
q19 -23 19 -50q0 -97 -88 -97q-94 0 -94 97q0 105 104 167q88 52 201 52q85 0 168 -36q95 -41 127 -109q18 -38 18 -124v-411q0 -129 62 -129q46 0 104 78zM573 150v276q-22 2 -61 2q-279 0 -279 -225q0 -183 144 -183q133 0 196 130zM799 1589q-40 -205 -195 -205
q-39 0 -120.5 24t-110.5 24q-70 0 -97 -93h-51q38 211 197 211q32 0 173 -36q43 -11 56 -11q68 0 94 86h54z" />
    <glyph glyph-name="glyph303" unicode="&#x1eb6;" horiz-adv-x="934" 
d="M162 469h397l-207 580zM-145 0v29q74 0 112.5 27t61.5 98l395 1216h22l482 -1341h135v-29h-520v29h176l-150 411h-417l-101 -326q-8 -26 -8 -36q0 -43 166 -49v-29h-354zM152 1726h51q32 -142 242 -142q208 0 240 142h51q-40 -271 -291 -271q-250 0 -293 271zM321 -278
q0 38 26 65t64 27t65 -27t27 -65q0 -39 -26.5 -64.5t-65.5 -25.5q-38 0 -64 26t-26 64z" />
    <glyph glyph-name="glyph304" unicode="&#x1eb7;" horiz-adv-x="901" 
d="M160 1260h51q32 -142 242 -142q208 0 240 142h51q-40 -271 -291 -271q-250 0 -293 271zM922 88q-86 -106 -177 -106q-136 0 -163 129q-80 -136 -291 -136q-96 0 -163 54q-73 58 -73 151q0 277 518 277v207q0 147 -157 147q-51 0 -108 -26q-68 -30 -68 -74l38 -40
q19 -23 19 -50q0 -97 -88 -97q-94 0 -94 97q0 105 104 167q88 52 201 52q85 0 168 -36q95 -41 127 -109q18 -38 18 -124v-411q0 -129 62 -129q46 0 104 78zM573 150v276q-22 2 -61 2q-279 0 -279 -225q0 -183 144 -183q133 0 196 130zM346 -278q0 38 26 65t64 27t65 -27
t27 -65q0 -39 -26.5 -64.5t-65.5 -25.5q-38 0 -64 26t-26 64z" />
    <glyph glyph-name="glyph305" unicode="&#x1eb8;" horiz-adv-x="1284" 
d="M178 29v1298h-143v29h1003l25 -330h-31q-16 186 -114 250q-79 51 -279 51h-256v-622h63q159 0 216 35q79 49 79 204h29v-508h-29q0 147 -53 192.5t-305 45.5v-645h262q239 0 338 63q127 80 127 303h29v-395h-1104v29h143zM527 -278q0 38 26 65t64 27t65 -27t27 -65
q0 -39 -26.5 -64.5t-65.5 -25.5q-38 0 -64 26t-26 64z" />
    <glyph glyph-name="glyph306" unicode="&#x1eb9;" horiz-adv-x="801" 
d="M233 518h316v96q0 197 -160 197q-156 0 -156 -225v-68zM233 489v-237q0 -244 205 -244q114 0 194 78q71 70 101 186h31q-35 -132 -115 -211q-90 -88 -219 -88q-167 0 -278 132q-105 125 -105 296q0 169 88 296q100 143 262 143q147 0 247 -103q95 -99 106 -248h-517z
M326 -278q0 38 26 65t64 27t65 -27t27 -65q0 -39 -26.5 -64.5t-65.5 -25.5q-38 0 -64 26t-26 64z" />
    <glyph glyph-name="glyph307" unicode="&#x1eba;" horiz-adv-x="1284" 
d="M178 29v1298h-143v29h1003l25 -330h-31q-16 186 -114 250q-79 51 -279 51h-256v-622h63q159 0 216 35q79 49 79 204h29v-508h-29q0 147 -53 192.5t-305 45.5v-645h262q239 0 338 63q127 80 127 303h29v-395h-1104v29h143zM579 1469l-37 -2q-9 34 -9 69q0 63 59 110.5
t59 90.5q0 67 -75 67q-59 0 -59 -34q0 -6 20 -14.5t20 -25.5q0 -28 -28 -28q-59 0 -59 50q0 48 35 82t87 34q145 0 145 -145q0 -58 -79.5 -123t-79.5 -103q0 -14 1 -28z" />
    <glyph glyph-name="glyph308" unicode="&#x1ebb;" horiz-adv-x="801" 
d="M233 518h316v96q0 197 -160 197q-156 0 -156 -225v-68zM233 489v-237q0 -244 205 -244q114 0 194 78q71 70 101 186h31q-35 -132 -115 -211q-90 -88 -219 -88q-167 0 -278 132q-105 125 -105 296q0 169 88 296q100 143 262 143q147 0 247 -103q95 -99 106 -248h-517z
M398 951l-37 -2q-9 34 -9 69q0 63 59 110.5t59 90.5q0 67 -75 67q-59 0 -59 -34q0 -6 20 -14.5t20 -25.5q0 -28 -28 -28q-59 0 -59 50q0 48 35 82t87 34q145 0 145 -145q0 -58 -79.5 -123t-79.5 -103q0 -14 1 -28z" />
    <glyph glyph-name="glyph309" unicode="&#x1ebc;" horiz-adv-x="1284" 
d="M178 29v1298h-143v29h1003l25 -330h-31q-16 186 -114 250q-79 51 -279 51h-256v-622h63q159 0 216 35q79 49 79 204h29v-508h-29q0 147 -53 192.5t-305 45.5v-645h262q239 0 338 63q127 80 127 303h29v-395h-1104v29h143zM882 1792q-40 -205 -195 -205q-39 0 -120.5 24
t-110.5 24q-70 0 -97 -93h-51q38 211 197 211q32 0 173 -36q43 -11 56 -11q68 0 94 86h54z" />
    <glyph glyph-name="glyph310" unicode="&#x1ebd;" horiz-adv-x="801" 
d="M233 518h316v96q0 197 -160 197q-156 0 -156 -225v-68zM233 489v-237q0 -244 205 -244q114 0 194 78q71 70 101 186h31q-35 -132 -115 -211q-90 -88 -219 -88q-167 0 -278 132q-105 125 -105 296q0 169 88 296q100 143 262 143q147 0 247 -103q95 -99 106 -248h-517z
M698 1247q-40 -205 -195 -205q-39 0 -120.5 24t-110.5 24q-70 0 -97 -93h-51q38 211 197 211q32 0 173 -36q43 -11 56 -11q68 0 94 86h54z" />
    <glyph glyph-name="glyph311" unicode="&#x1ebe;" horiz-adv-x="1284" 
d="M178 29v1298h-143v29h1003l25 -330h-31q-16 186 -114 250q-79 51 -279 51h-256v-622h63q159 0 216 35q79 49 79 204h29v-508h-29q0 147 -53 192.5t-305 45.5v-645h262q239 0 338 63q127 80 127 303h29v-395h-1104v29h143zM326 1436l232 348h118l232 -348h-58l-233 209
l-233 -209h-58zM339 1786l289 299q58 60 96 60q74 0 74 -72q0 -43 -62 -82l-330 -205h-67z" />
    <glyph glyph-name="glyph312" unicode="&#x1ebf;" horiz-adv-x="801" 
d="M233 518h316v96q0 197 -160 197q-156 0 -156 -225v-68zM233 489v-237q0 -244 205 -244q114 0 194 78q71 70 101 186h31q-35 -132 -115 -211q-90 -88 -219 -88q-167 0 -278 132q-105 125 -105 296q0 169 88 296q100 143 262 143q147 0 247 -103q95 -99 106 -248h-517z
M124 950l232 348h118l232 -348h-58l-233 209l-233 -209h-58zM136 1300l289 299q58 60 96 60q74 0 74 -72q0 -43 -62 -82l-330 -205h-67z" />
    <glyph glyph-name="glyph313" unicode="&#x1ec0;" horiz-adv-x="1284" 
d="M178 29v1298h-143v29h1003l25 -330h-31q-16 186 -114 250q-79 51 -279 51h-256v-622h63q159 0 216 35q79 49 79 204h29v-508h-29q0 147 -53 192.5t-305 45.5v-645h262q239 0 338 63q127 80 127 303h29v-395h-1104v29h143zM326 1436l232 348h118l232 -348h-58l-233 209
l-233 -209h-58zM894 1786h-67l-330 205q-62 39 -62 82q0 72 74 72q38 0 96 -60z" />
    <glyph glyph-name="glyph314" unicode="&#x1ec1;" horiz-adv-x="801" 
d="M233 518h316v96q0 197 -160 197q-156 0 -156 -225v-68zM233 489v-237q0 -244 205 -244q114 0 194 78q71 70 101 186h31q-35 -132 -115 -211q-90 -88 -219 -88q-167 0 -278 132q-105 125 -105 296q0 169 88 296q100 143 262 143q147 0 247 -103q95 -99 106 -248h-517z
M124 950l232 348h118l232 -348h-58l-233 209l-233 -209h-58zM691 1301h-67l-330 205q-62 39 -62 82q0 72 74 72q38 0 96 -60z" />
    <glyph glyph-name="glyph315" unicode="&#x1ec2;" horiz-adv-x="1284" 
d="M178 29v1298h-143v29h1003l25 -330h-31q-16 186 -114 250q-79 51 -279 51h-256v-622h63q159 0 216 35q79 49 79 204h29v-508h-29q0 147 -53 192.5t-305 45.5v-645h262q239 0 338 63q127 80 127 303h29v-395h-1104v29h143zM326 1436l232 348h118l232 -348h-58l-233 209
l-233 -209h-58zM837 1726l-37 -2q-9 34 -9 69q0 63 59 110.5t59 90.5q0 67 -75 67q-59 0 -59 -34q0 -6 20 -14.5t20 -25.5q0 -28 -28 -28q-59 0 -59 50q0 48 35 82t87 34q145 0 145 -145q0 -58 -79.5 -123t-79.5 -103q0 -14 1 -28z" />
    <glyph glyph-name="glyph316" unicode="&#x1ec3;" horiz-adv-x="801" 
d="M233 518h316v96q0 197 -160 197q-156 0 -156 -225v-68zM233 489v-237q0 -244 205 -244q114 0 194 78q71 70 101 186h31q-35 -132 -115 -211q-90 -88 -219 -88q-167 0 -278 132q-105 125 -105 296q0 169 88 296q100 143 262 143q147 0 247 -103q95 -99 106 -248h-517z
M124 950l232 348h118l232 -348h-58l-233 209l-233 -209h-58zM635 1240l-37 -2q-9 34 -9 69q0 63 59 110.5t59 90.5q0 67 -75 67q-59 0 -59 -34q0 -6 20 -14.5t20 -25.5q0 -28 -28 -28q-59 0 -59 50q0 48 35 82t87 34q145 0 145 -145q0 -58 -79.5 -123t-79.5 -103
q0 -14 1 -28z" />
    <glyph glyph-name="glyph317" unicode="&#x1ec4;" horiz-adv-x="1284" 
d="M178 29v1298h-143v29h1003l25 -330h-31q-16 186 -114 250q-79 51 -279 51h-256v-622h63q159 0 216 35q79 49 79 204h29v-508h-29q0 147 -53 192.5t-305 45.5v-645h262q239 0 338 63q127 80 127 303h29v-395h-1104v29h143zM326 1436l232 348h118l232 -348h-58l-233 209
l-233 -209h-58zM975 2075q-40 -205 -195 -205q-39 0 -120.5 24t-110.5 24q-70 0 -97 -93h-51q38 211 197 211q32 0 173 -36q43 -11 56 -11q68 0 94 86h54z" />
    <glyph glyph-name="glyph318" unicode="&#x1ec5;" horiz-adv-x="801" 
d="M233 518h316v96q0 197 -160 197q-156 0 -156 -225v-68zM233 489v-237q0 -244 205 -244q114 0 194 78q71 70 101 186h31q-35 -132 -115 -211q-90 -88 -219 -88q-167 0 -278 132q-105 125 -105 296q0 169 88 296q100 143 262 143q147 0 247 -103q95 -99 106 -248h-517z
M124 950l232 348h118l232 -348h-58l-233 209l-233 -209h-58zM773 1589q-40 -205 -195 -205q-39 0 -120.5 24t-110.5 24q-70 0 -97 -93h-51q38 211 197 211q32 0 173 -36q43 -11 56 -11q68 0 94 86h54z" />
    <glyph glyph-name="glyph319" unicode="&#x1ec6;" horiz-adv-x="1284" 
d="M178 29v1298h-143v29h1003l25 -330h-31q-16 186 -114 250q-79 51 -279 51h-256v-622h63q159 0 216 35q79 49 79 204h29v-508h-29q0 147 -53 192.5t-305 45.5v-645h262q239 0 338 63q127 80 127 303h29v-395h-1104v29h143zM326 1436l232 348h118l232 -348h-58l-233 209
l-233 -209h-58zM527 -278q0 38 26 65t64 27t65 -27t27 -65q0 -39 -26.5 -64.5t-65.5 -25.5q-38 0 -64 26t-26 64z" />
    <glyph glyph-name="glyph320" unicode="&#x1ec7;" horiz-adv-x="801" 
d="M233 518h316v96q0 197 -160 197q-156 0 -156 -225v-68zM233 489v-237q0 -244 205 -244q114 0 194 78q71 70 101 186h31q-35 -132 -115 -211q-90 -88 -219 -88q-167 0 -278 132q-105 125 -105 296q0 169 88 296q100 143 262 143q147 0 247 -103q95 -99 106 -248h-517z
M124 950l232 348h118l232 -348h-58l-233 209l-233 -209h-58zM326 -278q0 38 26 65t64 27t65 -27t27 -65q0 -39 -26.5 -64.5t-65.5 -25.5q-38 0 -64 26t-26 64z" />
    <glyph glyph-name="glyph321" unicode="&#x1ec8;" horiz-adv-x="555" 
d="M25 0v29h153v1298h-153v29h505v-29h-145v-1298h145v-29h-505zM269 1469l-37 -2q-9 34 -9 69q0 63 59 110.5t59 90.5q0 67 -75 67q-59 0 -59 -34q0 -6 20 -14.5t20 -25.5q0 -28 -28 -28q-59 0 -59 50q0 48 35 82t87 34q145 0 145 -145q0 -58 -79.5 -123t-79.5 -103
q0 -14 1 -28z" />
    <glyph glyph-name="glyph322" unicode="&#x1ec9;" horiz-adv-x="455" 
d="M141 786h-116v29q240 0 288 25v-811h113v-29h-401v29h116v757zM208 951l-37 -2q-9 34 -9 69q0 63 59 110.5t59 90.5q0 67 -75 67q-59 0 -59 -34q0 -6 20 -14.5t20 -25.5q0 -28 -28 -28q-59 0 -59 50q0 48 35 82t87 34q145 0 145 -145q0 -58 -79.5 -123t-79.5 -103
q0 -14 1 -28z" />
    <glyph glyph-name="glyph323" unicode="&#x1eca;" horiz-adv-x="555" 
d="M25 0v29h153v1298h-153v29h505v-29h-145v-1298h145v-29h-505zM193 -278q0 38 26 65t64 27t65 -27t27 -65q0 -39 -26.5 -64.5t-65.5 -25.5q-38 0 -64 26t-26 64z" />
    <glyph glyph-name="glyph324" unicode="&#x1ecb;" horiz-adv-x="455" 
d="M141 786h-116v29q230 0 288 25v-811h113v-29h-401v29h116v757zM135 1305q0 37 26.5 64.5t63.5 27.5q38 0 64 -27t26 -65q0 -39 -25.5 -65t-64.5 -26q-38 0 -64 26.5t-26 64.5zM138 -278q0 38 26 65t64 27t65 -27t27 -65q0 -39 -26.5 -64.5t-65.5 -25.5q-38 0 -64 26
t-26 64z" />
    <glyph glyph-name="glyph325" unicode="&#x1ecc;" 
d="M289 678q0 -255 70 -430q99 -246 315 -246q217 0 314 246q69 174 69 430t-69 431q-98 247 -314 247t-315 -247q-70 -176 -70 -431zM66 678q0 145 42 268q64 186 216 309q160 129 350 129q189 0 349 -129q152 -123 216 -308q41 -123 41 -269q0 -147 -41 -269
q-64 -186 -216 -309q-160 -129 -349 -129q-190 0 -350 130q-152 123 -216 310q-42 122 -42 267zM584 -278q0 38 26 65t64 27t65 -27t27 -65q0 -39 -26.5 -64.5t-65.5 -25.5q-38 0 -64 26t-26 64z" />
    <glyph glyph-name="glyph326" unicode="&#x1ecd;" horiz-adv-x="891" 
d="M47 408q0 167 115 297q120 135 284 135q167 0 285 -134q113 -129 113 -298q0 -168 -114 -297q-119 -134 -284 -134q-166 0 -285 134q-114 129 -114 297zM231 285q0 -279 215 -279q213 0 213 279v247q0 279 -213 279q-215 0 -215 -279v-247zM356 -278q0 38 26 65t64 27
t65 -27t27 -65q0 -39 -26.5 -64.5t-65.5 -25.5q-38 0 -64 26t-26 64z" />
    <glyph glyph-name="glyph327" unicode="&#x1ece;" 
d="M289 678q0 -255 70 -430q99 -246 315 -246q217 0 314 246q69 174 69 430t-69 431q-98 247 -314 247t-315 -247q-70 -176 -70 -431zM66 678q0 145 42 268q64 186 216 309q160 129 350 129q189 0 349 -129q152 -123 216 -308q41 -123 41 -269q0 -147 -41 -269
q-64 -186 -216 -309q-160 -129 -349 -129q-190 0 -350 130q-152 123 -216 310q-42 122 -42 267zM669 1469l-37 -2q-9 34 -9 69q0 63 59 110.5t59 90.5q0 67 -75 67q-59 0 -59 -34q0 -6 20 -14.5t20 -25.5q0 -28 -28 -28q-59 0 -59 50q0 48 35 82t87 34q145 0 145 -145
q0 -58 -79.5 -123t-79.5 -103q0 -14 1 -28z" />
    <glyph glyph-name="glyph328" unicode="&#x1ecf;" horiz-adv-x="891" 
d="M47 408q0 167 115 297q120 135 284 135q167 0 285 -134q113 -129 113 -298q0 -168 -114 -297q-119 -134 -284 -134q-166 0 -285 134q-114 129 -114 297zM231 285q0 -279 215 -279q213 0 213 279v247q0 279 -213 279q-215 0 -215 -279v-247zM438 951l-37 -2q-9 34 -9 69
q0 63 59 110.5t59 90.5q0 67 -75 67q-59 0 -59 -34q0 -6 20 -14.5t20 -25.5q0 -28 -28 -28q-59 0 -59 50q0 48 35 82t87 34q145 0 145 -145q0 -58 -79.5 -123t-79.5 -103q0 -14 1 -28z" />
    <glyph glyph-name="glyph329" unicode="&#x1ed0;" 
d="M289 678q0 -255 70 -430q99 -246 315 -246q217 0 314 246q69 174 69 430t-69 431q-98 247 -314 247t-315 -247q-70 -176 -70 -431zM66 678q0 145 42 268q64 186 216 309q160 129 350 129q189 0 349 -129q152 -123 216 -308q41 -123 41 -269q0 -147 -41 -269
q-64 -186 -216 -309q-160 -129 -349 -129q-190 0 -350 130q-152 123 -216 310q-42 122 -42 267zM385 1436l232 348h118l232 -348h-58l-233 209l-233 -209h-58zM397 1786l289 299q58 60 96 60q74 0 74 -72q0 -43 -62 -82l-330 -205h-67z" />
    <glyph glyph-name="glyph330" unicode="&#x1ed1;" horiz-adv-x="891" 
d="M47 408q0 167 115 297q120 135 284 135q167 0 285 -134q113 -129 113 -298q0 -168 -114 -297q-119 -134 -284 -134q-166 0 -285 134q-114 129 -114 297zM231 285q0 -279 215 -279q213 0 213 279v247q0 279 -213 279q-215 0 -215 -279v-247zM163 950l232 348h118l232 -348
h-58l-233 209l-233 -209h-58zM175 1300l289 299q58 60 96 60q74 0 74 -72q0 -43 -62 -82l-330 -205h-67z" />
    <glyph glyph-name="glyph331" unicode="&#x1ed2;" 
d="M289 678q0 -255 70 -430q99 -246 315 -246q217 0 314 246q69 174 69 430t-69 431q-98 247 -314 247t-315 -247q-70 -176 -70 -431zM66 678q0 145 42 268q64 186 216 309q160 129 350 129q189 0 349 -129q152 -123 216 -308q41 -123 41 -269q0 -147 -41 -269
q-64 -186 -216 -309q-160 -129 -349 -129q-190 0 -350 130q-152 123 -216 310q-42 122 -42 267zM385 1436l232 348h118l232 -348h-58l-233 209l-233 -209h-58zM952 1786h-67l-330 205q-62 39 -62 82q0 72 74 72q38 0 96 -60z" />
    <glyph glyph-name="glyph332" unicode="&#x1ed3;" horiz-adv-x="891" 
d="M47 408q0 167 115 297q120 135 284 135q167 0 285 -134q113 -129 113 -298q0 -168 -114 -297q-119 -134 -284 -134q-166 0 -285 134q-114 129 -114 297zM231 285q0 -279 215 -279q213 0 213 279v247q0 279 -213 279q-215 0 -215 -279v-247zM163 950l232 348h118l232 -348
h-58l-233 209l-233 -209h-58zM730 1301h-67l-330 205q-62 39 -62 82q0 72 74 72q38 0 96 -60z" />
    <glyph glyph-name="glyph333" unicode="&#x1ed4;" 
d="M289 678q0 -255 70 -430q99 -246 315 -246q217 0 314 246q69 174 69 430t-69 431q-98 247 -314 247t-315 -247q-70 -176 -70 -431zM66 678q0 145 42 268q64 186 216 309q160 129 350 129q189 0 349 -129q152 -123 216 -308q41 -123 41 -269q0 -147 -41 -269
q-64 -186 -216 -309q-160 -129 -349 -129q-190 0 -350 130q-152 123 -216 310q-42 122 -42 267zM385 1436l232 348h118l232 -348h-58l-233 209l-233 -209h-58zM895 1726l-37 -2q-9 34 -9 69q0 63 59 110.5t59 90.5q0 67 -75 67q-59 0 -59 -34q0 -6 20 -14.5t20 -25.5
q0 -28 -28 -28q-59 0 -59 50q0 48 35 82t87 34q145 0 145 -145q0 -58 -79.5 -123t-79.5 -103q0 -14 1 -28z" />
    <glyph glyph-name="glyph334" unicode="&#x1ed5;" horiz-adv-x="891" 
d="M47 408q0 167 115 297q120 135 284 135q167 0 285 -134q113 -129 113 -298q0 -168 -114 -297q-119 -134 -284 -134q-166 0 -285 134q-114 129 -114 297zM231 285q0 -279 215 -279q213 0 213 279v247q0 279 -213 279q-215 0 -215 -279v-247zM163 950l232 348h118l232 -348
h-58l-233 209l-233 -209h-58zM674 1240l-37 -2q-9 34 -9 69q0 63 59 110.5t59 90.5q0 67 -75 67q-59 0 -59 -34q0 -6 20 -14.5t20 -25.5q0 -28 -28 -28q-59 0 -59 50q0 48 35 82t87 34q145 0 145 -145q0 -58 -79.5 -123t-79.5 -103q0 -14 1 -28z" />
    <glyph glyph-name="glyph335" unicode="&#x1ed6;" 
d="M289 678q0 -255 70 -430q99 -246 315 -246q217 0 314 246q69 174 69 430t-69 431q-98 247 -314 247t-315 -247q-70 -176 -70 -431zM66 678q0 145 42 268q64 186 216 309q160 129 350 129q189 0 349 -129q152 -123 216 -308q41 -123 41 -269q0 -147 -41 -269
q-64 -186 -216 -309q-160 -129 -349 -129q-190 0 -350 130q-152 123 -216 310q-42 122 -42 267zM385 1436l232 348h118l232 -348h-58l-233 209l-233 -209h-58zM1033 2075q-40 -205 -195 -205q-39 0 -120.5 24t-110.5 24q-70 0 -97 -93h-51q38 211 197 211q32 0 173 -36
q43 -11 56 -11q68 0 94 86h54z" />
    <glyph glyph-name="glyph336" unicode="&#x1ed7;" horiz-adv-x="891" 
d="M47 408q0 167 115 297q120 135 284 135q167 0 285 -134q113 -129 113 -298q0 -168 -114 -297q-119 -134 -284 -134q-166 0 -285 134q-114 129 -114 297zM231 285q0 -279 215 -279q213 0 213 279v247q0 279 -213 279q-215 0 -215 -279v-247zM163 950l232 348h118l232 -348
h-58l-233 209l-233 -209h-58zM812 1589q-40 -205 -195 -205q-39 0 -120.5 24t-110.5 24q-70 0 -97 -93h-51q38 211 197 211q32 0 173 -36q43 -11 56 -11q68 0 94 86h54z" />
    <glyph glyph-name="glyph337" unicode="&#x1ed8;" 
d="M289 678q0 -255 70 -430q99 -246 315 -246q217 0 314 246q69 174 69 430t-69 431q-98 247 -314 247t-315 -247q-70 -176 -70 -431zM66 678q0 145 42 268q64 186 216 309q160 129 350 129q189 0 349 -129q152 -123 216 -308q41 -123 41 -269q0 -147 -41 -269
q-64 -186 -216 -309q-160 -129 -349 -129q-190 0 -350 130q-152 123 -216 310q-42 122 -42 267zM385 1436l232 348h118l232 -348h-58l-233 209l-233 -209h-58zM584 -278q0 38 26 65t64 27t65 -27t27 -65q0 -39 -26.5 -64.5t-65.5 -25.5q-38 0 -64 26t-26 64z" />
    <glyph glyph-name="glyph338" unicode="&#x1ed9;" horiz-adv-x="891" 
d="M47 408q0 167 115 297q120 135 284 135q167 0 285 -134q113 -129 113 -298q0 -168 -114 -297q-119 -134 -284 -134q-166 0 -285 134q-114 129 -114 297zM231 285q0 -279 215 -279q213 0 213 279v247q0 279 -213 279q-215 0 -215 -279v-247zM163 950l232 348h118l232 -348
h-58l-233 209l-233 -209h-58zM356 -278q0 38 26 65t64 27t65 -27t27 -65q0 -39 -26.5 -64.5t-65.5 -25.5q-38 0 -64 26t-26 64z" />
    <glyph glyph-name="glyph339" unicode="&#x1eda;" 
d="M289 678q0 -255 70 -430q99 -246 315 -246q217 0 314 246q69 174 69 430t-69 431q-98 247 -314 247t-315 -247q-70 -176 -70 -431zM66 678q0 145 42 268q64 186 216 309q160 129 350 129q189 0 349 -129q152 -123 216 -308q41 -123 41 -269q0 -147 -41 -269
q-64 -186 -216 -309q-160 -129 -349 -129q-190 0 -350 130q-152 123 -216 310q-42 122 -42 267zM1066 884l-13 27q214 113 259 260q17 55 -33 65q-38 -3 -112 6q-80 24 -80 92q0 16 6 35q22 72 104 72q23 0 45 -7q118 -36 118 -172q0 -41 -13 -83q-57 -188 -281 -295z
M459 1495l289 299q58 60 96 60q74 0 74 -72q0 -43 -62 -82l-330 -205h-67z" />
    <glyph glyph-name="glyph340" unicode="&#x1edb;" horiz-adv-x="891" 
d="M47 408q0 167 115 297q120 135 284 135q167 0 285 -134q113 -129 113 -298q0 -168 -114 -297q-119 -134 -284 -134q-166 0 -285 134q-114 129 -114 297zM231 285q0 -279 215 -279q213 0 213 279v247q0 279 -213 279q-215 0 -215 -279v-247zM622 454l-13 27
q214 113 259 260q17 55 -33 65q-38 -3 -112 6q-80 24 -80 92q0 16 6 35q22 72 104 72q23 0 45 -7q118 -36 118 -172q0 -41 -13 -83q-57 -188 -281 -295zM259 950l289 299q58 60 96 60q74 0 74 -72q0 -43 -62 -82l-330 -205h-67z" />
    <glyph glyph-name="glyph341" unicode="&#x1edc;" 
d="M289 678q0 -255 70 -430q99 -246 315 -246q217 0 314 246q69 174 69 430t-69 431q-98 247 -314 247t-315 -247q-70 -176 -70 -431zM66 678q0 145 42 268q64 186 216 309q160 129 350 129q189 0 349 -129q152 -123 216 -308q41 -123 41 -269q0 -147 -41 -269
q-64 -186 -216 -309q-160 -129 -349 -129q-190 0 -350 130q-152 123 -216 310q-42 122 -42 267zM1066 884l-13 27q214 113 259 260q17 55 -33 65q-38 -3 -112 6q-80 24 -80 92q0 16 6 35q22 72 104 72q23 0 45 -7q118 -36 118 -172q0 -41 -13 -83q-57 -188 -281 -295z
M871 1495h-67l-330 205q-62 39 -62 82q0 72 74 72q38 0 96 -60z" />
    <glyph glyph-name="glyph342" unicode="&#x1edd;" horiz-adv-x="891" 
d="M47 408q0 167 115 297q120 135 284 135q167 0 285 -134q113 -129 113 -298q0 -168 -114 -297q-119 -134 -284 -134q-166 0 -285 134q-114 129 -114 297zM231 285q0 -279 215 -279q213 0 213 279v247q0 279 -213 279q-215 0 -215 -279v-247zM622 454l-13 27
q214 113 259 260q17 55 -33 65q-38 -3 -112 6q-80 24 -80 92q0 16 6 35q22 72 104 72q23 0 45 -7q118 -36 118 -172q0 -41 -13 -83q-57 -188 -281 -295zM613 950h-67l-330 205q-62 39 -62 82q0 72 74 72q38 0 96 -60z" />
    <glyph glyph-name="glyph343" unicode="&#x1ede;" 
d="M289 678q0 -255 70 -430q99 -246 315 -246q217 0 314 246q69 174 69 430t-69 431q-98 247 -314 247t-315 -247q-70 -176 -70 -431zM66 678q0 145 42 268q64 186 216 309q160 129 350 129q189 0 349 -129q152 -123 216 -308q41 -123 41 -269q0 -147 -41 -269
q-64 -186 -216 -309q-160 -129 -349 -129q-190 0 -350 130q-152 123 -216 310q-42 122 -42 267zM1066 884l-13 27q214 113 259 260q17 55 -33 65q-38 -3 -112 6q-80 24 -80 92q0 16 6 35q22 72 104 72q23 0 45 -7q118 -36 118 -172q0 -41 -13 -83q-57 -188 -281 -295z
M669 1469l-37 -2q-9 34 -9 69q0 63 59 110.5t59 90.5q0 67 -75 67q-59 0 -59 -34q0 -6 20 -14.5t20 -25.5q0 -28 -28 -28q-59 0 -59 50q0 48 35 82t87 34q145 0 145 -145q0 -58 -79.5 -123t-79.5 -103q0 -14 1 -28z" />
    <glyph glyph-name="glyph344" unicode="&#x1edf;" horiz-adv-x="891" 
d="M47 408q0 167 115 297q120 135 284 135q167 0 285 -134q113 -129 113 -298q0 -168 -114 -297q-119 -134 -284 -134q-166 0 -285 134q-114 129 -114 297zM231 285q0 -279 215 -279q213 0 213 279v247q0 279 -213 279q-215 0 -215 -279v-247zM622 454l-13 27
q214 113 259 260q17 55 -33 65q-38 -3 -112 6q-80 24 -80 92q0 16 6 35q22 72 104 72q23 0 45 -7q118 -36 118 -172q0 -41 -13 -83q-57 -188 -281 -295zM438 951l-37 -2q-9 34 -9 69q0 63 59 110.5t59 90.5q0 67 -75 67q-59 0 -59 -34q0 -6 20 -14.5t20 -25.5q0 -28 -28 -28
q-59 0 -59 50q0 48 35 82t87 34q145 0 145 -145q0 -58 -79.5 -123t-79.5 -103q0 -14 1 -28z" />
    <glyph glyph-name="glyph345" unicode="&#x1ee0;" 
d="M289 678q0 -255 70 -430q99 -246 315 -246q217 0 314 246q69 174 69 430t-69 431q-98 247 -314 247t-315 -247q-70 -176 -70 -431zM66 678q0 145 42 268q64 186 216 309q160 129 350 129q189 0 349 -129q152 -123 216 -308q41 -123 41 -269q0 -147 -41 -269
q-64 -186 -216 -309q-160 -129 -349 -129q-190 0 -350 130q-152 123 -216 310q-42 122 -42 267zM1066 884l-13 27q214 113 259 260q17 55 -33 65q-38 -3 -112 6q-80 24 -80 92q0 16 6 35q22 72 104 72q23 0 45 -7q118 -36 118 -172q0 -41 -13 -83q-57 -188 -281 -295z
M952 1792q-40 -205 -195 -205q-39 0 -120.5 24t-110.5 24q-70 0 -97 -93h-51q38 211 197 211q32 0 173 -36q43 -11 56 -11q68 0 94 86h54z" />
    <glyph glyph-name="glyph346" unicode="&#x1ee1;" horiz-adv-x="891" 
d="M47 408q0 167 115 297q120 135 284 135q167 0 285 -134q113 -129 113 -298q0 -168 -114 -297q-119 -134 -284 -134q-166 0 -285 134q-114 129 -114 297zM231 285q0 -279 215 -279q213 0 213 279v247q0 279 -213 279q-215 0 -215 -279v-247zM622 454l-13 27
q214 113 259 260q17 55 -33 65q-38 -3 -112 6q-80 24 -80 92q0 16 6 35q22 72 104 72q23 0 45 -7q118 -36 118 -172q0 -41 -13 -83q-57 -188 -281 -295zM754 1247q-40 -205 -195 -205q-39 0 -120.5 24t-110.5 24q-70 0 -97 -93h-51q38 211 197 211q32 0 173 -36
q43 -11 56 -11q68 0 94 86h54z" />
    <glyph glyph-name="glyph347" unicode="&#x1ee2;" 
d="M289 678q0 -255 70 -430q99 -246 315 -246q217 0 314 246q69 174 69 430t-69 431q-98 247 -314 247t-315 -247q-70 -176 -70 -431zM66 678q0 145 42 268q64 186 216 309q160 129 350 129q189 0 349 -129q152 -123 216 -308q41 -123 41 -269q0 -147 -41 -269
q-64 -186 -216 -309q-160 -129 -349 -129q-190 0 -350 130q-152 123 -216 310q-42 122 -42 267zM1066 884l-13 27q214 113 259 260q17 55 -33 65q-38 -3 -112 6q-80 24 -80 92q0 16 6 35q22 72 104 72q23 0 45 -7q118 -36 118 -172q0 -41 -13 -83q-57 -188 -281 -295z
M584 -278q0 38 26 65t64 27t65 -27t27 -65q0 -39 -26.5 -64.5t-65.5 -25.5q-38 0 -64 26t-26 64z" />
    <glyph glyph-name="glyph348" unicode="&#x1ee3;" horiz-adv-x="891" 
d="M47 408q0 167 115 297q120 135 284 135q167 0 285 -134q113 -129 113 -298q0 -168 -114 -297q-119 -134 -284 -134q-166 0 -285 134q-114 129 -114 297zM231 285q0 -279 215 -279q213 0 213 279v247q0 279 -213 279q-215 0 -215 -279v-247zM622 454l-13 27
q214 113 259 260q17 55 -33 65q-38 -3 -112 6q-80 24 -80 92q0 16 6 35q22 72 104 72q23 0 45 -7q118 -36 118 -172q0 -41 -13 -83q-57 -188 -281 -295zM356 -278q0 38 26 65t64 27t65 -27t27 -65q0 -39 -26.5 -64.5t-65.5 -25.5q-38 0 -64 26t-26 64z" />
    <glyph glyph-name="glyph349" unicode="&#x1ee4;" 
d="M168 1327h-156v29h535v-29h-168v-912q0 -124 10 -178q38 -217 340 -217q142 0 241 56q115 64 149 192q14 55 14 181v706q0 128 -36 154q-26 18 -165 18v29h401v-29q-111 0 -137.5 -27.5t-26.5 -146.5v-696q0 -142 -14 -203q-65 -283 -483 -283q-408 0 -484 254
q-20 67 -20 228v874zM595 -278q0 38 26 65t64 27t65 -27t27 -65q0 -39 -26.5 -64.5t-65.5 -25.5q-38 0 -64 26t-26 64z" />
    <glyph glyph-name="glyph350" unicode="&#x1ee5;" horiz-adv-x="991" 
d="M686 786h-119v29q229 0 289 25v-811h115v-29h-287v182q-122 -182 -293 -182q-120 0 -191 68.5t-71 187.5v530h-117v29q229 0 289 25v-645q0 -156 121 -156q142 0 264 201v546zM403 -278q0 38 26 65t64 27t65 -27t27 -65q0 -39 -26.5 -64.5t-65.5 -25.5q-38 0 -64 26
t-26 64z" />
    <glyph glyph-name="glyph351" unicode="&#x1ee6;" 
d="M168 1327h-156v29h535v-29h-168v-912q0 -124 10 -178q38 -217 340 -217q142 0 241 56q115 64 149 192q14 55 14 181v706q0 128 -36 154q-26 18 -165 18v29h401v-29q-111 0 -137.5 -27.5t-26.5 -146.5v-696q0 -142 -14 -203q-65 -283 -483 -283q-408 0 -484 254
q-20 67 -20 228v874zM709 1469l-37 -2q-9 34 -9 69q0 63 59 110.5t59 90.5q0 67 -75 67q-59 0 -59 -34q0 -6 20 -14.5t20 -25.5q0 -28 -28 -28q-59 0 -59 50q0 48 35 82t87 34q145 0 145 -145q0 -58 -79.5 -123t-79.5 -103q0 -14 1 -28z" />
    <glyph glyph-name="glyph352" unicode="&#x1ee7;" horiz-adv-x="991" 
d="M686 786h-119v29q229 0 289 25v-811h115v-29h-287v182q-122 -182 -293 -182q-120 0 -191 68.5t-71 187.5v530h-117v29q229 0 289 25v-645q0 -156 121 -156q142 0 264 201v546zM468 951l-37 -2q-9 34 -9 69q0 63 59 110.5t59 90.5q0 67 -75 67q-59 0 -59 -34
q0 -6 20 -14.5t20 -25.5q0 -28 -28 -28q-59 0 -59 50q0 48 35 82t87 34q145 0 145 -145q0 -58 -79.5 -123t-79.5 -103q0 -14 1 -28z" />
    <glyph glyph-name="glyph353" unicode="&#x1ee8;" 
d="M168 1327h-156v29h535v-29h-168v-912q0 -124 10 -178q38 -217 340 -217q142 0 241 56q115 64 149 192q14 55 14 181v706q0 128 -36 154q-26 18 -165 18v29h401v-29q-111 0 -137.5 -27.5t-26.5 -146.5v-696q0 -142 -14 -203q-65 -283 -483 -283q-408 0 -484 254
q-20 67 -20 228v874zM1101 884l-13 27q214 113 259 260q17 55 -33 65q-38 -3 -112 6q-80 24 -80 92q0 16 6 35q22 72 104 72q23 0 45 -7q118 -36 118 -172q0 -41 -13 -83q-57 -188 -281 -295zM498 1495l289 299q58 60 96 60q74 0 74 -72q0 -43 -62 -82l-330 -205h-67z" />
    <glyph glyph-name="glyph354" unicode="&#x1ee9;" horiz-adv-x="991" 
d="M686 786h-119v29q229 0 289 25v-811h115v-29h-287v182q-122 -182 -293 -182q-120 0 -191 68.5t-71 187.5v530h-117v29q229 0 289 25v-645q0 -156 121 -156q142 0 264 201v546zM705 454l-13 27q214 113 259 260q17 55 -33 65q-38 -3 -112 6q-80 24 -80 92q0 16 6 35
q22 72 104 72q23 0 45 -7q118 -36 118 -172q0 -41 -13 -83q-57 -188 -281 -295zM320 950l289 299q58 60 96 60q74 0 74 -72q0 -43 -62 -82l-330 -205h-67z" />
    <glyph glyph-name="glyph355" unicode="&#x1eea;" 
d="M168 1327h-156v29h535v-29h-168v-912q0 -124 10 -178q38 -217 340 -217q142 0 241 56q115 64 149 192q14 55 14 181v706q0 128 -36 154q-26 18 -165 18v29h401v-29q-111 0 -137.5 -27.5t-26.5 -146.5v-696q0 -142 -14 -203q-65 -283 -483 -283q-408 0 -484 254
q-20 67 -20 228v874zM1101 884l-13 27q214 113 259 260q17 55 -33 65q-38 -3 -112 6q-80 24 -80 92q0 16 6 35q22 72 104 72q23 0 45 -7q118 -36 118 -172q0 -41 -13 -83q-57 -188 -281 -295zM910 1495h-67l-330 205q-62 39 -62 82q0 72 74 72q38 0 96 -60z" />
    <glyph glyph-name="glyph356" unicode="&#x1eeb;" horiz-adv-x="991" 
d="M686 786h-119v29q229 0 289 25v-811h115v-29h-287v182q-122 -182 -293 -182q-120 0 -191 68.5t-71 187.5v530h-117v29q229 0 289 25v-645q0 -156 121 -156q142 0 264 201v546zM705 454l-13 27q214 113 259 260q17 55 -33 65q-38 -3 -112 6q-80 24 -80 92q0 16 6 35
q22 72 104 72q23 0 45 -7q118 -36 118 -172q0 -41 -13 -83q-57 -188 -281 -295zM672 950h-67l-330 205q-62 39 -62 82q0 72 74 72q38 0 96 -60z" />
    <glyph glyph-name="glyph357" unicode="&#x1eec;" 
d="M168 1327h-156v29h535v-29h-168v-912q0 -124 10 -178q38 -217 340 -217q142 0 241 56q115 64 149 192q14 55 14 181v706q0 128 -36 154q-26 18 -165 18v29h401v-29q-111 0 -137.5 -27.5t-26.5 -146.5v-696q0 -142 -14 -203q-65 -283 -483 -283q-408 0 -484 254
q-20 67 -20 228v874zM1101 884l-13 27q214 113 259 260q17 55 -33 65q-38 -3 -112 6q-80 24 -80 92q0 16 6 35q22 72 104 72q23 0 45 -7q118 -36 118 -172q0 -41 -13 -83q-57 -188 -281 -295zM709 1469l-37 -2q-9 34 -9 69q0 63 59 110.5t59 90.5q0 67 -75 67q-59 0 -59 -34
q0 -6 20 -14.5t20 -25.5q0 -28 -28 -28q-59 0 -59 50q0 48 35 82t87 34q145 0 145 -145q0 -58 -79.5 -123t-79.5 -103q0 -14 1 -28z" />
    <glyph glyph-name="glyph358" unicode="&#x1eed;" horiz-adv-x="991" 
d="M686 786h-119v29q229 0 289 25v-811h115v-29h-287v182q-122 -182 -293 -182q-120 0 -191 68.5t-71 187.5v530h-117v29q229 0 289 25v-645q0 -156 121 -156q142 0 264 201v546zM705 454l-13 27q214 113 259 260q17 55 -33 65q-38 -3 -112 6q-80 24 -80 92q0 16 6 35
q22 72 104 72q23 0 45 -7q118 -36 118 -172q0 -41 -13 -83q-57 -188 -281 -295zM468 951l-37 -2q-9 34 -9 69q0 63 59 110.5t59 90.5q0 67 -75 67q-59 0 -59 -34q0 -6 20 -14.5t20 -25.5q0 -28 -28 -28q-59 0 -59 50q0 48 35 82t87 34q145 0 145 -145q0 -58 -79.5 -123
t-79.5 -103q0 -14 1 -28z" />
    <glyph glyph-name="glyph359" unicode="&#x1eee;" 
d="M168 1327h-156v29h535v-29h-168v-912q0 -124 10 -178q38 -217 340 -217q142 0 241 56q115 64 149 192q14 55 14 181v706q0 128 -36 154q-26 18 -165 18v29h401v-29q-111 0 -137.5 -27.5t-26.5 -146.5v-696q0 -142 -14 -203q-65 -283 -483 -283q-408 0 -484 254
q-20 67 -20 228v874zM1101 884l-13 27q214 113 259 260q17 55 -33 65q-38 -3 -112 6q-80 24 -80 92q0 16 6 35q22 72 104 72q23 0 45 -7q118 -36 118 -172q0 -41 -13 -83q-57 -188 -281 -295zM1002 1792q-40 -205 -195 -205q-39 0 -120.5 24t-110.5 24q-70 0 -97 -93h-51
q38 211 197 211q32 0 173 -36q43 -11 56 -11q68 0 94 86h54z" />
    <glyph glyph-name="glyph360" unicode="&#x1eef;" horiz-adv-x="991" 
d="M686 786h-119v29q229 0 289 25v-811h115v-29h-287v182q-122 -182 -293 -182q-120 0 -191 68.5t-71 187.5v530h-117v29q229 0 289 25v-645q0 -156 121 -156q142 0 264 201v546zM705 454l-13 27q214 113 259 260q17 55 -33 65q-38 -3 -112 6q-80 24 -80 92q0 16 6 35
q22 72 104 72q23 0 45 -7q118 -36 118 -172q0 -41 -13 -83q-57 -188 -281 -295zM760 1247q-40 -205 -195 -205q-39 0 -120.5 24t-110.5 24q-70 0 -97 -93h-51q38 211 197 211q32 0 173 -36q43 -11 56 -11q68 0 94 86h54z" />
    <glyph glyph-name="glyph361" unicode="&#x1ef0;" 
d="M168 1327h-156v29h535v-29h-168v-912q0 -124 10 -178q38 -217 340 -217q142 0 241 56q115 64 149 192q14 55 14 181v706q0 128 -36 154q-26 18 -165 18v29h401v-29q-111 0 -137.5 -27.5t-26.5 -146.5v-696q0 -142 -14 -203q-65 -283 -483 -283q-408 0 -484 254
q-20 67 -20 228v874zM1101 884l-13 27q214 113 259 260q17 55 -33 65q-38 -3 -112 6q-80 24 -80 92q0 16 6 35q22 72 104 72q23 0 45 -7q118 -36 118 -172q0 -41 -13 -83q-57 -188 -281 -295zM595 -278q0 38 26 65t64 27t65 -27t27 -65q0 -39 -26.5 -64.5t-65.5 -25.5
q-38 0 -64 26t-26 64z" />
    <glyph glyph-name="glyph362" unicode="&#x1ef1;" horiz-adv-x="991" 
d="M686 786h-119v29q229 0 289 25v-811h115v-29h-287v182q-122 -182 -293 -182q-120 0 -191 68.5t-71 187.5v530h-117v29q229 0 289 25v-645q0 -156 121 -156q142 0 264 201v546zM705 454l-13 27q214 113 259 260q17 55 -33 65q-38 -3 -112 6q-80 24 -80 92q0 16 6 35
q22 72 104 72q23 0 45 -7q118 -36 118 -172q0 -41 -13 -83q-57 -188 -281 -295zM403 -278q0 38 26 65t64 27t65 -27t27 -65q0 -39 -26.5 -64.5t-65.5 -25.5q-38 0 -64 26t-26 64z" />
    <glyph glyph-name="glyph363" unicode="&#x1ef2;" horiz-adv-x="1014" 
d="M233 0v29h177v483l-363 815h-160v29h523v-29h-146l328 -729l264 598q21 48 21 74q0 57 -136 57v29h349v-29q-86 0 -116 -17q-36 -19 -69 -93l-295 -666v-522h174v-29h-551zM720 1495h-67l-330 205q-62 39 -62 82q0 72 74 72q38 0 96 -60z" />
    <glyph glyph-name="glyph364" unicode="&#x1ef3;" horiz-adv-x="901" 
d="M219 -510q-44 0 -72 29t-28 73q0 39 24.5 66t63.5 27q85 0 86 -93q0 -4 -1 -12t-1 -12l2 -3q1 -1 4 -1q62 0 147 405l-352 817h-86v29h381v-29h-117l252 -602l180 487q17 46 17 68q0 50 -168 47v29h321v-29q-60 0 -99 -54q-23 -31 -52 -109l-180 -484q-44 -119 -87 -276
l-48 -175q-37 -119 -78 -158.5t-109 -39.5zM672 950h-67l-330 205q-62 39 -62 82q0 72 74 72q38 0 96 -60z" />
    <glyph glyph-name="glyph365" unicode="&#x1ef4;" horiz-adv-x="1014" 
d="M233 0v29h177v483l-363 815h-160v29h523v-29h-146l328 -729l264 598q21 48 21 74q0 57 -136 57v29h349v-29q-86 0 -116 -17q-36 -19 -69 -93l-295 -666v-522h174v-29h-551zM423 -278q0 38 26 65t64 27t65 -27t27 -65q0 -39 -26.5 -64.5t-65.5 -25.5q-38 0 -64 26t-26 64z
" />
    <glyph glyph-name="glyph366" unicode="&#x1ef5;" horiz-adv-x="901" 
d="M219 -510q-44 0 -72 29t-28 73q0 39 24.5 66t63.5 27q85 0 86 -93q0 -4 -1 -12t-1 -12l2 -3q1 -1 4 -1q62 0 147 405l-352 817h-86v29h381v-29h-117l252 -602l180 487q17 46 17 68q0 50 -168 47v29h321v-29q-60 0 -99 -54q-23 -31 -52 -109l-180 -484q-44 -119 -87 -276
l-48 -175q-37 -119 -78 -158.5t-109 -39.5zM483 -278q0 38 26 65t64 27t65 -27t27 -65q0 -39 -26.5 -64.5t-65.5 -25.5q-38 0 -64 26t-26 64z" />
    <glyph glyph-name="glyph367" unicode="&#x1ef6;" horiz-adv-x="1014" 
d="M233 0v29h177v483l-363 815h-160v29h523v-29h-146l328 -729l264 598q21 48 21 74q0 57 -136 57v29h349v-29q-86 0 -116 -17q-36 -19 -69 -93l-295 -666v-522h174v-29h-551zM559 1469l-37 -2q-9 34 -9 69q0 63 59 110.5t59 90.5q0 67 -75 67q-59 0 -59 -34q0 -6 20 -14.5
t20 -25.5q0 -28 -28 -28q-59 0 -59 50q0 48 35 82t87 34q145 0 145 -145q0 -58 -79.5 -123t-79.5 -103q0 -14 1 -28z" />
    <glyph glyph-name="glyph368" unicode="&#x1ef7;" horiz-adv-x="901" 
d="M219 -510q-44 0 -72 29t-28 73q0 39 24.5 66t63.5 27q85 0 86 -93q0 -4 -1 -12t-1 -12l2 -3q1 -1 4 -1q62 0 147 405l-352 817h-86v29h381v-29h-117l252 -602l180 487q17 46 17 68q0 50 -168 47v29h321v-29q-60 0 -99 -54q-23 -31 -52 -109l-180 -484q-44 -119 -87 -276
l-48 -175q-37 -119 -78 -158.5t-109 -39.5zM468 951l-37 -2q-9 34 -9 69q0 63 59 110.5t59 90.5q0 67 -75 67q-59 0 -59 -34q0 -6 20 -14.5t20 -25.5q0 -28 -28 -28q-59 0 -59 50q0 48 35 82t87 34q145 0 145 -145q0 -58 -79.5 -123t-79.5 -103q0 -14 1 -28z" />
    <glyph glyph-name="glyph369" unicode="&#x1ef8;" horiz-adv-x="1014" 
d="M233 0v29h177v483l-363 815h-160v29h523v-29h-146l328 -729l264 598q21 48 21 74q0 57 -136 57v29h349v-29q-86 0 -116 -17q-36 -19 -69 -93l-295 -666v-522h174v-29h-551zM842 1792q-40 -205 -195 -205q-39 0 -120.5 24t-110.5 24q-70 0 -97 -93h-51q38 211 197 211
q32 0 173 -36q43 -11 56 -11q68 0 94 86h54z" />
    <glyph glyph-name="glyph370" unicode="&#x1ef9;" horiz-adv-x="901" 
d="M219 -510q-44 0 -72 29t-28 73q0 39 24.5 66t63.5 27q85 0 86 -93q0 -4 -1 -12t-1 -12l2 -3q1 -1 4 -1q62 0 147 405l-352 817h-86v29h381v-29h-117l252 -602l180 487q17 46 17 68q0 50 -168 47v29h321v-29q-60 0 -99 -54q-23 -31 -52 -109l-180 -484q-44 -119 -87 -276
l-48 -175q-37 -119 -78 -158.5t-109 -39.5zM760 1247q-40 -205 -195 -205q-39 0 -120.5 24t-110.5 24q-70 0 -97 -93h-51q38 211 197 211q32 0 173 -36q43 -11 56 -11q68 0 94 86h54z" />
    </font>
</defs>
</svg>
