<?xml version="1.0" standalone="no"?>
<!DOCTYPE svg PUBLIC "-//W3C//DTD SVG 1.1//EN" "http://www.w3.org/Graphics/SVG/1.1/DTD/svg11.dtd" >
<svg>
<metadata>
Created by FontForge 20090622 at Tue May 28 08:54:14 2019
 By deploy user
Freestyle Script is a trademark of Esselte Pendaflex Corporation in the USA, of Letraset Canada Ltd. in Canada, and of Esselte Letraset Ltd. elsewhere.
</metadata>
<defs>
<font id="UVFFuturaLT" horiz-adv-x="578" >
  <font-face 
    font-family="UVF Futura LT"
    font-weight="400"
    font-stretch="normal"
    units-per-em="1000"
    panose-1="2 0 5 3 0 0 0 0 0 0"
    ascent="800"
    descent="-200"
    x-height="468"
    cap-height="754"
    bbox="-163 -268 1113 1193"
    underline-thickness="75"
    underline-position="-150"
    unicode-range="U+0020-U+FB02"
  />
<missing-glyph horiz-adv-x="289" 
 />
    <glyph glyph-name=".notdef" horiz-adv-x="289" 
 />
    <glyph glyph-name="NULL" horiz-adv-x="0" 
 />
    <glyph glyph-name="nonmarkingreturn" horiz-adv-x="333" 
 />
    <glyph glyph-name="space" unicode=" " horiz-adv-x="289" 
 />
    <glyph glyph-name="exclam" unicode="!" horiz-adv-x="321" 
d="M219 42q0 -24 -17 -41t-41 -17t-41 17t-17 41q0 23 17 40.5t41 17.5t41 -17.5t17 -40.5zM116 754h90v-580h-90v580z" />
    <glyph glyph-name="quotedbl" unicode="&#x22;" horiz-adv-x="439" 
d="M188 754l-18 -328h-62l-18 328h98zM349 754l-18 -328h-62l-18 328h98z" />
    <glyph glyph-name="numbersign" unicode="#" 
d="M294 718l-36 -194h124l35 194h79l-35 -194h92v-80h-107l-27 -154h101v-80h-117l-38 -210h-76l37 210h-123l-40 -210h-75l37 210h-100v80h115l27 154h-105v80h119l36 194h77zM218 290h123l27 154h-123z" />
    <glyph glyph-name="dollar" unicode="$" 
d="M333 78q23 5 42 18t33 31t22 40.5t8 46.5q0 79 -105 135v-271zM283 860h50v-90q114 -10 171 -116l-79 -45q-28 54 -92 74v-235q90 -39 142.5 -92.5t52.5 -137.5q0 -83 -58 -153q-57 -70 -137 -81v-95h-50v95q-88 2 -153 62q-67 62 -80 148l90 19q13 -66 46 -99.5
t97 -41.5v300l-36 18q-35 18 -62 36.5t-45 40t-27.5 47.5t-9.5 59q0 75 52 133t128 64v90zM283 683q-40 -6 -66.5 -35t-26.5 -68q0 -71 93 -108v211z" />
    <glyph glyph-name="percent" unicode="%" horiz-adv-x="708" 
d="M69 719q52 51 124 51q71 0 124 -51q52 -49 52 -121q0 -71 -53 -121t-123 -50q-71 0 -124 50q-52 49 -52 121t52 121zM77 598q0 -45 34 -78t82 -33q46 0 81 33t35 78q0 46 -35 79t-81 33q-48 0 -82 -33t-34 -79zM597 744l-440 -760l-46 25l441 761zM392 276q52 51 124 51
q71 0 124 -51q52 -49 52 -121q0 -71 -53 -121t-123 -50q-71 0 -124 50q-52 49 -52 121t52 121zM400 155q0 -45 34 -78t82 -33q46 0 81 33t35 78q0 46 -35 79t-81 33q-48 0 -82 -33t-34 -79z" />
    <glyph glyph-name="ampersand" unicode="&#x26;" horiz-adv-x="692" 
d="M278 366q-1 -1 -20 -14l-16 -11t-8 -6t-8 -5.5t-14 -10.5q-17 -14 -23 -20t-18 -19t-17 -23q-4 -10 -8.5 -23.5t-4.5 -26.5q0 -54 43 -97q43 -42 97 -42q33 0 67 17t55 35t51 48l-167 204zM319 498q2 2 6.5 5.5t12.5 8.5q8 6 13.5 10.5t8.5 6.5l17 17q15 15 23.5 30.5
t8.5 37.5q0 39 -24.5 60.5t-63.5 21.5q-35 0 -59.5 -22.5t-24.5 -57.5q0 -18 8 -36.5t14 -28.5l9.5 -12l13.5 -17l25 -32zM510 102q-100 -118 -226 -118q-97 0 -164 63t-67 159q0 33 8.5 59.5t25 49.5t41 45t57.5 46l47 34q-83 88 -83 165q0 38 13 68.5t36 52t55 33t70 11.5
q73 0 123 -43q51 -42 51 -114q0 -61 -46 -110l-22 -21.5t-20.5 -18.5l-22 -18l-26.5 -20l157 -190l88 102l60 -62l-92 -108l135 -167h-116z" />
    <glyph glyph-name="quoteright" unicode="&#x2019;" horiz-adv-x="277" 
d="M217 739l-133 -267l-56 23l110 275z" />
    <glyph glyph-name="parenleft" unicode="(" horiz-adv-x="292" 
d="M235 754q-86 -181 -86 -446t86 -446l-74 -55q-53 104 -78 236q-26 136 -26 265t26 265q26 134 78 236z" />
    <glyph glyph-name="parenright" unicode=")" horiz-adv-x="292" 
d="M131 809q52 -102 78 -236q26 -136 26 -265t-26 -265q-25 -132 -78 -236l-74 55q86 181 86 446t-86 446z" />
    <glyph glyph-name="asterisk" unicode="*" horiz-adv-x="432" 
d="M253 754v-95l81 48l35 -59l-85 -50l85 -50l-35 -58l-81 50v-96h-69v97l-87 -49l-34 57l85 49l-84 50l31 57l89 -49v98h69z" />
    <glyph glyph-name="plus" unicode="+" 
d="M332 512v-213h213v-86h-213v-213h-86v213h-213v86h213v213h86z" />
    <glyph glyph-name="comma" unicode="," horiz-adv-x="289" 
d="M242 88l-133 -267l-55 23l110 275z" />
    <glyph glyph-name="hyphen" horiz-adv-x="332" 
d="M276 358v-75h-219v75h219z" />
    <glyph glyph-name="period" unicode="." horiz-adv-x="289" 
d="M203 42q0 -24 -17 -41t-41 -17t-41 17t-17 41q0 23 17 40.5t41 17.5t41 -17.5t17 -40.5z" />
    <glyph glyph-name="slash" unicode="/" horiz-adv-x="551" 
d="M520 836l-417 -962l-71 32l416 962z" />
    <glyph glyph-name="zero" unicode="0" 
d="M26 377q0 63 14.5 127.5t43.5 125.5q29 63 82.5 101.5t122.5 38.5t122.5 -38.5t82.5 -101.5q29 -61 43.5 -125.5t14.5 -127.5q0 -38 -6 -82.5t-19 -88t-33.5 -84t-50 -71t-68 -49t-86.5 -18.5t-86.5 18.5t-68 49t-50 71t-33.5 84t-19 87.5t-6 83zM372 656q-34 34 -83 34
t-84 -34q-35 -33 -53.5 -83.5t-27.5 -101.5q-8 -49 -8 -93t8 -93q9 -49 27.5 -100t53.5 -84q18 -17 39.5 -25t44 -8t44 8t39.5 25q18 16 31.5 38t23 46t16 50t10.5 50q9 49 9 93t-9 93q-8 50 -26.5 101t-54.5 84z" />
    <glyph glyph-name="one" unicode="1" 
d="M123 668l52 86h169v-754h-90v668h-131z" />
    <glyph glyph-name="two" unicode="2" 
d="M532 86v-86h-487l330 405q67 82 67 135q0 59 -45 101q-43 43 -103 43q-56 0 -99 -41q-42 -40 -46 -97h-94q6 51 25 92.5t49.5 70.5t72 45t92.5 16q97 0 168 -65q70 -64 70 -161q0 -85 -56 -155l-248 -303h304z" />
    <glyph glyph-name="three" unicode="3" 
d="M275 438q148 0 148 121q0 28 -10 52t-27 41t-41.5 26.5t-52.5 9.5q-51 0 -84 -29.5t-41 -78.5h-93q13 94 70 142t151 48q93 0 155 -56q63 -56 63 -147q0 -116 -96 -170q107 -51 107 -187q0 -104 -69 -165q-67 -61 -172 -61q-91 0 -159 56q-66 55 -71 146h91q3 -27 16 -49
t32.5 -38t44.5 -24.5t53 -8.5q63 0 103 43q41 44 41 105q0 72 -44.5 111.5t-114.5 34.5v78z" />
    <glyph glyph-name="four" unicode="4" 
d="M555 192v-82h-86v-110h-90v110h-372l462 676v-594h86zM379 503h-2l-212 -311h214v311z" />
    <glyph glyph-name="five" unicode="5" 
d="M291 668l-47 -155l53 3q106 0 174 -78q68 -79 68 -186q0 -118 -81 -193q-80 -75 -198 -75q-36 0 -70 9t-64.5 26.5t-55 42t-40.5 54.5l70 66q17 -47 66 -80q50 -32 101 -32q76 0 129 54q53 56 53 131q0 73 -54 126q-53 53 -126 53q-40 0 -78.5 -18t-62.5 -49h-18l116 387
h302v-86h-237z" />
    <glyph glyph-name="six" unicode="6" 
d="M447 724l-201 -272l2 -2q36 18 74 18q91 0 154 -72q64 -70 64 -164q0 -103 -73 -176q-74 -72 -176 -72q-98 0 -175 71q-76 72 -76 170q0 90 82 199l257 346zM290 68q65 0 112 46q48 46 48 108q0 69 -49 115q-50 47 -111 47q-62 0 -111 -48t-49 -109q0 -65 47 -112
q49 -47 113 -47z" />
    <glyph glyph-name="seven" unicode="7" 
d="M47 668v86h543l-470 -770l-73 45l390 639h-390z" />
    <glyph glyph-name="eight" unicode="8" 
d="M143 210q0 -56 45 -99q44 -43 101 -43t101 43q45 43 45 99q0 59 -44 100q-44 42 -102 42q-59 0 -102 -42q-44 -41 -44 -100zM53 210q0 63 31 112t88 69q-99 55 -99 169q0 91 62 150q63 60 154 60t153 -60q63 -59 63 -150q0 -114 -99 -169q57 -20 88 -69t31 -112
q0 -103 -69 -164q-68 -62 -167 -62q-98 0 -168 62q-68 62 -68 164zM161 560q0 -46 40 -87q41 -41 88 -41q46 0 87 41q41 43 41 87q0 54 -39 92q-38 38 -89 38q-50 0 -90 -38q-38 -38 -38 -92z" />
    <glyph glyph-name="nine" unicode="9" 
d="M145 31l201 271l-2 2q-30 -14 -73 -14q-92 0 -156 70q-63 70 -63 162q0 103 73 175q73 73 176 73q98 0 175 -72q76 -70 76 -169q0 -90 -82 -199l-257 -346zM302 370q70 0 115 47q45 46 45 111q0 60 -47 109q-46 49 -107 49q-67 0 -117 -47q-49 -46 -49 -111
q0 -66 49 -112t111 -46z" />
    <glyph glyph-name="colon" unicode=":" horiz-adv-x="289" 
d="M203 42q0 -24 -17 -41t-41 -17t-41 17t-17 41q0 23 17 40.5t41 17.5t41 -17.5t17 -40.5zM203 424q0 -24 -17 -41t-41 -17t-41 17t-17 41q0 23 17 40.5t41 17.5t41 -17.5t17 -40.5z" />
    <glyph glyph-name="semicolon" unicode=";" horiz-adv-x="289" 
d="M234 88l-133 -267l-55 23l110 275zM250 424q0 -24 -17 -41t-41 -17t-41 17t-17 41q0 23 17 40.5t41 17.5t41 -17.5t17 -40.5z" />
    <glyph glyph-name="less" unicode="&#x3c;" 
d="M545 404l-384 -148l384 -148v-94l-512 207v70l512 207v-94z" />
    <glyph glyph-name="equal" unicode="=" 
d="M545 385v-86h-512v86h512zM545 213v-86h-512v86h512z" />
    <glyph glyph-name="greater" unicode="&#x3e;" 
d="M33 498l512 -207v-70l-512 -207v94l384 148l-384 148v94z" />
    <glyph glyph-name="question" unicode="?" horiz-adv-x="453" 
d="M391 345q3 -63 -47 -113q-50 -48 -115 -48q-68 0 -114 46q-47 47 -47 114q0 32 8.5 55t24.5 39.5t39.5 29t53.5 23.5q3 1 8.5 3t11.5 4.5t12 4.5l9 3t7.5 3t11.5 4q13 6 18 9.5t15 9.5q32 23 32 64q0 42 -26 65.5t-66 23.5q-18 0 -33.5 -7t-27 -18.5t-18.5 -27t-7 -33.5
q0 -10 6 -32h-94l-2 33q-5 70 51 120t128 50q75 0 128 -51q52 -51 52 -126q0 -78 -54 -124q-33 -28 -124 -56q-73 -22 -73 -73q0 -30 20 -51t50 -21q32 0 52 22.5t19 54.5h91zM287 42q0 -24 -17 -41t-41 -17t-41 17t-17 41q0 23 17 40.5t41 17.5t41 -17.5t17 -40.5z" />
    <glyph glyph-name="at" unicode="@" horiz-adv-x="800" 
d="M503 372q7 60 -20.5 93.5t-81.5 33.5q-57 0 -95 -47q-37 -46 -37 -106q0 -23 7 -43.5t20.5 -36.5t31.5 -25t41 -9q62 0 94 39.5t40 100.5zM542 568h71l-50 -257q-9 -26 -9 -56q1 -30 23 -30q36 0 72 60t36 132q0 124 -77 198q-77 75 -193 75q-126 0 -213 -92
q-86 -92 -86 -221q0 -135 92 -224q94 -89 224 -89q129 0 186 48l75 -60q-66 -35 -122 -51q-60 -17 -147 -17q-164 0 -276 112t-112 281q0 167 110 280q111 113 272 113q139 0 235 -87q112 -97 112 -230q0 -130 -62 -212q-34 -45 -75 -67t-79 -20q-43 1 -54 62
q-62 -62 -136 -62q-67 0 -118 54q-50 56 -50 131q0 95 57 166q57 72 147 72q77 0 133 -71z" />
    <glyph glyph-name="A" unicode="A" horiz-adv-x="703" 
d="M179 189l-86 -189h-101l360 786l360 -786h-101l-86 189h-346zM352 580l-134 -305h268z" />
    <glyph glyph-name="B" unicode="B" horiz-adv-x="535" 
d="M158 420h24q39 0 69 6t51 20t31.5 38.5t10.5 61.5q0 36 -10.5 60t-31 38.5t-50 20t-68.5 5.5h-26v-250zM158 84h72q178 0 178 133q0 38 -17.5 64.5t-47.5 39.5t-61 18.5t-66 5.5h-58v-261zM64 754h92q58 0 104 -9t86 -31q42 -21 64 -63.5t22 -103.5q0 -21 -6 -43
t-16.5 -41.5t-25.5 -34.5t-33 -24v-2q64 -12 108 -68q43 -55 43 -123q0 -107 -76 -159t-186 -52h-176v754z" />
    <glyph glyph-name="C" unicode="C" horiz-adv-x="661" 
d="M621 610q-83 74 -199 74q-125 0 -212 -91q-86 -91 -86 -217q0 -125 85 -216q85 -90 211 -90q114 0 201 78v-111q-91 -53 -198 -53q-162 0 -278 113q-115 112 -115 276q0 166 117 282q116 115 284 115q107 0 190 -51v-109z" />
    <glyph glyph-name="D" unicode="D" horiz-adv-x="665" 
d="M64 754h156q184 0 303 -97q120 -96 120 -276q0 -185 -119 -283t-307 -98h-153v754zM158 86h33q73 0 138 14.5t113.5 49t77.5 90t29 137.5q0 81 -28.5 138.5t-79.5 89.5q-51 33 -112.5 48t-137.5 15h-33v-582z" />
    <glyph glyph-name="E" unicode="E" horiz-adv-x="521" 
d="M72 754h405v-86h-311v-211h302v-86h-302v-285h311v-86h-405v754z" />
    <glyph glyph-name="F" unicode="F" horiz-adv-x="474" 
d="M165 668v-212h262v-86h-262v-370h-94v754h365v-86h-271z" />
    <glyph glyph-name="G" unicode="G" horiz-adv-x="780" 
d="M759 380v-30q0 -158 -100 -262q-101 -104 -257 -104t-269 116q-112 116 -112 275q0 163 114 279q116 116 277 116q90 0 171 -38.5t136 -107.5l-66 -63q-42 57 -105 90t-132 33q-126 0 -214 -90q-87 -89 -87 -216q0 -120 86 -215q87 -93 207 -93q91 0 167 67q77 68 80 157
h-195v86h299z" />
    <glyph glyph-name="H" unicode="H" horiz-adv-x="675" 
d="M517 450v304h94v-754h-94v362h-359v-362h-94v754h94v-304h359z" />
    <glyph glyph-name="I" unicode="I" horiz-adv-x="232" 
d="M163 0h-94v754h94v-754z" />
    <glyph glyph-name="J" unicode="J" horiz-adv-x="362" 
d="M303 754v-479q0 -61 -7.5 -107.5t-28.5 -91.5q-20 -44 -63 -68q-42 -24 -105 -24t-118 33l47 80q32 -25 75 -25q22 0 39.5 8t28.5 18t19 30t11 34q4 13 6 40q1 13 1.5 22.5t0.5 14.5v36v479h94z" />
    <glyph glyph-name="K" unicode="K" horiz-adv-x="600" 
d="M486 754h123l-339 -339l345 -415h-127l-284 351l-38 -36v-315h-94v754h94v-327z" />
    <glyph glyph-name="L" unicode="L" horiz-adv-x="414" 
d="M166 86h229v-86h-323v754h94v-668z" />
    <glyph glyph-name="M" unicode="M" horiz-adv-x="851" 
d="M200 498h-2l-88 -498h-97l154 786l259 -594l259 594l154 -786h-97l-88 498h-2l-226 -514z" />
    <glyph glyph-name="N" unicode="N" horiz-adv-x="785" 
d="M63 790l566 -593v557h94v-785l-566 593v-562h-94v790z" />
    <glyph glyph-name="O" unicode="O" horiz-adv-x="828" 
d="M809 377q0 -168 -115 -280q-116 -113 -280 -113t-280 113q-115 112 -115 280q0 161 116 277q118 116 279 116q162 0 278 -116q117 -116 117 -277zM715 377q0 127 -86 216t-215 89q-130 0 -216 -89q-85 -88 -85 -216t89 -217q88 -88 212 -88t212 88q89 89 89 217z" />
    <glyph glyph-name="P" unicode="P" horiz-adv-x="495" 
d="M166 0h-94v754h108q168 0 235 -55q69 -54 69 -163q0 -112 -74 -166t-190 -54h-54v-316zM166 400h30q42 0 73 5t62 18q31 14 48 43t17 72q0 42 -18 70t-51 40q-33 13 -63.5 17.5t-72.5 4.5h-25v-270z" />
    <glyph glyph-name="Q" unicode="Q" horiz-adv-x="828" 
d="M694 -16l-65 67q-97 -67 -215 -67q-164 0 -280 113q-115 112 -115 280q0 161 116 277q118 116 279 116q162 0 278 -116q117 -116 117 -277q0 -81 -30.5 -152.5t-87.5 -125.5l117 -115h-114zM627 166q21 18 37.5 43t27.5 52.5t17 57t6 58.5q0 127 -86 216t-215 89
q-130 0 -216 -89q-85 -88 -85 -216t89 -217q88 -88 212 -88q83 0 150 43l-173 169h117z" />
    <glyph glyph-name="R" unicode="R" horiz-adv-x="543" 
d="M541 0h-114l-222 319h-39v-319h-94v754h114q22 0 39 -0.5t30 -1.5q26 -1 64 -9q37 -8 66 -24q46 -27 72.5 -76t26.5 -104q0 -81 -50 -142q-49 -58 -131 -69zM166 397h30q42 0 73 5t62 18q31 14 48 43t17 72q0 135 -205 135h-25v-273z" />
    <glyph glyph-name="S" unicode="S" horiz-adv-x="537" 
d="M407 611q-42 71 -121 71q-48 0 -87 -30t-39 -77q0 -68 105 -108l54 -21q45 -18 80 -39t58.5 -48t36 -61.5t12.5 -78.5q0 -102 -70 -169q-69 -66 -171 -66q-91 0 -156 59q-65 60 -77 152l95 20q-1 -61 41 -102q44 -41 105 -41q60 0 99 43q40 43 40 104q0 55 -34.5 86.5
t-95.5 56.5l-52 22q-39 16 -69.5 34.5t-51.5 41.5t-32 51t-11 64q0 88 66 141q66 54 156 54q129 0 194 -114z" />
    <glyph glyph-name="T" unicode="T" horiz-adv-x="456" 
d="M275 0h-94v668h-179v86h452v-86h-179v-668z" />
    <glyph glyph-name="U" unicode="U" horiz-adv-x="669" 
d="M153 754v-445q0 -237 182 -237t182 237v445h94v-477q0 -129 -75 -211q-73 -82 -201 -82q-127 0 -202 82q-74 83 -74 211v477h94z" />
    <glyph glyph-name="V" unicode="V" horiz-adv-x="640" 
d="M321 196l224 558h103l-327 -794l-328 794h103z" />
    <glyph glyph-name="W" unicode="W" horiz-adv-x="1027" 
d="M301 214l213 556l213 -556l211 540h102l-313 -784l-213 553l-213 -553l-313 784h102z" />
    <glyph glyph-name="X" unicode="X" horiz-adv-x="574" 
d="M29 754h107l154 -275l164 275h107l-217 -359l229 -395h-105l-178 309l-185 -309h-105l237 395z" />
    <glyph glyph-name="Y" unicode="Y" horiz-adv-x="593" 
d="M-6 754h108l185 -322l185 322h108l-246 -426v-328h-94v328z" />
    <glyph glyph-name="Z" unicode="Z" horiz-adv-x="552" 
d="M544 86v-86h-535l382 668h-328v86h481l-382 -668h382z" />
    <glyph glyph-name="bracketleft" unicode="[" horiz-adv-x="311" 
d="M153 -109h98v-84h-190v1002h190v-84h-98v-834z" />
    <glyph glyph-name="backslash" unicode="\" horiz-adv-x="551" 
d="M115 868l404 -868h-84l-404 868h84z" />
    <glyph glyph-name="bracketright" unicode="]" horiz-adv-x="311" 
d="M158 725h-98v84h190v-1002h-190v84h98v834z" />
    <glyph glyph-name="asciicircum" unicode="^" 
d="M233 754h112l200 -446h-94l-162 362l-163 -362h-93z" />
    <glyph glyph-name="underscore" unicode="_" horiz-adv-x="500" 
d="M500 -188h-500v75h500v-75z" />
    <glyph glyph-name="quoteleft" unicode="&#x2018;" horiz-adv-x="277" 
d="M60 503l133 267l56 -23l-110 -275z" />
    <glyph glyph-name="a" unicode="a" horiz-adv-x="556" 
d="M264 64q71 0 111 49q41 50 41 121q0 70 -41 119q-40 49 -111 49q-67 0 -108 -50q-40 -49 -40 -118q0 -71 40 -120q41 -50 108 -50zM501 0h-90v73h-2q-60 -89 -159 -89q-103 0 -164 73q-60 73 -60 180q0 101 61 172q61 73 160 73q100 0 162 -92h2v78h90v-468z" />
    <glyph glyph-name="b" unicode="b" horiz-adv-x="556" 
d="M288 64q71 0 111 49q41 50 41 121q0 70 -41 119q-40 49 -111 49q-67 0 -108 -50q-40 -49 -40 -118q0 -71 40 -120q41 -50 108 -50zM55 868h90v-478h2q62 92 163 92q98 0 159 -73q61 -71 61 -172q0 -107 -60 -180t-164 -73q-48 0 -89.5 23.5t-69.5 65.5h-2v-73h-90v868z
" />
    <glyph glyph-name="c" unicode="c" horiz-adv-x="441" 
d="M406 335q-56 63 -134 63q-65 0 -111 -49q-45 -50 -45 -115q0 -73 45 -119q47 -47 117 -47q72 0 128 62v-115q-58 -31 -129 -31q-104 0 -178 71q-73 70 -73 175q0 108 73 180t183 72q72 0 124 -31v-116z" />
    <glyph glyph-name="d" unicode="d" horiz-adv-x="556" 
d="M264 64q71 0 111 49q41 50 41 121q0 70 -41 119q-40 49 -111 49q-67 0 -108 -50q-40 -49 -40 -118q0 -71 40 -120q41 -50 108 -50zM411 73h-2q-28 -42 -69.5 -65.5t-89.5 -23.5q-104 0 -164 73t-60 180q0 101 61 172q61 73 159 73q101 0 163 -92h2v478h90v-868h-90v73z
" />
    <glyph glyph-name="e" unicode="e" horiz-adv-x="488" 
d="M116 219q2 -63 40 -109q39 -46 101 -46q49 0 80.5 22.5t59.5 68.5l76 -43q-33 -60 -90.5 -94t-126.5 -34q-105 0 -168 70q-62 71 -62 176q0 111 59 182q58 70 169 70q108 0 163 -70q56 -70 56 -179v-14h-357zM383 287q-8 54 -41.5 85.5t-87.5 31.5q-26 0 -48.5 -8.5
t-40 -24.5t-29 -37.5t-15.5 -46.5h262z" />
    <glyph glyph-name="f" unicode="f" horiz-adv-x="275" 
d="M294 777q-42 19 -60 19q-29 0 -42 -18.5t-18 -45.5q-3 -20 -3.5 -31.5t-0.5 -31.5v-201h124v-84h-124v-384h-90v384h-41v84h41v228q0 184 151 184q33 0 63 -12v-91z" />
    <glyph glyph-name="g" unicode="g" horiz-adv-x="555" 
d="M263 64q71 0 111 49q41 50 41 121q0 70 -41 119q-40 49 -111 49q-67 0 -108 -50q-40 -49 -40 -118q0 -71 40 -120q41 -50 108 -50zM500 9q0 -132 -50 -205q-50 -72 -178 -72q-99 0 -162 57q-62 57 -64 155h90q0 -63 38.5 -97.5t101.5 -34.5q77 0 105.5 45t28.5 127v89h-2
q-28 -42 -69.5 -65.5t-89.5 -23.5q-104 0 -164 73t-60 180q0 101 61 172q61 73 159 73q103 0 163 -94h2v80h90v-459z" />
    <glyph glyph-name="h" unicode="h" horiz-adv-x="523" 
d="M152 868v-463h2q20 37 58 57t83 20q46 0 78 -14t51.5 -40t28 -63.5t8.5 -85.5v-279h-90v268q0 69 -20 101q-20 33 -83 33q-23 0 -39 -4.5t-28 -13t-20 -19.5t-15 -24q-3 -7 -5.5 -18t-4.5 -22.5t-3 -23t-1 -18.5v-44v-215h-90v868h90z" />
    <glyph glyph-name="i" unicode="i" horiz-adv-x="254" 
d="M172 0h-90v468h90v-468zM189 682q0 -25 -18 -43t-44 -18t-44 18t-18 43q0 26 18 44.5t44 18.5t44 -18.5t18 -44.5z" />
    <glyph glyph-name="j" unicode="j" horiz-adv-x="254" 
d="M172 -268h-90v736h90v-736zM189 682q0 -25 -18 -43t-44 -18t-44 18t-18 43q0 26 18 44.5t44 18.5t44 -18.5t18 -44.5z" />
    <glyph glyph-name="k" unicode="k" horiz-adv-x="462" 
d="M158 292l176 176h119l-200 -194l220 -274h-117l-167 213l-31 -31v-182h-90v868h90v-576z" />
    <glyph glyph-name="l" unicode="l" horiz-adv-x="222" 
d="M156 0h-90v868h90v-868z" />
    <glyph glyph-name="m" unicode="m" horiz-adv-x="767" 
d="M149 409h2q20 32 53.5 52.5t70.5 20.5q87 0 135 -83q22 38 60.5 60.5t83.5 22.5q155 0 155 -202v-280h-90v265q0 18 -1.5 35.5t-5.5 34t-12 30.5t-22 25q-18 12 -46 12t-48 -12q-19 -11 -29.5 -27.5t-16.5 -41.5t-7.5 -45t-1.5 -46v-230h-90v248q0 24 -1 40t-6 40
q-5 26 -13 38q-8 14 -25 25t-41 11q-69 0 -89 -60q-9 -28 -12 -53t-3 -59v-230h-90v468h90v-59z" />
    <glyph glyph-name="n" unicode="n" horiz-adv-x="523" 
d="M152 405h2q20 37 58 57t83 20q46 0 78 -14t51.5 -40t28 -63.5t8.5 -85.5v-279h-90v268q0 69 -20 101q-20 33 -83 33q-23 0 -39 -4.5t-28 -13t-20 -19.5t-15 -24q-3 -7 -5.5 -18t-4.5 -22.5t-3 -23t-1 -18.5v-44v-215h-90v468h90v-63z" />
    <glyph glyph-name="o" unicode="o" horiz-adv-x="540" 
d="M92 410q73 72 178 72t177 -72q73 -72 73 -177t-73 -177q-72 -72 -177 -72t-178 72q-72 72 -72 177t72 177zM110 233q0 -65 47 -115q46 -48 113 -48q66 0 113 48q47 50 47 115q0 66 -47 115q-47 48 -113 48q-67 0 -113 -48q-47 -49 -47 -115z" />
    <glyph glyph-name="p" unicode="p" horiz-adv-x="556" 
d="M288 64q71 0 111 49q41 50 41 121q0 70 -41 119q-40 49 -111 49q-67 0 -108 -50q-40 -49 -40 -118q0 -71 40 -120q41 -50 108 -50zM145 390h2q62 92 163 92q98 0 159 -73q61 -71 61 -172q0 -107 -60 -180t-164 -73q-48 0 -89.5 23.5t-69.5 65.5h-2v-341h-90v736h90v-78z
" />
    <glyph glyph-name="q" unicode="q" horiz-adv-x="556" 
d="M264 64q71 0 111 49q41 50 41 121q0 70 -41 119q-40 49 -111 49q-67 0 -108 -50q-40 -49 -40 -118q0 -71 40 -120q41 -50 108 -50zM501 -268h-90v341h-2q-28 -42 -69.5 -65.5t-89.5 -23.5q-104 0 -164 73t-60 180q0 101 61 172q61 73 159 73q101 0 163 -92h2v78h90v-736z
" />
    <glyph glyph-name="r" unicode="r" horiz-adv-x="351" 
d="M158 392h3q17 42 50 66t78 24q37 0 74 -23l-41 -82q-22 19 -55 19q-69 0 -92 -56q-10 -26 -13.5 -51.5t-3.5 -58.5v-230h-90v468h90v-76z" />
    <glyph glyph-name="s" unicode="s" horiz-adv-x="384" 
d="M250 361q-20 41 -60 41q-19 0 -34 -13.5t-15 -32.5q0 -18 11.5 -30.5t31.5 -23.5q13 -6 20 -9.5t23 -10.5q8 -4 14 -6t9 -4q50 -23 79 -53t29 -80q0 -66 -48 -111q-47 -44 -113 -44q-27 0 -52 7.5t-46.5 21t-38 33t-25.5 43.5l77 35q33 -60 85 -60q21 0 39 11.5t26.5 29
t3.5 38t-31 38.5l-88 47q-23 12 -40 24t-28 25.5t-16.5 30t-5.5 38.5q0 57 40 96q40 40 98 40q88 0 128 -82z" />
    <glyph glyph-name="t" unicode="t" horiz-adv-x="240" 
d="M165 0h-90v384h-49v84h49v179h90v-179h88v-84h-88v-384z" />
    <glyph glyph-name="u" unicode="u" horiz-adv-x="512" 
d="M148 468v-259q0 -66 23.5 -103.5t84.5 -37.5t84.5 37.5t23.5 103.5v259h90v-269q0 -100 -49 -157.5t-149 -57.5t-149 57.5t-49 157.5v269h90z" />
    <glyph glyph-name="v" unicode="v" horiz-adv-x="445" 
d="M222 176l135 292h101l-236 -484l-235 484h101z" />
    <glyph glyph-name="w" unicode="w" horiz-adv-x="718" 
d="M222 170l138 324l137 -324l136 298h102l-238 -484l-137 313l-138 -313l-238 484h102z" />
    <glyph glyph-name="x" unicode="x" horiz-adv-x="489" 
d="M27 468h106l111 -151l121 151h109l-172 -214l201 -254h-105l-154 190l-149 -190h-109l209 254z" />
    <glyph glyph-name="y" unicode="y" horiz-adv-x="484" 
d="M-13 468h105l158 -297l147 297h101l-379 -736h-102l184 348z" />
    <glyph glyph-name="z" unicode="z" horiz-adv-x="495" 
d="M481 84v-84h-479l317 384h-263v84h438l-317 -384h304z" />
    <glyph glyph-name="braceleft" unicode="{" horiz-adv-x="334" 
d="M48 344q75 33 75 151v182q0 55 29 93q30 39 56 39h78v-84h-40q-23 -5 -27 -19t-4 -43v-184q0 -52 -18 -94q-18 -41 -32 -55l-13 -12.5t-13 -10.5q8 -5 18 -15t24 -30q15 -19 24.5 -52.5t9.5 -73.5v-184q0 -29 4 -43t27 -19h40v-84h-78q-26 0 -56 39q-29 38 -29 93v182
q0 118 -75 151v73z" />
    <glyph glyph-name="bar" unicode="|" horiz-adv-x="570" 
d="M328 0h-86v868h86v-868z" />
    <glyph glyph-name="braceright" unicode="}" horiz-adv-x="334" 
d="M286 271q-75 -33 -75 -151v-182q0 -56 -30 -93q-29 -39 -55 -39h-78v84h40q23 5 27 19t4 43v184q0 40 9.5 73.5t23.5 52.5q15 20 25 30t18 15q-6 4 -12.5 9.5t-13.5 13.5t-15 21t-17 34q-18 42 -18 94v184q0 29 -4 43t-27 19h-40v84h78q26 0 55 -39q30 -38 30 -93v-182
q0 -118 75 -151v-73z" />
    <glyph glyph-name="asciitilde" unicode="~" 
d="M545 284q-68 -122 -152 -122q-40 0 -115 51l-21 14.5l-21 14.5q-4 2 -8 5t-9 6q-18 11 -31 11q-24 0 -45 -20t-47 -62l-63 45l18.5 27t11.5 16q5 5 12.5 14t18.5 21q22 25 44.5 35t47.5 10q54 0 122 -51q6 -5 18.5 -14.5t18.5 -14.5q4 -2 7.5 -5t8.5 -6q16 -11 31 -11
q24 0 39.5 17t39.5 57q2 4 4 7t3 5z" />
    <glyph glyph-name="exclamdown" unicode="&#xa1;" horiz-adv-x="321" 
d="M219 450q0 -24 -17 -41t-41 -17t-41 17t-17 41q0 23 17 40.5t41 17.5t41 -17.5t17 -40.5zM206 323v-581h-90v581h90z" />
    <glyph glyph-name="cent" unicode="&#xa2;" 
d="M356 628q75 -5 122 -31v-115h-2q-47 61 -120 63v-328q73 10 122 62v-117q-48 -23 -105 -28l-17 -1v-85h-48v89q-92 13 -150 81q-58 67 -58 159q0 94 58 164q59 72 150 85v78h48v-76zM308 539q-51 -6 -86 -56q-34 -49 -34 -102q0 -57 33 -103q34 -48 87 -58v319z" />
    <glyph glyph-name="sterling" unicode="&#xa3;" 
d="M11 24q31 54 65.5 82.5t88.5 30.5q30 99 -8 164h-129v58h100q-58 109 -58 180q0 95 75 163q77 68 172 68q105 0 170 -65q66 -66 70 -169l-90 -34v28q0 63 -42 107q-41 45 -104 45q-62 0 -111 -48q-50 -47 -50 -103q0 -24 8 -50t16 -42l11 -18.5l14 -24.5l13.5 -22.5
l8.5 -14.5h148v-58h-124q25 -84 0 -172l74 -26q3 -1 10.5 -4l17 -7t19 -7.5l17.5 -6.5q15 -4 30 -4q19 0 36.5 13.5t25.5 25.5q5 7 10 15.5l11 19.5l75 -46q-23 -54 -62.5 -86t-93.5 -32q-49 0 -131 33q-81 32 -116 32q-62 0 -88 -65z" />
    <glyph glyph-name="fraction" unicode="&#x2044;" horiz-adv-x="165" 
d="M328 744l-440 -760l-51 28l440 758z" />
    <glyph glyph-name="yen" unicode="&#xa5;" 
d="M336 0h-94v260h-236v58h236v10l-54 94h-182v58h148l-158 274h108l185 -322l185 322h108l-158 -274h148v-58h-181l-55 -94v-10h236v-58h-236v-260z" />
    <glyph glyph-name="florin" unicode="&#x192;" 
d="M484 505l-9 -68h-131l-55 -303q-3 -21 -6 -37l-6 -30.5t-7 -28.5t-10 -31q-10 -33 -21.5 -53t-30.5 -42q-49 -61 -170 -61h-24l15 86h19q42 -3 69 16t41 42q9 12 17 41q4 14 6.5 24.5l4.5 18.5t4 20.5t5 29.5l53 308h-65l9 68h70l21 124q16 100 60 153q43 54 137 54
q35 0 60 -7l-16 -84q-15 6 -31 6.5t-31 -2.5t-27.5 -9.5t-20.5 -14.5q-9 -10 -17.5 -32t-11.5 -35q-2 -6 -4 -16t-4 -24l-22 -113h129z" />
    <glyph glyph-name="section" unicode="&#xa7;" 
d="M389 248q27 17 43.5 46t16.5 59q0 32 -19.5 51t-56.5 37l-184 93q-27 -17 -43.5 -46t-16.5 -60q0 -18 6.5 -32.5t21.5 -26.5l26 -17.5t31 -16.5zM169 261l-29 15.5t-22 12.5t-19.5 13t-19.5 16q-21 19 -30 43t-9 57q0 90 96 162q-44 50 -44 111q0 75 57 126q58 51 134 51
q80 0 137 -45q58 -45 62 -123h-87q-1 21 -10.5 37.5t-25 28t-35.5 17.5t-41 6t-39.5 -8t-32 -21.5t-21.5 -31.5t-8 -39q0 -36 22.5 -59t62.5 -42l133 -67l27 -14t22 -12.5l20 -13.5l22 -16q47 -35 47 -93q0 -49 -24.5 -94t-64.5 -75q53 -50 53 -122q0 -87 -63 -139
q-63 -54 -150 -54q-99 0 -163 58q-63 58 -63 157v15h89q-2 -62 36 -105q37 -43 100 -43q48 0 86 32t38 81q0 41 -35 69l-16 12t-14 9t-16 8.5l-21 10.5z" />
    <glyph glyph-name="currency" unicode="&#xa4;" 
d="M568 644q-65 40 -158 40q-106 0 -164 -64q-59 -65 -75 -160h357l-14 -58h-351q-1 -8 -1 -14.5v-11.5q0 -25 4 -48h323l-14 -58h-299q19 -85 76 -143q58 -57 156 -57q48 0 83 10.5t77 39.5v-101q-65 -35 -157 -35q-132 0 -221 73q-91 74 -113 213h-77l14 58h56
q-1 18 -1.5 29t-0.5 16v14t1 15h-68l14 58h60q25 151 118 230q95 80 226 80q20 0 43 -2.5t45.5 -8t43.5 -13t38 -17.5z" />
    <glyph glyph-name="quotesingle" unicode="'" horiz-adv-x="277" 
d="M188 754l-18 -328h-62l-18 328h98z" />
    <glyph glyph-name="quotedblleft" unicode="&#x201c;" horiz-adv-x="439" 
d="M226 503l133 267l56 -23l-110 -275zM60 503l133 267l56 -23l-110 -275z" />
    <glyph glyph-name="guillemotleft" unicode="&#xab;" horiz-adv-x="523" 
d="M460 129l-56 -41l-182 232l182 240l56 -41l-149 -199zM268 129l-56 -41l-182 232l182 240l56 -41l-149 -199z" />
    <glyph glyph-name="guilsinglleft" unicode="&#x2039;" horiz-adv-x="336" 
d="M260 129l-56 -41l-182 232l182 240l56 -41l-149 -199z" />
    <glyph glyph-name="guilsinglright" unicode="&#x203a;" horiz-adv-x="336" 
d="M225 320l-149 199l56 41l182 -240l-182 -232l-56 41z" />
    <glyph glyph-name="fi" unicode="&#xfb01;" horiz-adv-x="512" 
d="M430 0h-90v468h90v-468zM447 682q0 -25 -18 -43t-44 -18t-44 18t-18 43q0 26 18 44.5t44 18.5t44 -18.5t18 -44.5zM294 777q-42 19 -60 19q-29 0 -42 -18.5t-18 -45.5q-3 -20 -3.5 -31.5t-0.5 -31.5v-201h124v-84h-124v-384h-90v384h-41v84h41v228q0 184 151 184
q33 0 63 -12v-91z" />
    <glyph glyph-name="fl" unicode="&#xfb02;" horiz-adv-x="497" 
d="M431 0h-90v868h90v-868zM294 777q-42 19 -60 19q-29 0 -42 -18.5t-18 -45.5q-3 -20 -3.5 -31.5t-0.5 -31.5v-201h124v-84h-124v-384h-90v384h-41v84h41v228q0 184 151 184q33 0 63 -12v-91z" />
    <glyph glyph-name="endash" unicode="&#x2013;" horiz-adv-x="500" 
d="M500 358v-75h-500v75h500z" />
    <glyph glyph-name="dagger" unicode="&#x2020;" 
d="M334 868v-275h181v-86h-181v-595h-90v595h-181v86h181v275h90z" />
    <glyph glyph-name="daggerdbl" unicode="&#x2021;" 
d="M334 868v-239h181v-86h-181v-122h181v-86h-181v-422h-90v422h-181v86h181v122h-181v86h181v239h90z" />
    <glyph glyph-name="periodcentered" unicode="&#xb7;" horiz-adv-x="289" 
d="M203 256q0 -24 -17 -41t-41 -17t-41 17t-17 41q0 23 17 40.5t41 17.5t41 -17.5t17 -40.5z" />
    <glyph glyph-name="paragraph" unicode="&#xb6;" 
d="M538 670h-61v-823h-84v823h-62v-823h-84v436q-86 0 -143 57q-56 57 -63 157q-7 94 56 176q64 81 159 81h282v-84z" />
    <glyph glyph-name="bullet" unicode="&#x2022;" 
d="M101 377q-1 79 54 134t134 55t134 -55t55 -134q0 -77 -56 -133q-55 -55 -133 -55t-133 55t-55 133z" />
    <glyph glyph-name="quotesinglbase" unicode="&#x201a;" horiz-adv-x="277" 
d="M242 88l-133 -267l-55 23l110 275z" />
    <glyph glyph-name="quotedblbase" unicode="&#x201e;" horiz-adv-x="439" 
d="M238 88l-133 -267l-55 23l110 275zM404 88l-133 -267l-55 23l110 275z" />
    <glyph glyph-name="quotedblright" unicode="&#x201d;" horiz-adv-x="439" 
d="M213 739l-133 -267l-56 23l110 275zM379 739l-133 -267l-56 23l110 275z" />
    <glyph glyph-name="guillemotright" unicode="&#xbb;" horiz-adv-x="523" 
d="M212 320l-149 199l56 41l182 -240l-182 -232l-56 41zM404 320l-149 199l56 41l182 -240l-182 -232l-56 41z" />
    <glyph glyph-name="ellipsis" unicode="&#x2026;" horiz-adv-x="1000" 
d="M558 42q0 -24 -17 -41t-41 -17t-41 17t-17 41q0 23 17 40.5t41 17.5t41 -17.5t17 -40.5zM892 42q0 -24 -17 -41t-41 -17t-41 17t-17 41q0 23 17 40.5t41 17.5t41 -17.5t17 -40.5zM224 42q0 -24 -17 -41t-41 -17t-41 17t-17 41q0 23 17 40.5t41 17.5t41 -17.5t17 -40.5z
" />
    <glyph glyph-name="perthousand" unicode="&#x2030;" horiz-adv-x="1110" 
d="M74 719q52 51 124 51q71 0 124 -51q52 -49 52 -121q0 -71 -53 -121t-123 -50q-71 0 -124 50q-52 49 -52 121t52 121zM82 598q0 -45 34 -78t82 -33q46 0 81 33t35 78q0 46 -35 79t-81 33q-48 0 -82 -33t-34 -79zM602 744l-440 -760l-46 25l441 761zM397 276q52 51 124 51
q71 0 124 -51q52 -49 52 -121q0 -71 -53 -121t-123 -50q-71 0 -124 50q-52 49 -52 121t52 121zM405 155q0 -45 34 -78t82 -33q46 0 81 33t35 78q0 46 -35 79t-81 33q-48 0 -82 -33t-34 -79zM789 276q52 51 124 51q71 0 124 -51q52 -49 52 -121q0 -71 -53 -121t-123 -50
q-71 0 -124 50q-52 49 -52 121t52 121zM797 155q0 -45 34 -78t82 -33q46 0 81 33t35 78q0 46 -35 79t-81 33q-48 0 -82 -33t-34 -79z" />
    <glyph glyph-name="questiondown" unicode="&#xbf;" horiz-adv-x="453" 
d="M61 157q-3 64 47 112q49 49 115 49q67 0 114 -47t47 -113q0 -32 -8.5 -55t-24.5 -39.5t-39.5 -29t-53.5 -23.5q-3 -1 -8.5 -3t-11.5 -4.5t-12 -4.5l-9 -3t-7.5 -3t-11.5 -4q-13 -6 -18 -9.5t-15 -9.5q-32 -23 -32 -64q0 -42 26 -65.5t66 -23.5q18 0 33.5 7t27 18.5
t18.5 27t7 33.5q0 9 -6 32h94l2 -33q4 -71 -51 -120q-56 -50 -128 -50q-76 0 -128 51t-52 126q0 77 54 124q33 28 124 56q73 22 73 73q0 30 -20 51t-50 21q-32 0 -52 -22.5t-19 -54.5h-91zM281 450q0 -24 -17 -41t-41 -17t-41 17t-17 41q0 23 17 40.5t41 17.5t41 -17.5
t17 -40.5z" />
    <glyph glyph-name="grave" unicode="`" horiz-adv-x="360" 
d="M159 734l125 -166l-44 -27l-164 149z" />
    <glyph glyph-name="acute" unicode="&#xb4;" horiz-adv-x="360" 
d="M284 690l-164 -149l-44 27l125 166z" />
    <glyph glyph-name="circumflex" unicode="&#x2c6;" horiz-adv-x="470" 
d="M234 734l161 -145l-59 -46l-102 96l-101 -96l-58 46z" />
    <glyph glyph-name="tilde" unicode="&#x2dc;" horiz-adv-x="510" 
d="M64 613l3 5q17 24 29 38t33 26t46 12q40 0 89 -26q49 -27 72 -27q35 0 64 48l47 -39q-40 -82 -118 -82q-28 0 -83 26q-53 25 -78 25q-17 0 -32.5 -14t-24.5 -32z" />
    <glyph glyph-name="macron" unicode="&#xaf;" horiz-adv-x="500" 
d="M431 694v-68h-361v68h361z" />
    <glyph glyph-name="breve" unicode="&#x2d8;" horiz-adv-x="490" 
d="M143 694q31 -75 102 -75q39 0 62.5 18.5t40.5 56.5h71q-10 -61 -61 -102q-50 -39 -113 -39q-64 0 -113 39q-49 40 -61 102h72z" />
    <glyph glyph-name="dotaccent" unicode="&#x2d9;" horiz-adv-x="360" 
d="M120 634q0 25 18 42.5t43 17.5t42.5 -17.5t17.5 -42.5t-17.5 -43t-42.5 -18t-43 17.5t-18 43.5z" />
    <glyph glyph-name="dieresis" unicode="&#xa8;" horiz-adv-x="470" 
d="M130 573q-26 0 -43.5 17.5t-17.5 43.5q-1 19 10 33.5t27.5 21t35 4.5t30.5 -17q15 -12 17 -30.5t-4.5 -35t-21 -27.5t-33.5 -10zM280 634q0 25 18 42.5t43 17.5t42.5 -17.5t17.5 -42.5t-17.5 -43t-42.5 -18t-43 17.5t-18 43.5z" />
    <glyph glyph-name="ring" unicode="&#x2da;" horiz-adv-x="360" 
d="M180 734q29 2 51 -15t32.5 -41.5t6.5 -52t-26 -46.5q-19 -21 -46.5 -24.5t-52 6.5t-41 31.5t-14.5 50.5q0 19 7 35.5t19.5 29t29 19.5t34.5 7zM180 598q19 0 32.5 13t13.5 32t-13.5 32.5t-32.5 13.5q-18 0 -31.5 -13.5t-13.5 -32.5t13.5 -32t31.5 -13z" />
    <glyph glyph-name="cedilla" unicode="&#xb8;" horiz-adv-x="330" 
d="M139 -181l-53 27l87 137l71 -29z" />
    <glyph glyph-name="hungarumlaut" unicode="&#x2dd;" horiz-adv-x="470" 
d="M432 681l-164 -149l-44 27l125 166zM246 690l-164 -149l-44 27l125 166z" />
    <glyph glyph-name="ogonek" unicode="&#x2db;" horiz-adv-x="340" 
d="M211 -16v-2q-61 -40 -61 -85q0 -47 56 -47q31 0 50 13l-7 -58q-28 -17 -64 -17q-20 0 -38 5.5t-32 16t-22.5 26t-8.5 34.5q0 64 81 114h46z" />
    <glyph glyph-name="caron" unicode="&#x2c7;" horiz-adv-x="472" 
d="M134 734l101 -96l102 96l59 -46l-161 -145l-159 145z" />
    <glyph glyph-name="emdash" unicode="&#x2014;" horiz-adv-x="1000" 
d="M1000 358v-75h-1000v75h1000z" />
    <glyph glyph-name="AE" unicode="&#xc6;" horiz-adv-x="997" 
d="M189 189l-86 -189h-103l362 754h330l38 -86h-309l91 -211h301l40 -86h-302l121 -285h311l38 -86h-406l-83 189h-343zM367 567l-138 -292h268z" />
    <glyph glyph-name="ordfeminine" unicode="&#xaa;" horiz-adv-x="334" 
d="M167 519q46 0 72.5 29.5t26.5 72.5t-26.5 72t-72.5 29q-21 0 -39 -8t-30.5 -22t-19.5 -32t-7 -39q0 -42 25.5 -72t70.5 -30zM322 481h-59v43h-2q-39 -53 -103 -53q-33 0 -60 12t-46 32.5t-29.5 48t-10.5 59.5q0 60 40 103q41 44 104 44q64 0 106 -55h-1h2v46h59v-280z
M12 368v48h310v-48h-310z" />
    <glyph glyph-name="Lslash" unicode="&#x141;" horiz-adv-x="385" 
d="M166 470l118 83v-96l-118 -79v-292h229v-86h-323v320l-81 -58v97l81 54v341h94v-284z" />
    <glyph glyph-name="Oslash" unicode="&#xd8;" horiz-adv-x="828" 
d="M715 629q94 -116 94 -252q0 -168 -115 -280q-116 -113 -280 -113q-138 0 -260 95l-100 -100l-41 42l99 99q-93 103 -93 257q0 161 116 277q118 116 279 116q72 0 141 -26t120 -74l100 100l40 -41zM610 609q-77 75 -196 73q-130 0 -216 -89q-85 -88 -85 -216
q0 -110 65 -196zM223 142q73 -70 191 -70q124 0 212 88q89 89 89 217q0 105 -66 189z" />
    <glyph glyph-name="OE" unicode="&#x152;" horiz-adv-x="1143" 
d="M718 126h-2q-51 -69 -130 -106t-172 -36q-164 0 -280 113q-115 112 -115 280q0 161 116 277q118 116 279 116q45 -2 89 -12t83 -29t72.5 -46t57.5 -61h2v132h395v-86h-310v-211h301v-86h-301v-285h310v-86h-395v126zM715 377q0 127 -86 216t-215 89q-130 0 -216 -89
q-85 -88 -85 -216t89 -217q88 -88 212 -88t212 88q89 89 89 217z" />
    <glyph glyph-name="ordmasculine" unicode="&#xba;" horiz-adv-x="324" 
d="M325 620q0 -63 -48 -106q-46 -43 -115 -43t-115 43q-47 44 -47 106q0 63 47 107q46 43 115 43t115 -43q48 -44 48 -107zM59 620q0 -20 8 -37.5t22 -30.5t33 -21t40 -8t40 8t33.5 21t22.5 30.5t8 37.5q0 21 -8 38.5t-22.5 31t-33.5 21t-40 7.5t-40 -7.5t-33 -21t-22 -31
t-8 -38.5zM0 368v48h325v-48h-325z" />
    <glyph glyph-name="ae" unicode="&#xe6;" horiz-adv-x="807" 
d="M704 287q-8 54 -41.5 85.5t-87.5 31.5q-26 0 -48.5 -8.5t-40 -24.5t-29 -37.5t-15.5 -46.5h262zM221 218q-42 0 -76 -21q-35 -20 -35 -58t36 -57q36 -18 78 -18q44 0 79 19q37 19 37 59q0 37 -38 57q-37 19 -81 19zM435 219q2 -63 40 -109q39 -46 101 -46q49 0 80.5 22.5
t59.5 68.5l76 -43q-33 -60 -90.5 -94t-126.5 -34q-105 0 -180 87q-28 -42 -76.5 -64.5t-102.5 -22.5q-76 0 -133 39q-57 40 -57 114q0 73 51 115t126 42q90 0 142 -43v32q0 121 -123 121q-82 0 -128 -15v80q64 13 141 13q48 0 93.5 -19.5t66.5 -57.5q62 77 178 77
q108 0 163 -70q56 -70 56 -179v-14h-357z" />
    <glyph glyph-name="dotlessi" unicode="&#x131;" horiz-adv-x="254" 
d="M172 0h-90v468h90v-468z" />
    <glyph glyph-name="lslash" unicode="&#x142;" horiz-adv-x="255" 
d="M179 552l82 64v-94l-82 -61v-461h-90v412l-81 -61v93l81 57v367h90v-316z" />
    <glyph glyph-name="oslash" unicode="&#xf8;" horiz-adv-x="540" 
d="M461 395q59 -80 59 -162q0 -105 -73 -177q-72 -72 -177 -72q-93 0 -163 58l-61 -64l-31 31l61 62q-56 79 -56 162q0 105 72 177q73 72 178 72q92 0 159 -58l66 67l31 -32zM365 363q-42 33 -95 33q-67 0 -113 -48q-47 -49 -47 -115q0 -52 32 -99zM173 102q40 -32 97 -32
q66 0 113 48q47 50 47 115q0 56 -35 97z" />
    <glyph glyph-name="oe" unicode="&#x153;" horiz-adv-x="897" 
d="M791 287q-8 54 -41.5 85.5t-87.5 31.5q-26 0 -48.5 -8.5t-40 -24.5t-29 -37.5t-15.5 -46.5h262zM110 233q0 -65 47 -115q46 -48 113 -48q66 0 113 48q47 50 47 115q0 66 -47 115q-47 48 -113 48q-67 0 -113 -48q-47 -49 -47 -115zM525 219q2 -63 40 -109q39 -46 101 -46
q49 0 80.5 22.5t59.5 68.5l76 -43q-33 -60 -90.5 -94t-126.5 -34q-60 -1 -113 26.5t-82 76.5q-33 -49 -86.5 -76.5t-113.5 -26.5q-105 0 -178 72q-72 72 -72 177t72 177q73 72 178 72q29 -1 57.5 -9t55 -21.5t49 -32t38.5 -42.5q65 101 193 105q108 0 163 -70
q56 -70 56 -179v-14h-357z" />
    <glyph glyph-name="germandbls" unicode="&#xdf;" horiz-adv-x="580" 
d="M282 68q77 0 136 56t59 134q0 42 -14.5 75t-40 56.5t-61.5 37t-79 16.5v88q57 -2 96 39q39 40 39 99q0 55 -38 91t-92 36q-27 0 -48.5 -9t-35.5 -21q-6 -6 -11.5 -15t-10 -19.5t-8 -20.5l-6.5 -18q-4 -13 -7 -46q-1 -16 -1.5 -26.5t-0.5 -17.5v-44v-559h-90v386h-40v84
h40v148q0 262 222 262q94 0 155 -61q62 -62 62 -155q0 -112 -96 -167q72 -22 114 -92q42 -68 42 -147q0 -117 -85 -198q-84 -81 -200 -76v84z" />
    <glyph glyph-name="Aacute" unicode="&#xc1;" horiz-adv-x="703" 
d="M179 189l-86 -189h-101l360 786l360 -786h-101l-86 189h-346zM352 580l-134 -305h268zM456 976l-164 -149l-44 27l125 166z" />
    <glyph glyph-name="Acircumflex" unicode="&#xc2;" horiz-adv-x="703" 
d="M179 189l-86 -189h-101l360 786l360 -786h-101l-86 189h-346zM352 580l-134 -305h268zM351 1020l161 -145l-59 -46l-102 96l-101 -96l-58 46z" />
    <glyph glyph-name="Adieresis" unicode="&#xc4;" horiz-adv-x="703" 
d="M179 189l-86 -189h-101l360 786l360 -786h-101l-86 189h-346zM352 580l-134 -305h268zM186 920q0 25 18 42.5t43 17.5t42.5 -17.5t17.5 -42.5t-17.5 -43t-42.5 -18t-43 17.5t-18 43.5zM458 859q-26 0 -43.5 17.5t-17.5 43.5q-1 19 10 33.5t27.5 21t35 4.5t30.5 -17
q15 -12 17 -30.5t-4.5 -35t-21 -27.5t-33.5 -10z" />
    <glyph glyph-name="Agrave" unicode="&#xc0;" horiz-adv-x="703" 
d="M179 189l-86 -189h-101l360 786l360 -786h-101l-86 189h-346zM352 580l-134 -305h268zM331 1020l125 -166l-44 -27l-164 149z" />
    <glyph glyph-name="Aring" unicode="&#xc5;" horiz-adv-x="703" 
d="M179 189l-86 -189h-101l360 786l360 -786h-101l-86 189h-346zM352 580l-134 -305h268zM352 1020q29 2 51 -15t32.5 -41.5t6.5 -52t-26 -46.5q-19 -21 -46.5 -24.5t-52 6.5t-41 31.5t-14.5 50.5q0 19 7 35.5t19.5 29t29 19.5t34.5 7zM352 884q19 0 32.5 13t13.5 32
t-13.5 32.5t-32.5 13.5q-18 0 -31.5 -13.5t-13.5 -32.5t13.5 -32t31.5 -13z" />
    <glyph glyph-name="Atilde" unicode="&#xc3;" horiz-adv-x="703" 
d="M179 189l-86 -189h-101l360 786l360 -786h-101l-86 189h-346zM352 580l-134 -305h268zM161 899l3 5q17 24 29 38t33 26t46 12q40 0 89 -26q49 -27 72 -27q35 0 64 48l47 -39q-40 -82 -118 -82q-28 0 -83 26q-53 25 -78 25q-17 0 -32.5 -14t-24.5 -32z" />
    <glyph glyph-name="Ccedilla" unicode="&#xc7;" horiz-adv-x="661" 
d="M621 610q-83 74 -199 74q-125 0 -212 -91q-86 -91 -86 -217q0 -125 85 -216q85 -90 211 -90q114 0 201 78v-111q-91 -53 -198 -53q-162 0 -278 113q-115 112 -115 276q0 166 117 282q116 115 284 115q107 0 190 -51v-109zM305 -181l-53 27l87 137l71 -29z" />
    <glyph glyph-name="Eacute" unicode="&#xc9;" horiz-adv-x="521" 
d="M72 754h405v-86h-311v-211h302v-86h-302v-285h311v-86h-405v754zM377 976l-164 -149l-44 27l125 166z" />
    <glyph glyph-name="Ecircumflex" unicode="&#xca;" horiz-adv-x="521" 
d="M72 754h405v-86h-311v-211h302v-86h-302v-285h311v-86h-405v754zM260 1020l161 -145l-59 -46l-102 96l-101 -96l-58 46z" />
    <glyph glyph-name="Edieresis" unicode="&#xcb;" horiz-adv-x="521" 
d="M72 754h405v-86h-311v-211h302v-86h-302v-285h311v-86h-405v754zM168 859q-26 0 -43.5 17.5t-17.5 43.5q-1 19 10 33.5t27.5 21t35 4.5t30.5 -17q15 -12 17.5 -30.5t-4.5 -35t-21.5 -27.5t-33.5 -10zM318 920q0 25 18 42.5t43 17.5t42.5 -17.5t17.5 -42.5t-17.5 -43
t-42.5 -18t-43 17.5t-18 43.5z" />
    <glyph glyph-name="Egrave" unicode="&#xc8;" horiz-adv-x="521" 
d="M72 754h405v-86h-311v-211h302v-86h-302v-285h311v-86h-405v754zM240 1020l125 -166l-44 -27l-164 149z" />
    <glyph glyph-name="Eth" unicode="&#xd0;" horiz-adv-x="665" 
d="M64 754h156q184 0 303 -97q120 -96 120 -276q0 -185 -119 -283t-307 -98h-153v362h-64v88h64v304zM158 450h134v-88h-134v-276h33q73 0 138 14.5t113.5 49t77.5 90t29 137.5q0 81 -28.5 138.5t-79.5 89.5q-51 33 -112.5 48t-137.5 15h-33v-218z" />
    <glyph glyph-name="Iacute" unicode="&#xcd;" horiz-adv-x="232" 
d="M163 0h-94v754h94v-754zM220 976l-164 -149l-44 27l125 166z" />
    <glyph glyph-name="Icircumflex" unicode="&#xce;" horiz-adv-x="232" 
d="M163 0h-94v754h94v-754zM115 1020l161 -145l-59 -46l-102 96l-101 -96l-58 46z" />
    <glyph glyph-name="Idieresis" unicode="&#xcf;" horiz-adv-x="232" 
d="M163 0h-94v754h94v-754zM-50 920q0 25 18 42.5t43 17.5t42.5 -17.5t17.5 -42.5t-17.5 -43t-42.5 -18t-43 17.5t-18 43.5zM222 859q-26 0 -43.5 17.5t-17.5 43.5q-1 19 10 33.5t27.5 21t35 4.5t30.5 -17q15 -12 17.5 -30.5t-4.5 -35t-21.5 -27.5t-33.5 -10z" />
    <glyph glyph-name="Igrave" unicode="&#xcc;" horiz-adv-x="232" 
d="M163 0h-94v754h94v-754zM95 1020l125 -166l-44 -27l-164 149z" />
    <glyph glyph-name="Ntilde" unicode="&#xd1;" horiz-adv-x="785" 
d="M63 790l566 -593v557h94v-785l-566 593v-562h-94v790zM202 899l3 5q17 24 29 38t33 26t46 12q40 0 89 -26q49 -27 72 -27q35 0 64 48l47 -39q-40 -82 -118 -82q-28 0 -83 26q-53 25 -78 25q-17 0 -32.5 -14t-24.5 -32z" />
    <glyph glyph-name="Oacute" unicode="&#xd3;" horiz-adv-x="828" 
d="M809 377q0 -168 -115 -280q-116 -113 -280 -113t-280 113q-115 112 -115 280q0 161 116 277q118 116 279 116q162 0 278 -116q117 -116 117 -277zM715 377q0 127 -86 216t-215 89q-130 0 -216 -89q-85 -88 -85 -216t89 -217q88 -88 212 -88t212 88q89 89 89 217zM518 976
l-164 -149l-44 27l125 166z" />
    <glyph glyph-name="Ocircumflex" unicode="&#xd4;" horiz-adv-x="828" 
d="M809 377q0 -168 -115 -280q-116 -113 -280 -113t-280 113q-115 112 -115 280q0 161 116 277q118 116 279 116q162 0 278 -116q117 -116 117 -277zM715 377q0 127 -86 216t-215 89q-130 0 -216 -89q-85 -88 -85 -216t89 -217q88 -88 212 -88t212 88q89 89 89 217z
M413 1020l161 -145l-59 -46l-102 96l-101 -96l-58 46z" />
    <glyph glyph-name="Odieresis" unicode="&#xd6;" horiz-adv-x="828" 
d="M809 377q0 -168 -115 -280q-116 -113 -280 -113t-280 113q-115 112 -115 280q0 161 116 277q118 116 279 116q162 0 278 -116q117 -116 117 -277zM715 377q0 127 -86 216t-215 89q-130 0 -216 -89q-85 -88 -85 -216t89 -217q88 -88 212 -88t212 88q89 89 89 217zM248 920
q0 25 18 42.5t43 17.5t42.5 -17.5t17.5 -42.5t-17.5 -43t-42.5 -18t-43 17.5t-18 43.5zM520 859q-26 0 -43.5 17.5t-17.5 43.5q-1 19 10 33.5t27.5 21t35 4.5t30.5 -17q15 -12 17 -30.5t-4.5 -35t-21 -27.5t-33.5 -10z" />
    <glyph glyph-name="Ograve" unicode="&#xd2;" horiz-adv-x="828" 
d="M809 377q0 -168 -115 -280q-116 -113 -280 -113t-280 113q-115 112 -115 280q0 161 116 277q118 116 279 116q162 0 278 -116q117 -116 117 -277zM715 377q0 127 -86 216t-215 89q-130 0 -216 -89q-85 -88 -85 -216t89 -217q88 -88 212 -88t212 88q89 89 89 217z
M393 1020l125 -166l-44 -27l-164 149z" />
    <glyph glyph-name="Otilde" unicode="&#xd5;" horiz-adv-x="828" 
d="M809 377q0 -168 -115 -280q-116 -113 -280 -113t-280 113q-115 112 -115 280q0 161 116 277q118 116 279 116q162 0 278 -116q117 -116 117 -277zM715 377q0 127 -86 216t-215 89q-130 0 -216 -89q-85 -88 -85 -216t89 -217q88 -88 212 -88t212 88q89 89 89 217zM223 899
l3 5q17 24 29 38t33 26t46 12q40 0 89 -26q49 -27 72 -27q35 0 64 48l47 -39q-40 -82 -118 -82q-28 0 -83 26q-53 25 -78 25q-17 0 -32.5 -14t-24.5 -32z" />
    <glyph glyph-name="Scaron" unicode="&#x160;" horiz-adv-x="537" 
d="M407 611q-42 71 -121 71q-48 0 -87 -30t-39 -77q0 -68 105 -108l54 -21q45 -18 80 -39t58.5 -48t36 -61.5t12.5 -78.5q0 -102 -70 -169q-69 -66 -171 -66q-91 0 -156 59q-65 60 -77 152l95 20q-1 -61 41 -102q44 -41 105 -41q60 0 99 43q40 43 40 104q0 55 -34.5 86.5
t-95.5 56.5l-52 22q-39 16 -69.5 34.5t-51.5 41.5t-32 51t-11 64q0 88 66 141q66 54 156 54q129 0 194 -114zM167 1020l101 -96l102 96l59 -46l-161 -145l-159 145z" />
    <glyph glyph-name="Thorn" unicode="&#xde;" horiz-adv-x="495" 
d="M166 0h-94v754h94v-140h14q168 0 235 -55q69 -54 69 -163q0 -112 -74 -166t-190 -54h-54v-176zM166 260h30q42 0 73 5t62 18q31 14 48 43t17 72q0 42 -18 70t-51 40q-33 13 -63.5 17.5t-72.5 4.5h-25v-270z" />
    <glyph glyph-name="Uacute" unicode="&#xda;" horiz-adv-x="669" 
d="M153 754v-445q0 -237 182 -237t182 237v445h94v-477q0 -129 -75 -211q-73 -82 -201 -82q-127 0 -202 82q-74 83 -74 211v477h94zM439 976l-164 -149l-44 27l125 166z" />
    <glyph glyph-name="Ucircumflex" unicode="&#xdb;" horiz-adv-x="669" 
d="M153 754v-445q0 -237 182 -237t182 237v445h94v-477q0 -129 -75 -211q-73 -82 -201 -82q-127 0 -202 82q-74 83 -74 211v477h94zM334 1020l161 -145l-59 -46l-102 96l-101 -96l-58 46z" />
    <glyph glyph-name="Udieresis" unicode="&#xdc;" horiz-adv-x="669" 
d="M153 754v-445q0 -237 182 -237t182 237v445h94v-477q0 -129 -75 -211q-73 -82 -201 -82q-127 0 -202 82q-74 83 -74 211v477h94zM230 859q-26 0 -43.5 17.5t-17.5 43.5q-1 19 10 33.5t27.5 21t35 4.5t30.5 -17q15 -12 17.5 -30.5t-4.5 -35t-21.5 -27.5t-33.5 -10z
M380 920q0 25 18 42.5t43 17.5t42.5 -17.5t17.5 -42.5t-17.5 -43t-42.5 -18t-43 17.5t-18 43.5z" />
    <glyph glyph-name="Ugrave" unicode="&#xd9;" horiz-adv-x="669" 
d="M153 754v-445q0 -237 182 -237t182 237v445h94v-477q0 -129 -75 -211q-73 -82 -201 -82q-127 0 -202 82q-74 83 -74 211v477h94zM302 1020l125 -166l-44 -27l-164 149z" />
    <glyph glyph-name="Yacute" unicode="&#xdd;" horiz-adv-x="573" 
d="M-6 754h108l185 -322l185 322h108l-246 -426v-328h-94v328zM431 976l-164 -149l-44 27l125 166z" />
    <glyph glyph-name="Ydieresis" unicode="&#x178;" horiz-adv-x="573" 
d="M-6 754h108l185 -322l185 322h108l-246 -426v-328h-94v328zM182 859q-26 0 -43.5 17.5t-17.5 43.5q-1 19 10 33.5t27.5 21t35 4.5t30.5 -17q15 -12 17.5 -30.5t-4.5 -35t-21.5 -27.5t-33.5 -10zM332 920q0 25 18 42.5t43 17.5t42.5 -17.5t17.5 -42.5t-17.5 -43t-42.5 -18
t-43 17.5t-18 43.5z" />
    <glyph glyph-name="Zcaron" unicode="&#x17d;" horiz-adv-x="552" 
d="M544 86v-86h-535l382 668h-328v86h481l-382 -668h382zM174 1020l101 -96l102 96l59 -46l-161 -145l-159 145z" />
    <glyph glyph-name="aacute" unicode="&#xe1;" horiz-adv-x="556" 
d="M264 64q71 0 111 49q41 50 41 121q0 70 -41 119q-40 49 -111 49q-67 0 -108 -50q-40 -49 -40 -118q0 -71 40 -120q41 -50 108 -50zM501 0h-90v73h-2q-60 -89 -159 -89q-103 0 -164 73q-60 73 -60 180q0 101 61 172q61 73 160 73q100 0 162 -92h2v78h90v-468zM382 690
l-164 -149l-44 27l125 166z" />
    <glyph glyph-name="acircumflex" unicode="&#xe2;" horiz-adv-x="556" 
d="M264 64q71 0 111 49q41 50 41 121q0 70 -41 119q-40 49 -111 49q-67 0 -108 -50q-40 -49 -40 -118q0 -71 40 -120q41 -50 108 -50zM501 0h-90v73h-2q-60 -89 -159 -89q-103 0 -164 73q-60 73 -60 180q0 101 61 172q61 73 160 73q100 0 162 -92h2v78h90v-468zM277 734
l161 -145l-59 -46l-102 96l-101 -96l-58 46z" />
    <glyph glyph-name="adieresis" unicode="&#xe4;" horiz-adv-x="556" 
d="M264 64q71 0 111 49q41 50 41 121q0 70 -41 119q-40 49 -111 49q-67 0 -108 -50q-40 -49 -40 -118q0 -71 40 -120q41 -50 108 -50zM501 0h-90v73h-2q-60 -89 -159 -89q-103 0 -164 73q-60 73 -60 180q0 101 61 172q61 73 160 73q100 0 162 -92h2v78h90v-468zM112 634
q0 25 18 42.5t43 17.5t42.5 -17.5t17.5 -42.5t-17.5 -43t-42.5 -18t-43 17.5t-18 43.5zM384 573q-26 0 -43.5 17.5t-17.5 43.5q-1 19 10 33.5t27.5 21t35 4.5t30.5 -17q15 -12 17 -30.5t-4.5 -35t-21 -27.5t-33.5 -10z" />
    <glyph glyph-name="agrave" unicode="&#xe0;" horiz-adv-x="556" 
d="M264 64q71 0 111 49q41 50 41 121q0 70 -41 119q-40 49 -111 49q-67 0 -108 -50q-40 -49 -40 -118q0 -71 40 -120q41 -50 108 -50zM501 0h-90v73h-2q-60 -89 -159 -89q-103 0 -164 73q-60 73 -60 180q0 101 61 172q61 73 160 73q100 0 162 -92h2v78h90v-468zM257 734
l125 -166l-44 -27l-164 149z" />
    <glyph glyph-name="aring" unicode="&#xe5;" horiz-adv-x="556" 
d="M264 64q71 0 111 49q41 50 41 121q0 70 -41 119q-40 49 -111 49q-67 0 -108 -50q-40 -49 -40 -118q0 -71 40 -120q41 -50 108 -50zM501 0h-90v73h-2q-60 -89 -159 -89q-103 0 -164 73q-60 73 -60 180q0 101 61 172q61 73 160 73q100 0 162 -92h2v78h90v-468zM278 734
q29 2 51 -15t32.5 -41.5t6.5 -52t-26 -46.5q-19 -21 -46.5 -24.5t-52 6.5t-41 31.5t-14.5 50.5q0 19 7 35.5t19.5 29t29 19.5t34.5 7zM278 598q19 0 32.5 13t13.5 32t-13.5 32.5t-32.5 13.5q-18 0 -31.5 -13.5t-13.5 -32.5t13.5 -32t31.5 -13z" />
    <glyph glyph-name="atilde" unicode="&#xe3;" horiz-adv-x="556" 
d="M264 64q71 0 111 49q41 50 41 121q0 70 -41 119q-40 49 -111 49q-67 0 -108 -50q-40 -49 -40 -118q0 -71 40 -120q41 -50 108 -50zM501 0h-90v73h-2q-60 -89 -159 -89q-103 0 -164 73q-60 73 -60 180q0 101 61 172q61 73 160 73q100 0 162 -92h2v78h90v-468zM87 613l3 5
q17 24 29 38t33 26t46 12q40 0 89 -26q49 -27 72 -27q35 0 64 48l47 -39q-40 -82 -118 -82q-28 0 -83 26q-53 25 -78 25q-17 0 -32.5 -14t-24.5 -32z" />
    <glyph glyph-name="brokenbar" unicode="&#xa6;" horiz-adv-x="570" 
d="M328 0h-86v347h86v-347zM328 521h-86v347h86v-347z" />
    <glyph glyph-name="ccedilla" unicode="&#xe7;" horiz-adv-x="441" 
d="M406 335q-56 63 -134 63q-65 0 -111 -49q-45 -50 -45 -115q0 -73 45 -119q47 -47 117 -47q72 0 128 62v-115q-58 -31 -129 -31q-104 0 -178 71q-73 70 -73 175q0 108 73 180t183 72q72 0 124 -31v-116zM195 -181l-53 27l87 137l71 -29z" />
    <glyph glyph-name="copyright" unicode="&#xa9;" horiz-adv-x="800" 
d="M679 98q-114 -114 -279 -114t-280 114q-114 115 -114 279t114 278q115 115 280 115t279 -115q115 -114 115 -278t-115 -279zM633 610q-98 96 -233 96q-136 0 -233 -96q-97 -94 -97 -233q0 -138 97 -234q98 -95 233 -95t233 95q97 96 97 234q0 139 -97 233zM539 458
q-9 42 -41.5 63.5t-83.5 21.5q-76 0 -115 -48q-38 -47 -38 -113q0 -72 41 -118t114 -46q102 0 123 89h61q-9 -69 -62 -111t-122 -42q-97 0 -159 65q-60 64 -60 161q0 99 59 163q58 64 159 64q72 0 122 -40t63 -109h-61z" />
    <glyph glyph-name="oldcurrency" 
d="M543 486l-41 -44q42 -66 42 -142t-42 -142l41 -44l-60 -60l-46 44q-63 -48 -148 -48t-148 48l-46 -44l-60 60l41 44q-42 66 -42 142t42 142l-41 44l60 60l46 -44q63 48 148 48t148 -48l46 44zM464 300q1 73 -49 122q-50 48 -126 48q-77 0 -126 -48q-50 -49 -49 -122
q1 -69 52 -120q52 -50 123 -50t123 50q50 49 52 120z" />
    <glyph glyph-name="degree" unicode="&#xb0;" horiz-adv-x="400" 
d="M50 620q-2 61 43 106q46 44 107 44q62 0 106 -44t44 -106t-44 -106t-106 -44t-106 44t-44 106zM199 720q-21 0 -39 -8t-31.5 -21.5t-21 -31.5t-7.5 -39q0 -43 28.5 -71.5t71.5 -28.5q42 0 71 28.5t29 71.5q0 21 -8 39t-21.5 31.5t-32 21.5t-39.5 8z" />
    <glyph glyph-name="divide" unicode="&#xf7;" 
d="M33 299h512v-86h-512v86zM351 61q0 -25 -18 -43t-44 -18t-44 18t-18 43q0 26 18 44.5t44 18.5t44 -18.5t18 -44.5zM351 449q0 -25 -18 -43t-44 -18t-44 18t-18 43q0 26 18 44.5t44 18.5t44 -18.5t18 -44.5z" />
    <glyph glyph-name="eacute" unicode="&#xe9;" horiz-adv-x="488" 
d="M116 219q2 -63 40 -109q39 -46 101 -46q49 0 80.5 22.5t59.5 68.5l76 -43q-33 -60 -90.5 -94t-126.5 -34q-105 0 -168 70q-62 71 -62 176q0 111 59 182q58 70 169 70q108 0 163 -70q56 -70 56 -179v-14h-357zM383 287q-8 54 -41.5 85.5t-87.5 31.5q-26 0 -48.5 -8.5
t-40 -24.5t-29 -37.5t-15.5 -46.5h262zM348 690l-164 -149l-44 27l125 166z" />
    <glyph glyph-name="ecircumflex" unicode="&#xea;" horiz-adv-x="488" 
d="M116 219q2 -63 40 -109q39 -46 101 -46q49 0 80.5 22.5t59.5 68.5l76 -43q-33 -60 -90.5 -94t-126.5 -34q-105 0 -168 70q-62 71 -62 176q0 111 59 182q58 70 169 70q108 0 163 -70q56 -70 56 -179v-14h-357zM383 287q-8 54 -41.5 85.5t-87.5 31.5q-26 0 -48.5 -8.5
t-40 -24.5t-29 -37.5t-15.5 -46.5h262zM243 734l161 -145l-59 -46l-102 96l-101 -96l-58 46z" />
    <glyph glyph-name="edieresis" unicode="&#xeb;" horiz-adv-x="488" 
d="M116 219q2 -63 40 -109q39 -46 101 -46q49 0 80.5 22.5t59.5 68.5l76 -43q-33 -60 -90.5 -94t-126.5 -34q-105 0 -168 70q-62 71 -62 176q0 111 59 182q58 70 169 70q108 0 163 -70q56 -70 56 -179v-14h-357zM383 287q-8 54 -41.5 85.5t-87.5 31.5q-26 0 -48.5 -8.5
t-40 -24.5t-29 -37.5t-15.5 -46.5h262zM78 634q0 25 18 42.5t43 17.5t42.5 -17.5t17.5 -42.5t-17.5 -43t-42.5 -18t-43 17.5t-18 43.5zM350 573q-26 0 -43.5 17.5t-17.5 43.5q-1 19 10 33.5t27.5 21t35 4.5t30.5 -17q15 -12 17 -30.5t-4.5 -35t-21 -27.5t-33.5 -10z" />
    <glyph glyph-name="egrave" unicode="&#xe8;" horiz-adv-x="488" 
d="M116 219q2 -63 40 -109q39 -46 101 -46q49 0 80.5 22.5t59.5 68.5l76 -43q-33 -60 -90.5 -94t-126.5 -34q-105 0 -168 70q-62 71 -62 176q0 111 59 182q58 70 169 70q108 0 163 -70q56 -70 56 -179v-14h-357zM383 287q-8 54 -41.5 85.5t-87.5 31.5q-26 0 -48.5 -8.5
t-40 -24.5t-29 -37.5t-15.5 -46.5h262zM223 734l125 -166l-44 -27l-164 149z" />
    <glyph glyph-name="eth" unicode="&#xf0;" horiz-adv-x="540" 
d="M110 233q0 -65 47 -115q46 -48 113 -48q66 0 113 48q47 50 47 115q0 66 -47 115q-47 48 -113 48q-67 0 -113 -48q-47 -49 -47 -115zM124 868l101 -111l146 83l49 -54l-145 -84q75 -89 165 -234q80 -131 80 -235q0 -111 -72 -180q-71 -69 -178 -69q-105 0 -178 72
q-72 72 -72 177t72 177q73 72 178 72q33 0 66 -14l2 2q-28 46 -74 107q-22 30 -39 50t-28 31l-158 -91l-50 55l158 91l-101 111z" />
    <glyph glyph-name="iacute" unicode="&#xed;" horiz-adv-x="254" 
d="M172 0h-90v468h90v-468zM231 690l-164 -149l-44 27l125 166z" />
    <glyph glyph-name="icircumflex" unicode="&#xee;" horiz-adv-x="254" 
d="M172 0h-90v468h90v-468zM126 734l161 -145l-59 -46l-102 96l-101 -96l-58 46z" />
    <glyph glyph-name="idieresis" unicode="&#xef;" horiz-adv-x="254" 
d="M172 0h-90v468h90v-468zM22 573q-26 0 -43.5 17.5t-17.5 43.5q-1 19 10 33.5t27.5 21t35 4.5t30.5 -17q15 -12 17 -30.5t-4.5 -35t-21 -27.5t-33.5 -10zM172 634q0 25 18 42.5t43 17.5t42.5 -17.5t17.5 -42.5t-17.5 -43t-42.5 -18t-43 17.5t-18 43.5z" />
    <glyph glyph-name="igrave" unicode="&#xec;" horiz-adv-x="254" 
d="M172 0h-90v468h90v-468zM106 734l125 -166l-44 -27l-164 149z" />
    <glyph glyph-name="logicalnot" unicode="&#xac;" 
d="M459 299h-426v86h512v-270h-86v184z" />
    <glyph glyph-name="minus" unicode="&#x2212;" 
d="M33 299h512v-86h-512v86z" />
    <glyph glyph-name="mu" unicode="&#x3bc;" horiz-adv-x="512" 
d="M148 468v-259q0 -66 23.5 -103.5t84.5 -37.5t84.5 37.5t23.5 103.5v259h90v-269q0 -100 -49 -157.5t-149 -57.5q-55 0 -108 44v-296h-90v736h90z" />
    <glyph glyph-name="multiply" unicode="&#xd7;" 
d="M93 512l196 -195l196 195l60 -61l-195 -195l195 -195l-60 -61l-196 195l-196 -195l-60 61l195 195l-195 195z" />
    <glyph glyph-name="ntilde" unicode="&#xf1;" horiz-adv-x="523" 
d="M152 405h2q20 37 58 57t83 20q46 0 78 -14t51.5 -40t28 -63.5t8.5 -85.5v-279h-90v268q0 69 -20 101q-20 33 -83 33q-23 0 -39 -4.5t-28 -13t-20 -19.5t-15 -24q-3 -7 -5.5 -18t-4.5 -22.5t-3 -23t-1 -18.5v-44v-215h-90v468h90v-63zM71 613l3 5q17 24 29 38t33 26t46 12
q40 0 89 -26q49 -27 72 -27q35 0 64 48l47 -39q-40 -82 -118 -82q-28 0 -83 26q-53 25 -78 25q-17 0 -32.5 -14t-24.5 -32z" />
    <glyph glyph-name="oacute" unicode="&#xf3;" horiz-adv-x="540" 
d="M92 410q73 72 178 72t177 -72q73 -72 73 -177t-73 -177q-72 -72 -177 -72t-178 72q-72 72 -72 177t72 177zM110 233q0 -65 47 -115q46 -48 113 -48q66 0 113 48q47 50 47 115q0 66 -47 115q-47 48 -113 48q-67 0 -113 -48q-47 -49 -47 -115zM374 690l-164 -149l-44 27
l125 166z" />
    <glyph glyph-name="ocircumflex" unicode="&#xf4;" horiz-adv-x="540" 
d="M92 410q73 72 178 72t177 -72q73 -72 73 -177t-73 -177q-72 -72 -177 -72t-178 72q-72 72 -72 177t72 177zM110 233q0 -65 47 -115q46 -48 113 -48q66 0 113 48q47 50 47 115q0 66 -47 115q-47 48 -113 48q-67 0 -113 -48q-47 -49 -47 -115zM269 734l161 -145l-59 -46
l-102 96l-101 -96l-58 46z" />
    <glyph glyph-name="odieresis" unicode="&#xf6;" horiz-adv-x="540" 
d="M92 410q73 72 178 72t177 -72q73 -72 73 -177t-73 -177q-72 -72 -177 -72t-178 72q-72 72 -72 177t72 177zM110 233q0 -65 47 -115q46 -48 113 -48q66 0 113 48q47 50 47 115q0 66 -47 115q-47 48 -113 48q-67 0 -113 -48q-47 -49 -47 -115zM104 634q0 25 18 42.5
t43 17.5t42.5 -17.5t17.5 -42.5t-17.5 -43t-42.5 -18t-43 17.5t-18 43.5zM376 573q-26 0 -43.5 17.5t-17.5 43.5q-1 19 10 33.5t27.5 21t35 4.5t30.5 -17q15 -12 17 -30.5t-4.5 -35t-21 -27.5t-33.5 -10z" />
    <glyph glyph-name="ograve" unicode="&#xf2;" horiz-adv-x="540" 
d="M92 410q73 72 178 72t177 -72q73 -72 73 -177t-73 -177q-72 -72 -177 -72t-178 72q-72 72 -72 177t72 177zM110 233q0 -65 47 -115q46 -48 113 -48q66 0 113 48q47 50 47 115q0 66 -47 115q-47 48 -113 48q-67 0 -113 -48q-47 -49 -47 -115zM249 734l125 -166l-44 -27
l-164 149z" />
    <glyph glyph-name="onehalf" unicode="&#xbd;" horiz-adv-x="867" 
d="M126 696h-86l34 58h116v-452h-64v394zM827 58v-58h-317l215 243q38 44 38 81q0 33 -29 56q-29 24 -62 24q-37 0 -61.5 -21t-26.5 -55h-67q7 61 48 97.5t107 36.5q62 0 109 -39q46 -39 46 -97q0 -56 -33 -93l-155 -175h188zM630 744l-440 -760l-51 28l440 758z" />
    <glyph glyph-name="onequarter" unicode="&#xbc;" horiz-adv-x="867" 
d="M40 696l34 58h116v-452h-64v394h-86zM827 124v-58h-49v-66h-64v66h-243l307 407v-349h49zM714 288h-3l-123 -164h126v164zM682 744l-440 -760l-51 28l440 758z" />
    <glyph glyph-name="onesuperior" unicode="&#xb9;" horiz-adv-x="346" 
d="M65 696l34 58h116v-452h-64v394h-86z" />
    <glyph glyph-name="otilde" unicode="&#xf5;" horiz-adv-x="540" 
d="M92 410q73 72 178 72t177 -72q73 -72 73 -177t-73 -177q-72 -72 -177 -72t-178 72q-72 72 -72 177t72 177zM110 233q0 -65 47 -115q46 -48 113 -48q66 0 113 48q47 50 47 115q0 66 -47 115q-47 48 -113 48q-67 0 -113 -48q-47 -49 -47 -115zM79 613l3 5q17 24 29 38
t33 26t46 12q40 0 89 -26q49 -27 72 -27q35 0 64 48l47 -39q-40 -82 -118 -82q-28 0 -83 26q-53 25 -78 25q-17 0 -32.5 -14t-24.5 -32z" />
    <glyph glyph-name="plusminus" unicode="&#xb1;" 
d="M33 86h512v-86h-512v86zM332 562v-173h213v-86h-213v-173h-86v173h-213v86h213v173h86z" />
    <glyph glyph-name="registered" unicode="&#xae;" horiz-adv-x="800" 
d="M679 98q-114 -114 -279 -114t-280 114q-114 115 -114 279t114 278q115 115 280 115t279 -115q115 -114 115 -278t-115 -279zM633 610q-98 96 -233 96q-136 0 -233 -96q-97 -94 -97 -233q0 -138 97 -234q98 -95 233 -95t233 95q97 96 97 234q0 139 -97 233zM580 153h-73
l-113 204h-82v-204h-64v442h186q152 0 152 -117q0 -60 -33.5 -89.5t-84.5 -31.5zM312 531v-110h68h10.5t16 -0.5t16 -0.5h12.5q9 1 25.5 2t24.5 4q17 5 27 15t10 30q0 41 -31 51q-15 6 -30 7.5t-39 1.5h-110z" />
    <glyph glyph-name="scaron" unicode="&#x161;" horiz-adv-x="384" 
d="M250 361q-20 41 -60 41q-19 0 -34 -13.5t-15 -32.5q0 -18 11.5 -30.5t31.5 -23.5q13 -6 20 -9.5t23 -10.5q8 -4 14 -6t9 -4q50 -23 79 -53t29 -80q0 -66 -48 -111q-47 -44 -113 -44q-27 0 -52 7.5t-46.5 21t-38 33t-25.5 43.5l77 35q33 -60 85 -60q21 0 39 11.5t26.5 29
t3.5 38t-31 38.5l-88 47q-23 12 -40 24t-28 25.5t-16.5 30t-5.5 38.5q0 57 40 96q40 40 98 40q88 0 128 -82zM90 734l101 -96l102 96l59 -46l-161 -145l-159 145z" />
    <glyph glyph-name="thorn" unicode="&#xfe;" horiz-adv-x="556" 
d="M145 390h2q62 92 163 92q98 0 159 -73q61 -71 61 -172q0 -107 -60 -180t-164 -73q-48 0 -89.5 23.5t-69.5 65.5h-2v-341h-90v1136h90v-478zM288 64q71 0 111 49q41 50 41 121q0 70 -41 119q-40 49 -111 49q-67 0 -108 -50q-40 -49 -40 -118q0 -71 40 -120q41 -50 108 -50
z" />
    <glyph glyph-name="threequarters" unicode="&#xbe;" horiz-adv-x="867" 
d="M827 124v-58h-49v-66h-64v66h-243l307 407v-349h49zM714 288h-3l-123 -164h126v164zM184 576q43 0 68.5 17t25.5 50t-25 51t-58 18q-32 0 -53.5 -14t-21.5 -42h-67q9 55 46 84.5t98 29.5q30 0 56.5 -9t46 -25t31 -38.5t11.5 -49.5q0 -68 -66 -102q73 -31 73 -112
q0 -62 -46 -99t-114 -37q-60 0 -103 33q-43 34 -46 89h64q10 -64 90 -64q37 0 64 22t27 58q0 38 -29 61t-72 21v58zM738 744l-440 -760l-51 28l440 758z" />
    <glyph glyph-name="threesuperior" unicode="&#xb3;" horiz-adv-x="346" 
d="M163 576q43 0 68.5 17t25.5 50t-25 51t-58 18q-32 0 -53.5 -14t-21.5 -42h-67q9 55 46 84.5t98 29.5q30 0 56.5 -9t46 -25t31 -38.5t11.5 -49.5q0 -68 -66 -102q73 -31 73 -112q0 -62 -46 -99t-114 -37q-60 0 -103 33q-43 34 -46 89h64q10 -64 90 -64q37 0 64 22t27 58
q0 38 -29 61t-72 21v58z" />
    <glyph glyph-name="trademark" unicode="&#x2122;" horiz-adv-x="940" 
d="M906 333h-64v357h-2l-144 -357h-39l-140 357h-2v-357h-64v421h105l121 -297l125 297h104v-421zM374 690h-138v-357h-64v357h-138v64h340v-64z" />
    <glyph glyph-name="twosuperior" unicode="&#xb2;" horiz-adv-x="346" 
d="M332 360v-58h-317l215 243q38 44 38 81q0 33 -29 56q-29 24 -62 24q-37 0 -61.5 -21t-26.5 -55h-67q7 61 48 97.5t107 36.5q62 0 109 -39q46 -39 46 -97q0 -56 -33 -93l-155 -175h188z" />
    <glyph glyph-name="uacute" unicode="&#xfa;" horiz-adv-x="512" 
d="M148 468v-259q0 -66 23.5 -103.5t84.5 -37.5t84.5 37.5t23.5 103.5v259h90v-269q0 -100 -49 -157.5t-149 -57.5t-149 57.5t-49 157.5v269h90zM360 690l-164 -149l-44 27l125 166z" />
    <glyph glyph-name="ucircumflex" unicode="&#xfb;" horiz-adv-x="512" 
d="M148 468v-259q0 -66 23.5 -103.5t84.5 -37.5t84.5 37.5t23.5 103.5v259h90v-269q0 -100 -49 -157.5t-149 -57.5t-149 57.5t-49 157.5v269h90zM255 734l161 -145l-59 -46l-102 96l-101 -96l-58 46z" />
    <glyph glyph-name="udieresis" unicode="&#xfc;" horiz-adv-x="512" 
d="M148 468v-259q0 -66 23.5 -103.5t84.5 -37.5t84.5 37.5t23.5 103.5v259h90v-269q0 -100 -49 -157.5t-149 -57.5t-149 57.5t-49 157.5v269h90zM90 634q0 25 18 42.5t43 17.5t42.5 -17.5t17.5 -42.5t-17.5 -43t-42.5 -18t-43 17.5t-18 43.5zM362 573q-26 0 -43.5 17.5
t-17.5 43.5q-1 19 10 33.5t27.5 21t35 4.5t30.5 -17q15 -12 17 -30.5t-4.5 -35t-21 -27.5t-33.5 -10z" />
    <glyph glyph-name="ugrave" unicode="&#xf9;" horiz-adv-x="512" 
d="M148 468v-259q0 -66 23.5 -103.5t84.5 -37.5t84.5 37.5t23.5 103.5v259h90v-269q0 -100 -49 -157.5t-149 -57.5t-149 57.5t-49 157.5v269h90zM235 734l125 -166l-44 -27l-164 149z" />
    <glyph glyph-name="yacute" unicode="&#xfd;" horiz-adv-x="484" 
d="M-13 468h105l158 -297l147 297h101l-379 -736h-102l184 348zM346 690l-164 -149l-44 27l125 166z" />
    <glyph glyph-name="ydieresis" unicode="&#xff;" horiz-adv-x="484" 
d="M-13 468h105l158 -297l147 297h101l-379 -736h-102l184 348zM76 634q0 25 18 42.5t43 17.5t42.5 -17.5t17.5 -42.5t-17.5 -43t-42.5 -18t-43 17.5t-18 43.5zM348 573q-26 0 -43.5 17.5t-17.5 43.5q-1 19 10 33.5t27.5 21t35 4.5t30.5 -17q15 -12 17 -30.5t-4.5 -35
t-21 -27.5t-33.5 -10z" />
    <glyph glyph-name="zcaron" unicode="&#x17e;" horiz-adv-x="495" 
d="M481 84v-84h-479l317 384h-263v84h438l-317 -384h304zM146 734l101 -96l102 96l59 -46l-161 -145l-159 145z" />
    <glyph glyph-name="Euro" unicode="&#x20ac;" 
d="M568 644q-65 40 -158 40q-106 0 -164 -64q-59 -65 -75 -160h357l-14 -58h-351q-1 -8 -1 -14.5v-11.5q0 -25 4 -48h323l-14 -58h-299q19 -85 76 -143q58 -57 156 -57q48 0 83 10.5t77 39.5v-101q-65 -35 -157 -35q-132 0 -221 73q-91 74 -113 213h-77l14 58h56
q-1 18 -1.5 29t-0.5 16v14t1 15h-68l14 58h60q25 151 118 230q95 80 226 80q20 0 43 -2.5t45.5 -8t43.5 -13t38 -17.5z" />
    <glyph glyph-name="nonbreakingspace" unicode="&#xa0;" horiz-adv-x="289" 
 />
    <glyph glyph-name="hyphenminus" unicode="-" horiz-adv-x="332" 
d="M276 358v-75h-219v75h219z" />
    <glyph glyph-name="dotbelowcomb" unicode="&#x323;" horiz-adv-x="360" 
d="M121 -130q0 25 18 42.5t43 17.5t42.5 -17.5t17.5 -42.5t-17.5 -43t-42.5 -18t-43 17.5t-18 43.5z" />
    <glyph glyph-name="uni1EA0" unicode="&#x1ea0;" horiz-adv-x="703" 
d="M179 189l-86 -189h-101l360 786l360 -786h-101l-86 189h-346zM352 580l-134 -305h268zM292 -130q0 25 18 42.5t43 17.5t42.5 -17.5t17.5 -42.5t-17.5 -43t-42.5 -18t-43 17.5t-18 43.5z" />
    <glyph glyph-name="uni1EA1" unicode="&#x1ea1;" horiz-adv-x="556" 
d="M264 64q71 0 111 49q41 50 41 121q0 70 -41 119q-40 49 -111 49q-67 0 -108 -50q-40 -49 -40 -118q0 -71 40 -120q41 -50 108 -50zM501 0h-90v73h-2q-60 -89 -159 -89q-103 0 -164 73q-60 73 -60 180q0 101 61 172q61 73 160 73q100 0 162 -92h2v78h90v-468zM218 -130
q0 25 18 42.5t43 17.5t42.5 -17.5t17.5 -42.5t-17.5 -43t-42.5 -18t-43 17.5t-18 43.5z" />
    <glyph glyph-name="Abreve" unicode="&#x102;" horiz-adv-x="703" 
d="M179 189l-86 -189h-101l360 786l360 -786h-101l-86 189h-346zM352 580l-134 -305h268zM250 965q31 -75 102 -75q39 0 62.5 18.5t40.5 56.5h71q-10 -61 -61 -102q-50 -39 -113 -39q-64 0 -113 39q-49 40 -61 102h72z" />
    <glyph glyph-name="abreve" unicode="&#x103;" horiz-adv-x="556" 
d="M264 64q71 0 111 49q41 50 41 121q0 70 -41 119q-40 49 -111 49q-67 0 -108 -50q-40 -49 -40 -118q0 -71 40 -120q41 -50 108 -50zM501 0h-90v73h-2q-60 -89 -159 -89q-103 0 -164 73q-60 73 -60 180q0 101 61 172q61 73 160 73q100 0 162 -92h2v78h90v-468zM160 694
q31 -75 102 -75q39 0 62.5 18.5t40.5 56.5h71q-10 -61 -61 -102q-50 -39 -113 -39q-64 0 -113 39q-49 40 -61 102h72z" />
    <glyph glyph-name="Ohorn" unicode="&#x1a0;" horiz-adv-x="828" 
d="M809 377q0 -168 -115 -280q-116 -113 -280 -113t-280 113q-115 112 -115 280q0 161 116 277q118 116 279 116q162 0 278 -116l11.5 -12l10.5 -12q19 5 29.5 16t15 22t5 20t0.5 11v55h81v-53q0 -29 -9.5 -50t-24 -34.5t-31 -21.5t-30.5 -12q59 -92 59 -206zM715 377
q0 127 -86 216t-215 89q-130 0 -216 -89q-85 -88 -85 -216t89 -217q88 -88 212 -88t212 88q89 89 89 217z" />
    <glyph glyph-name="ohorn" unicode="&#x1a1;" horiz-adv-x="551" 
d="M92 410q73 72 178 72t177 -72q12 -12 22.5 -25t18.5 -27q9 7 13.5 16.5t6.5 17.5t2.5 14t0.5 8v55h81v-53q0 -26 -7.5 -45t-19 -32.5t-26 -22.5t-28.5 -14q9 -33 9 -69q0 -105 -73 -177q-72 -72 -177 -72t-178 72q-72 72 -72 177t72 177zM110 233q0 -65 47 -115
q46 -48 113 -48q66 0 113 48q47 50 47 115q0 66 -47 115q-47 48 -113 48q-67 0 -113 -48q-47 -49 -47 -115z" />
    <glyph glyph-name="Uhorn" unicode="&#x1af;" horiz-adv-x="700" 
d="M153 754v-445q0 -237 182 -237t182 237v445h94v-123q18 6 27 16.5t13 21.5t4.5 19.5t0.5 10.5v55h81v-53q0 -40 -17 -64.5t-38.5 -37.5t-42.5 -17t-28 -4v-301q0 -129 -75 -211q-73 -82 -201 -82q-127 0 -202 82q-74 83 -74 211v477h94z" />
    <glyph glyph-name="uhorn" unicode="&#x1b0;" horiz-adv-x="522" 
d="M148 468v-259q0 -66 23.5 -103.5t84.5 -37.5t84.5 37.5t23.5 103.5v259h90v-119q13 7 20.5 17t10.5 20t3.5 17.5t0.5 9.5v55h81v-53q0 -35 -13.5 -58t-32 -36.5t-38.5 -20t-32 -7.5v-94q0 -100 -49 -157.5t-149 -57.5t-149 57.5t-49 157.5v269h90z" />
    <glyph glyph-name="hookabovecomb" unicode="&#x309;" horiz-adv-x="639" 
d="M431 640q-5 -17 -17 -29t-24 -22q-8 -7 -14 -13t-8 -14h-59q5 29 17.5 41.5t25.5 23.5q11 8 19 17.5t8 23.5q0 18 -12 28t-29 10q-16 0 -26.5 -10.5t-10.5 -25.5q0 -5 0.5 -9t2.5 -13h-58l-1 22q0 38 28 63q29 26 66 26q40 0 68 -27q14 -14 23 -38.5t1 -53.5z" />
    <glyph glyph-name="uni1EA4" unicode="&#x1ea4;" horiz-adv-x="703" 
d="M179 189l-86 -189h-101l360 786l360 -786h-101l-86 189h-346zM352 580l-134 -305h268zM351 1020l161 -145l-59 -46l-102 96l-101 -96l-58 46zM664 1109l-164 -149l-44 27l125 166z" />
    <glyph glyph-name="uni1EA5" unicode="&#x1ea5;" horiz-adv-x="556" 
d="M264 64q71 0 111 49q41 50 41 121q0 70 -41 119q-40 49 -111 49q-67 0 -108 -50q-40 -49 -40 -118q0 -71 40 -120q41 -50 108 -50zM501 0h-90v73h-2q-60 -89 -159 -89q-103 0 -164 73q-60 73 -60 180q0 101 61 172q61 73 160 73q100 0 162 -92h2v78h90v-468zM277 734
l161 -145l-59 -46l-102 96l-101 -96l-58 46zM564 849l-164 -149l-44 27l125 166z" />
    <glyph glyph-name="uni1EA6" unicode="&#x1ea6;" horiz-adv-x="703" 
d="M179 189l-86 -189h-101l360 786l360 -786h-101l-86 189h-346zM352 580l-134 -305h268zM351 1020l161 -145l-59 -46l-102 96l-101 -96l-58 46zM419 1193l125 -166l-44 -27l-164 149z" />
    <glyph glyph-name="uni1EA7" unicode="&#x1ea7;" horiz-adv-x="556" 
d="M264 64q71 0 111 49q41 50 41 121q0 70 -41 119q-40 49 -111 49q-67 0 -108 -50q-40 -49 -40 -118q0 -71 40 -120q41 -50 108 -50zM501 0h-90v73h-2q-60 -89 -159 -89q-103 0 -164 73q-60 73 -60 180q0 101 61 172q61 73 160 73q100 0 162 -92h2v78h90v-468zM277 734
l161 -145l-59 -46l-102 96l-101 -96l-58 46zM319 893l125 -166l-44 -27l-164 149z" />
    <glyph glyph-name="uni1EA8" unicode="&#x1ea8;" horiz-adv-x="703" 
d="M179 189l-86 -189h-101l360 786l360 -786h-101l-86 189h-346zM352 580l-134 -305h268zM351 1020l161 -145l-59 -46l-102 96l-101 -96l-58 46zM600 1028q-5 -17 -17 -29t-24 -22q-8 -7 -14 -13t-8 -14h-59q5 29 17.5 41.5t25.5 23.5q11 8 19 17.5t8 23.5q0 18 -12 28
t-29 10q-16 0 -26.5 -10.5t-10.5 -25.5q0 -5 0.5 -9t2.5 -13h-58l-1 22q0 38 28 63q29 26 66 26q40 0 68 -27q14 -14 23 -38.5t1 -53.5z" />
    <glyph glyph-name="uni1EA9" unicode="&#x1ea9;" horiz-adv-x="556" 
d="M264 64q71 0 111 49q41 50 41 121q0 70 -41 119q-40 49 -111 49q-67 0 -108 -50q-40 -49 -40 -118q0 -71 40 -120q41 -50 108 -50zM501 0h-90v73h-2q-60 -89 -159 -89q-103 0 -164 73q-60 73 -60 180q0 101 61 172q61 73 160 73q100 0 162 -92h2v78h90v-468zM277 734
l161 -145l-59 -46l-102 96l-101 -96l-58 46zM488 778q-5 -17 -17 -29t-24 -22q-8 -7 -14 -13t-8 -14h-59q5 29 17.5 41.5t25.5 23.5q11 8 19 17.5t8 23.5q0 18 -12 28t-29 10q-16 0 -26.5 -10.5t-10.5 -25.5q0 -5 0.5 -9t2.5 -13h-58l-1 22q0 38 28 63q29 26 66 26
q40 0 68 -27q14 -14 23 -38.5t1 -53.5z" />
    <glyph glyph-name="uni1EAA" unicode="&#x1eaa;" horiz-adv-x="703" 
d="M179 189l-86 -189h-101l360 786l360 -786h-101l-86 189h-346zM352 580l-134 -305h268zM351 1020l161 -145l-59 -46l-102 96l-101 -96l-58 46zM160 1100l3 5q17 24 29 38t33 26t46 12q40 0 89 -26q49 -27 72 -27q35 0 64 48l47 -39q-40 -82 -118 -82q-28 0 -83 26
q-53 25 -78 25q-17 0 -32.5 -14t-24.5 -32z" />
    <glyph glyph-name="uni1EAB" unicode="&#x1eab;" horiz-adv-x="556" 
d="M264 64q71 0 111 49q41 50 41 121q0 70 -41 119q-40 49 -111 49q-67 0 -108 -50q-40 -49 -40 -118q0 -71 40 -120q41 -50 108 -50zM501 0h-90v73h-2q-60 -89 -159 -89q-103 0 -164 73q-60 73 -60 180q0 101 61 172q61 73 160 73q100 0 162 -92h2v78h90v-468zM277 734
l161 -145l-59 -46l-102 96l-101 -96l-58 46zM86 799l3 5q17 24 29 38t33 26t46 12q40 0 89 -26q49 -27 72 -27q35 0 64 48l47 -39q-40 -82 -118 -82q-28 0 -83 26q-53 25 -78 25q-17 0 -32.5 -14t-24.5 -32z" />
    <glyph glyph-name="uni1EAC" unicode="&#x1eac;" horiz-adv-x="703" 
d="M292 -130q0 25 18 42.5t43 17.5t42.5 -17.5t17.5 -42.5t-17.5 -43t-42.5 -18t-43 17.5t-18 43.5zM179 189l-86 -189h-101l360 786l360 -786h-101l-86 189h-346zM352 580l-134 -305h268zM351 1020l161 -145l-59 -46l-102 96l-101 -96l-58 46z" />
    <glyph glyph-name="uni1EAD" unicode="&#x1ead;" horiz-adv-x="556" 
d="M264 64q71 0 111 49q41 50 41 121q0 70 -41 119q-40 49 -111 49q-67 0 -108 -50q-40 -49 -40 -118q0 -71 40 -120q41 -50 108 -50zM501 0h-90v73h-2q-60 -89 -159 -89q-103 0 -164 73q-60 73 -60 180q0 101 61 172q61 73 160 73q100 0 162 -92h2v78h90v-468zM218 -130
q0 25 18 42.5t43 17.5t42.5 -17.5t17.5 -42.5t-17.5 -43t-42.5 -18t-43 17.5t-18 43.5zM277 734l161 -145l-59 -46l-102 96l-101 -96l-58 46z" />
    <glyph glyph-name="uni1EAE" unicode="&#x1eae;" horiz-adv-x="703" 
d="M179 189l-86 -189h-101l360 786l360 -786h-101l-86 189h-346zM352 580l-134 -305h268zM250 965q31 -75 102 -75q39 0 62.5 18.5t40.5 56.5h71q-10 -61 -61 -102q-50 -39 -113 -39q-64 0 -113 39q-49 40 -61 102h72zM504 1149l-164 -149l-44 27l125 166z" />
    <glyph glyph-name="uni1EAF" unicode="&#x1eaf;" horiz-adv-x="556" 
d="M264 64q71 0 111 49q41 50 41 121q0 70 -41 119q-40 49 -111 49q-67 0 -108 -50q-40 -49 -40 -118q0 -71 40 -120q41 -50 108 -50zM501 0h-90v73h-2q-60 -89 -159 -89q-103 0 -164 73q-60 73 -60 180q0 101 61 172q61 73 160 73q100 0 162 -92h2v78h90v-468zM160 694
q31 -75 102 -75q39 0 62.5 18.5t40.5 56.5h71q-10 -61 -61 -102q-50 -39 -113 -39q-64 0 -113 39q-49 40 -61 102h72zM424 849l-164 -149l-44 27l125 166z" />
    <glyph glyph-name="uni1EB0" unicode="&#x1eb0;" horiz-adv-x="703" 
d="M179 189l-86 -189h-101l360 786l360 -786h-101l-86 189h-346zM352 580l-134 -305h268zM250 965q31 -75 102 -75q39 0 62.5 18.5t40.5 56.5h71q-10 -61 -61 -102q-50 -39 -113 -39q-64 0 -113 39q-49 40 -61 102h72zM279 1193l125 -166l-44 -27l-164 149z" />
    <glyph glyph-name="uni1EB1" unicode="&#x1eb1;" horiz-adv-x="556" 
d="M264 64q71 0 111 49q41 50 41 121q0 70 -41 119q-40 49 -111 49q-67 0 -108 -50q-40 -49 -40 -118q0 -71 40 -120q41 -50 108 -50zM501 0h-90v73h-2q-60 -89 -159 -89q-103 0 -164 73q-60 73 -60 180q0 101 61 172q61 73 160 73q100 0 162 -92h2v78h90v-468zM160 694
q31 -75 102 -75q39 0 62.5 18.5t40.5 56.5h71q-10 -61 -61 -102q-50 -39 -113 -39q-64 0 -113 39q-49 40 -61 102h72zM219 893l125 -166l-44 -27l-164 149z" />
    <glyph glyph-name="uni1EB2" unicode="&#x1eb2;" horiz-adv-x="703" 
d="M179 189l-86 -189h-101l360 786l360 -786h-101l-86 189h-346zM352 580l-134 -305h268zM250 965q31 -75 102 -75q39 0 62.5 18.5t40.5 56.5h71q-10 -61 -61 -102q-50 -39 -113 -39q-64 0 -113 39q-49 40 -61 102h72zM440 1043q-5 -17 -17 -29t-24 -22q-8 -7 -14 -13
t-8 -14h-59q5 29 17.5 41.5t25.5 23.5q11 8 19 17.5t8 23.5q0 18 -12 28t-29 10q-16 0 -26.5 -10.5t-10.5 -25.5q0 -5 0.5 -9t2.5 -13h-58l-1 22q0 38 28 63q29 26 66 26q40 0 68 -27q14 -14 23 -38.5t1 -53.5z" />
    <glyph glyph-name="uni1EB3" unicode="&#x1eb3;" horiz-adv-x="556" 
d="M264 64q71 0 111 49q41 50 41 121q0 70 -41 119q-40 49 -111 49q-67 0 -108 -50q-40 -49 -40 -118q0 -71 40 -120q41 -50 108 -50zM501 0h-90v73h-2q-60 -89 -159 -89q-103 0 -164 73q-60 73 -60 180q0 101 61 172q61 73 160 73q100 0 162 -92h2v78h90v-468zM160 694
q31 -75 102 -75q39 0 62.5 18.5t40.5 56.5h71q-10 -61 -61 -102q-50 -39 -113 -39q-64 0 -113 39q-49 40 -61 102h72zM366 778q-5 -17 -17 -29t-24 -22q-8 -7 -14 -13t-8 -14h-59q5 29 17.5 41.5t25.5 23.5q11 8 19 17.5t8 23.5q0 18 -12 28t-29 10q-16 0 -26.5 -10.5
t-10.5 -25.5q0 -5 0.5 -9t2.5 -13h-58l-1 22q0 38 28 63q29 26 66 26q40 0 68 -27q14 -14 23 -38.5t1 -53.5z" />
    <glyph glyph-name="uni1EB4" unicode="&#x1eb4;" horiz-adv-x="703" 
d="M179 189l-86 -189h-101l360 786l360 -786h-101l-86 189h-346zM352 580l-134 -305h268zM250 965q31 -75 102 -75q39 0 62.5 18.5t40.5 56.5h71q-10 -61 -61 -102q-50 -39 -113 -39q-64 0 -113 39q-49 40 -61 102h72zM161 1048l3 5q17 24 29 38t33 26t46 12q40 0 89 -26
q49 -27 72 -27q35 0 64 48l47 -39q-40 -82 -118 -82q-28 0 -83 26q-53 25 -78 25q-17 0 -32.5 -14t-24.5 -32z" />
    <glyph glyph-name="uni1EB5" unicode="&#x1eb5;" horiz-adv-x="556" 
d="M264 64q71 0 111 49q41 50 41 121q0 70 -41 119q-40 49 -111 49q-67 0 -108 -50q-40 -49 -40 -118q0 -71 40 -120q41 -50 108 -50zM501 0h-90v73h-2q-60 -89 -159 -89q-103 0 -164 73q-60 73 -60 180q0 101 61 172q61 73 160 73q100 0 162 -92h2v78h90v-468zM160 694
q31 -75 102 -75q39 0 62.5 18.5t40.5 56.5h71q-10 -61 -61 -102q-50 -39 -113 -39q-64 0 -113 39q-49 40 -61 102h72zM72 799l3 5q17 24 29 38t33 26t46 12q40 0 89 -26q49 -27 72 -27q35 0 64 48l47 -39q-40 -82 -118 -82q-28 0 -83 26q-53 25 -78 25q-17 0 -32.5 -14
t-24.5 -32z" />
    <glyph glyph-name="uni1EB6" unicode="&#x1eb6;" horiz-adv-x="703" 
d="M292 -130q0 25 18 42.5t43 17.5t42.5 -17.5t17.5 -42.5t-17.5 -43t-42.5 -18t-43 17.5t-18 43.5zM179 189l-86 -189h-101l360 786l360 -786h-101l-86 189h-346zM352 580l-134 -305h268zM250 965q31 -75 102 -75q39 0 62.5 18.5t40.5 56.5h71q-10 -61 -61 -102
q-50 -39 -113 -39q-64 0 -113 39q-49 40 -61 102h72z" />
    <glyph glyph-name="uni1EB7" unicode="&#x1eb7;" horiz-adv-x="556" 
d="M218 -130q0 25 18 42.5t43 17.5t42.5 -17.5t17.5 -42.5t-17.5 -43t-42.5 -18t-43 17.5t-18 43.5zM264 64q71 0 111 49q41 50 41 121q0 70 -41 119q-40 49 -111 49q-67 0 -108 -50q-40 -49 -40 -118q0 -71 40 -120q41 -50 108 -50zM501 0h-90v73h-2q-60 -89 -159 -89
q-103 0 -164 73q-60 73 -60 180q0 101 61 172q61 73 160 73q100 0 162 -92h2v78h90v-468zM160 694q31 -75 102 -75q39 0 62.5 18.5t40.5 56.5h71q-10 -61 -61 -102q-50 -39 -113 -39q-64 0 -113 39q-49 40 -61 102h72z" />
    <glyph glyph-name="uni1EB8" unicode="&#x1eb8;" horiz-adv-x="521" 
d="M72 754h405v-86h-311v-211h302v-86h-302v-285h311v-86h-405v754zM200 -130q0 25 18 42.5t43 17.5t42.5 -17.5t17.5 -42.5t-17.5 -43t-42.5 -18t-43 17.5t-18 43.5z" />
    <glyph glyph-name="uni1EB9" unicode="&#x1eb9;" horiz-adv-x="488" 
d="M116 219q2 -63 40 -109q39 -46 101 -46q49 0 80.5 22.5t59.5 68.5l76 -43q-33 -60 -90.5 -94t-126.5 -34q-105 0 -168 70q-62 71 -62 176q0 111 59 182q58 70 169 70q108 0 163 -70q56 -70 56 -179v-14h-357zM383 287q-8 54 -41.5 85.5t-87.5 31.5q-26 0 -48.5 -8.5
t-40 -24.5t-29 -37.5t-15.5 -46.5h262zM183 -130q0 25 18 42.5t43 17.5t42.5 -17.5t17.5 -42.5t-17.5 -43t-42.5 -18t-43 17.5t-18 43.5z" />
    <glyph glyph-name="uni1EBA" unicode="&#x1eba;" horiz-adv-x="521" 
d="M72 754h405v-86h-311v-211h302v-86h-302v-285h311v-86h-405v754zM349 900q-5 -17 -17 -29t-24 -22q-8 -7 -14 -13t-8 -14h-59q5 29 17.5 41.5t25.5 23.5q11 8 19 17.5t8 23.5q0 18 -12 28t-29 10q-16 0 -26.5 -10.5t-10.5 -25.5q0 -5 0.5 -9t2.5 -13h-58l-1 22
q0 38 28 63q29 26 66 26q40 0 68 -27q14 -14 23 -38.5t1 -53.5z" />
    <glyph glyph-name="uni1EBB" unicode="&#x1ebb;" horiz-adv-x="488" 
d="M116 219q2 -63 40 -109q39 -46 101 -46q49 0 80.5 22.5t59.5 68.5l76 -43q-33 -60 -90.5 -94t-126.5 -34q-105 0 -168 70q-62 71 -62 176q0 111 59 182q58 70 169 70q108 0 163 -70q56 -70 56 -179v-14h-357zM383 287q-8 54 -41.5 85.5t-87.5 31.5q-26 0 -48.5 -8.5
t-40 -24.5t-29 -37.5t-15.5 -46.5h262zM332 640q-5 -17 -17 -29t-24 -22q-8 -7 -14 -13t-8 -14h-59q5 29 17.5 41.5t25.5 23.5q11 8 19 17.5t8 23.5q0 18 -12 28t-29 10q-16 0 -26.5 -10.5t-10.5 -25.5q0 -5 0.5 -9t2.5 -13h-58l-1 22q0 38 28 63q29 26 66 26q40 0 68 -27
q14 -14 23 -38.5t1 -53.5z" />
    <glyph glyph-name="uni1EBC" unicode="&#x1ebc;" horiz-adv-x="521" 
d="M72 754h405v-86h-311v-211h302v-86h-302v-285h311v-86h-405v754zM69 873l3 5q17 24 29 38t33 26t46 12q40 0 89 -26q49 -27 72 -27q35 0 64 48l47 -39q-40 -82 -118 -82q-28 0 -83 26q-53 25 -78 25q-17 0 -32.5 -14t-24.5 -32z" />
    <glyph glyph-name="uni1EBD" unicode="&#x1ebd;" horiz-adv-x="488" 
d="M116 219q2 -63 40 -109q39 -46 101 -46q49 0 80.5 22.5t59.5 68.5l76 -43q-33 -60 -90.5 -94t-126.5 -34q-105 0 -168 70q-62 71 -62 176q0 111 59 182q58 70 169 70q108 0 163 -70q56 -70 56 -179v-14h-357zM383 287q-8 54 -41.5 85.5t-87.5 31.5q-26 0 -48.5 -8.5
t-40 -24.5t-29 -37.5t-15.5 -46.5h262zM53 613l3 5q17 24 29 38t33 26t46 12q40 0 89 -26q49 -27 72 -27q35 0 64 48l47 -39q-40 -82 -118 -82q-28 0 -83 26q-53 25 -78 25q-17 0 -32.5 -14t-24.5 -32z" />
    <glyph glyph-name="uni1EBE" unicode="&#x1ebe;" horiz-adv-x="521" 
d="M72 754h405v-86h-311v-211h302v-86h-302v-285h311v-86h-405v754zM260 1020l161 -145l-59 -46l-102 96l-101 -96l-58 46zM564 1109l-164 -149l-44 27l125 166z" />
    <glyph glyph-name="uni1EBF" unicode="&#x1ebf;" horiz-adv-x="488" 
d="M116 219q2 -63 40 -109q39 -46 101 -46q49 0 80.5 22.5t59.5 68.5l76 -43q-33 -60 -90.5 -94t-126.5 -34q-105 0 -168 70q-62 71 -62 176q0 111 59 182q58 70 169 70q108 0 163 -70q56 -70 56 -179v-14h-357zM383 287q-8 54 -41.5 85.5t-87.5 31.5q-26 0 -48.5 -8.5
t-40 -24.5t-29 -37.5t-15.5 -46.5h262zM243 734l161 -145l-59 -46l-102 96l-101 -96l-58 46zM532 849l-164 -149l-44 27l125 166z" />
    <glyph glyph-name="uni1EC0" unicode="&#x1ec0;" horiz-adv-x="521" 
d="M72 754h405v-86h-311v-211h302v-86h-302v-285h311v-86h-405v754zM260 1020l161 -145l-59 -46l-102 96l-101 -96l-58 46zM319 1193l125 -166l-44 -27l-164 149z" />
    <glyph glyph-name="uni1EC1" unicode="&#x1ec1;" horiz-adv-x="488" 
d="M116 219q2 -63 40 -109q39 -46 101 -46q49 0 80.5 22.5t59.5 68.5l76 -43q-33 -60 -90.5 -94t-126.5 -34q-105 0 -168 70q-62 71 -62 176q0 111 59 182q58 70 169 70q108 0 163 -70q56 -70 56 -179v-14h-357zM383 287q-8 54 -41.5 85.5t-87.5 31.5q-26 0 -48.5 -8.5
t-40 -24.5t-29 -37.5t-15.5 -46.5h262zM243 734l161 -145l-59 -46l-102 96l-101 -96l-58 46zM319 893l125 -166l-44 -27l-164 149z" />
    <glyph glyph-name="uni1EC2" unicode="&#x1ec2;" horiz-adv-x="521" 
d="M72 754h405v-86h-311v-211h302v-86h-302v-285h311v-86h-405v754zM260 1020l161 -145l-59 -46l-102 96l-101 -96l-58 46zM509 1028q-5 -17 -17 -29t-24 -22q-8 -7 -14 -13t-8 -14h-59q5 29 17.5 41.5t25.5 23.5q11 8 19 17.5t8 23.5q0 18 -12 28t-29 10q-16 0 -26.5 -10.5
t-10.5 -25.5q0 -5 0.5 -9t2.5 -13h-58l-1 22q0 38 28 63q29 26 66 26q40 0 68 -27q14 -14 23 -38.5t1 -53.5z" />
    <glyph glyph-name="uni1EC3" unicode="&#x1ec3;" horiz-adv-x="488" 
d="M116 219q2 -63 40 -109q39 -46 101 -46q49 0 80.5 22.5t59.5 68.5l76 -43q-33 -60 -90.5 -94t-126.5 -34q-105 0 -168 70q-62 71 -62 176q0 111 59 182q58 70 169 70q108 0 163 -70q56 -70 56 -179v-14h-357zM383 287q-8 54 -41.5 85.5t-87.5 31.5q-26 0 -48.5 -8.5
t-40 -24.5t-29 -37.5t-15.5 -46.5h262zM243 734l161 -145l-59 -46l-102 96l-101 -96l-58 46zM488 778q-5 -17 -17 -29t-24 -22q-8 -7 -14 -13t-8 -14h-59q5 29 17.5 41.5t25.5 23.5q11 8 19 17.5t8 23.5q0 18 -12 28t-29 10q-16 0 -26.5 -10.5t-10.5 -25.5q0 -5 0.5 -9
t2.5 -13h-58l-1 22q0 38 28 63q29 26 66 26q40 0 68 -27q14 -14 23 -38.5t1 -53.5z" />
    <glyph glyph-name="uni1EC4" unicode="&#x1ec4;" horiz-adv-x="521" 
d="M72 754h405v-86h-311v-211h302v-86h-302v-285h311v-86h-405v754zM260 1020l161 -145l-59 -46l-102 96l-101 -96l-58 46zM69 1100l3 5q17 24 29 38t33 26t46 12q40 0 89 -26q49 -27 72 -27q35 0 64 48l47 -39q-40 -82 -118 -82q-28 0 -83 26q-53 25 -78 25
q-17 0 -32.5 -14t-24.5 -32z" />
    <glyph glyph-name="uni1EC5" unicode="&#x1ec5;" horiz-adv-x="488" 
d="M116 219q2 -63 40 -109q39 -46 101 -46q49 0 80.5 22.5t59.5 68.5l76 -43q-33 -60 -90.5 -94t-126.5 -34q-105 0 -168 70q-62 71 -62 176q0 111 59 182q58 70 169 70q108 0 163 -70q56 -70 56 -179v-14h-357zM383 287q-8 54 -41.5 85.5t-87.5 31.5q-26 0 -48.5 -8.5
t-40 -24.5t-29 -37.5t-15.5 -46.5h262zM243 734l161 -145l-59 -46l-102 96l-101 -96l-58 46zM52 799l3 5q17 24 29 38t33 26t46 12q40 0 89 -26q49 -27 72 -27q35 0 64 48l47 -39q-40 -82 -118 -82q-28 0 -83 26q-53 25 -78 25q-17 0 -32.5 -14t-24.5 -32z" />
    <glyph glyph-name="uni1EC6" unicode="&#x1ec6;" horiz-adv-x="521" 
d="M200 -130q0 25 18 42.5t43 17.5t42.5 -17.5t17.5 -42.5t-17.5 -43t-42.5 -18t-43 17.5t-18 43.5zM72 754h405v-86h-311v-211h302v-86h-302v-285h311v-86h-405v754zM260 1020l161 -145l-59 -46l-102 96l-101 -96l-58 46z" />
    <glyph glyph-name="uni1EC7" unicode="&#x1ec7;" horiz-adv-x="488" 
d="M183 -130q0 25 18 42.5t43 17.5t42.5 -17.5t17.5 -42.5t-17.5 -43t-42.5 -18t-43 17.5t-18 43.5zM116 219q2 -63 40 -109q39 -46 101 -46q49 0 80.5 22.5t59.5 68.5l76 -43q-33 -60 -90.5 -94t-126.5 -34q-105 0 -168 70q-62 71 -62 176q0 111 59 182q58 70 169 70
q108 0 163 -70q56 -70 56 -179v-14h-357zM383 287q-8 54 -41.5 85.5t-87.5 31.5q-26 0 -48.5 -8.5t-40 -24.5t-29 -37.5t-15.5 -46.5h262zM243 734l161 -145l-59 -46l-102 96l-101 -96l-58 46z" />
    <glyph glyph-name="uni1EC8" unicode="&#x1ec8;" horiz-adv-x="232" 
d="M163 0h-94v754h94v-754zM204 900q-5 -17 -17 -29t-24 -22q-8 -7 -14 -13t-8 -14h-59q5 29 17.5 41.5t25.5 23.5q11 8 19 17.5t8 23.5q0 18 -12 28t-29 10q-16 0 -26.5 -10.5t-10.5 -25.5q0 -5 0.5 -9t2.5 -13h-58l-1 22q0 38 28 63q29 26 66 26q40 0 68 -27
q14 -14 23 -38.5t1 -53.5z" />
    <glyph glyph-name="uni1EC9" unicode="&#x1ec9;" horiz-adv-x="254" 
d="M172 0h-90v468h90v-468zM215 640q-5 -17 -17 -29t-24 -22q-8 -7 -14 -13t-8 -14h-59q5 29 17.5 41.5t25.5 23.5q11 8 19 17.5t8 23.5q0 18 -12 28t-29 10q-16 0 -26.5 -10.5t-10.5 -25.5q0 -5 0.5 -9t2.5 -13h-58l-1 22q0 38 28 63q29 26 66 26q40 0 68 -27
q14 -14 23 -38.5t1 -53.5z" />
    <glyph glyph-name="uni1ECA" unicode="&#x1eca;" horiz-adv-x="232" 
d="M163 0h-94v754h94v-754zM56 -130q0 25 18 42.5t43 17.5t42.5 -17.5t17.5 -42.5t-17.5 -43t-42.5 -18t-43 17.5t-18 43.5z" />
    <glyph glyph-name="uni1ECB" unicode="&#x1ecb;" horiz-adv-x="254" 
d="M172 0h-90v468h90v-468zM189 682q0 -25 -18 -43t-44 -18t-44 18t-18 43q0 26 18 44.5t44 18.5t44 -18.5t18 -44.5zM67 -130q0 25 18 42.5t43 17.5t42.5 -17.5t17.5 -42.5t-17.5 -43t-42.5 -18t-43 17.5t-18 43.5z" />
    <glyph glyph-name="uni1ECC" unicode="&#x1ecc;" horiz-adv-x="828" 
d="M809 377q0 -168 -115 -280q-116 -113 -280 -113t-280 113q-115 112 -115 280q0 161 116 277q118 116 279 116q162 0 278 -116q117 -116 117 -277zM715 377q0 127 -86 216t-215 89q-130 0 -216 -89q-85 -88 -85 -216t89 -217q88 -88 212 -88t212 88q89 89 89 217z
M353 -130q0 25 18 42.5t43 17.5t42.5 -17.5t17.5 -42.5t-17.5 -43t-42.5 -18t-43 17.5t-18 43.5z" />
    <glyph glyph-name="uni1ECD" unicode="&#x1ecd;" horiz-adv-x="540" 
d="M92 410q73 72 178 72t177 -72q73 -72 73 -177t-73 -177q-72 -72 -177 -72t-178 72q-72 72 -72 177t72 177zM110 233q0 -65 47 -115q46 -48 113 -48q66 0 113 48q47 50 47 115q0 66 -47 115q-47 48 -113 48q-67 0 -113 -48q-47 -49 -47 -115zM209 -130q0 25 18 42.5
t43 17.5t42.5 -17.5t17.5 -42.5t-17.5 -43t-42.5 -18t-43 17.5t-18 43.5z" />
    <glyph glyph-name="uni1ECE" unicode="&#x1ece;" horiz-adv-x="828" 
d="M809 377q0 -168 -115 -280q-116 -113 -280 -113t-280 113q-115 112 -115 280q0 161 116 277q118 116 279 116q162 0 278 -116q117 -116 117 -277zM715 377q0 127 -86 216t-215 89q-130 0 -216 -89q-85 -88 -85 -216t89 -217q88 -88 212 -88t212 88q89 89 89 217zM502 900
q-5 -17 -17 -29t-24 -22q-8 -7 -14 -13t-8 -14h-59q5 29 17.5 41.5t25.5 23.5q11 8 19 17.5t8 23.5q0 18 -12 28t-29 10q-16 0 -26.5 -10.5t-10.5 -25.5q0 -5 0.5 -9t2.5 -13h-58l-1 22q0 38 28 63q29 26 66 26q40 0 68 -27q14 -14 23 -38.5t1 -53.5z" />
    <glyph glyph-name="uni1ECF" unicode="&#x1ecf;" horiz-adv-x="540" 
d="M92 410q73 72 178 72t177 -72q73 -72 73 -177t-73 -177q-72 -72 -177 -72t-178 72q-72 72 -72 177t72 177zM110 233q0 -65 47 -115q46 -48 113 -48q66 0 113 48q47 50 47 115q0 66 -47 115q-47 48 -113 48q-67 0 -113 -48q-47 -49 -47 -115zM358 640q-5 -17 -17 -29
t-24 -22q-8 -7 -14 -13t-8 -14h-59q5 29 17.5 41.5t25.5 23.5q11 8 19 17.5t8 23.5q0 18 -12 28t-29 10q-16 0 -26.5 -10.5t-10.5 -25.5q0 -5 0.5 -9t2.5 -13h-58l-1 22q0 38 28 63q29 26 66 26q40 0 68 -27q14 -14 23 -38.5t1 -53.5z" />
    <glyph glyph-name="uni1ED0" unicode="&#x1ed0;" horiz-adv-x="828" 
d="M809 377q0 -168 -115 -280q-116 -113 -280 -113t-280 113q-115 112 -115 280q0 161 116 277q118 116 279 116q162 0 278 -116q117 -116 117 -277zM715 377q0 127 -86 216t-215 89q-130 0 -216 -89q-85 -88 -85 -216t89 -217q88 -88 212 -88t212 88q89 89 89 217z
M413 1020l161 -145l-59 -46l-102 96l-101 -96l-58 46zM764 1109l-164 -149l-44 27l125 166z" />
    <glyph glyph-name="uni1ED1" unicode="&#x1ed1;" horiz-adv-x="540" 
d="M92 410q73 72 178 72t177 -72q73 -72 73 -177t-73 -177q-72 -72 -177 -72t-178 72q-72 72 -72 177t72 177zM110 233q0 -65 47 -115q46 -48 113 -48q66 0 113 48q47 50 47 115q0 66 -47 115q-47 48 -113 48q-67 0 -113 -48q-47 -49 -47 -115zM269 734l161 -145l-59 -46
l-102 96l-101 -96l-58 46zM564 849l-164 -149l-44 27l125 166z" />
    <glyph glyph-name="uni1ED2" unicode="&#x1ed2;" horiz-adv-x="828" 
d="M809 377q0 -168 -115 -280q-116 -113 -280 -113t-280 113q-115 112 -115 280q0 161 116 277q118 116 279 116q162 0 278 -116q117 -116 117 -277zM715 377q0 127 -86 216t-215 89q-130 0 -216 -89q-85 -88 -85 -216t89 -217q88 -88 212 -88t212 88q89 89 89 217z
M413 1020l161 -145l-59 -46l-102 96l-101 -96l-58 46zM479 1193l125 -166l-44 -27l-164 149z" />
    <glyph glyph-name="uni1ED3" unicode="&#x1ed3;" horiz-adv-x="540" 
d="M92 410q73 72 178 72t177 -72q73 -72 73 -177t-73 -177q-72 -72 -177 -72t-178 72q-72 72 -72 177t72 177zM110 233q0 -65 47 -115q46 -48 113 -48q66 0 113 48q47 50 47 115q0 66 -47 115q-47 48 -113 48q-67 0 -113 -48q-47 -49 -47 -115zM269 734l161 -145l-59 -46
l-102 96l-101 -96l-58 46zM319 893l125 -166l-44 -27l-164 149z" />
    <glyph glyph-name="uni1ED4" unicode="&#x1ed4;" horiz-adv-x="828" 
d="M809 377q0 -168 -115 -280q-116 -113 -280 -113t-280 113q-115 112 -115 280q0 161 116 277q118 116 279 116q162 0 278 -116q117 -116 117 -277zM715 377q0 127 -86 216t-215 89q-130 0 -216 -89q-85 -88 -85 -216t89 -217q88 -88 212 -88t212 88q89 89 89 217z
M413 1020l161 -145l-59 -46l-102 96l-101 -96l-58 46zM662 1028q-5 -17 -17 -29t-24 -22q-8 -7 -14 -13t-8 -14h-59q5 29 17.5 41.5t25.5 23.5q11 8 19 17.5t8 23.5q0 18 -12 28t-29 10q-16 0 -26.5 -10.5t-10.5 -25.5q0 -5 0.5 -9t2.5 -13h-58l-1 22q0 38 28 63
q29 26 66 26q40 0 68 -27q14 -14 23 -38.5t1 -53.5z" />
    <glyph glyph-name="uni1ED5" unicode="&#x1ed5;" horiz-adv-x="540" 
d="M92 410q73 72 178 72t177 -72q73 -72 73 -177t-73 -177q-72 -72 -177 -72t-178 72q-72 72 -72 177t72 177zM110 233q0 -65 47 -115q46 -48 113 -48q66 0 113 48q47 50 47 115q0 66 -47 115q-47 48 -113 48q-67 0 -113 -48q-47 -49 -47 -115zM269 734l161 -145l-59 -46
l-102 96l-101 -96l-58 46zM488 778q-5 -17 -17 -29t-24 -22q-8 -7 -14 -13t-8 -14h-59q5 29 17.5 41.5t25.5 23.5q11 8 19 17.5t8 23.5q0 18 -12 28t-29 10q-16 0 -26.5 -10.5t-10.5 -25.5q0 -5 0.5 -9t2.5 -13h-58l-1 22q0 38 28 63q29 26 66 26q40 0 68 -27
q14 -14 23 -38.5t1 -53.5z" />
    <glyph glyph-name="uni1ED6" unicode="&#x1ed6;" horiz-adv-x="828" 
d="M809 377q0 -168 -115 -280q-116 -113 -280 -113t-280 113q-115 112 -115 280q0 161 116 277q118 116 279 116q162 0 278 -116q117 -116 117 -277zM715 377q0 127 -86 216t-215 89q-130 0 -216 -89q-85 -88 -85 -216t89 -217q88 -88 212 -88t212 88q89 89 89 217z
M413 1020l161 -145l-59 -46l-102 96l-101 -96l-58 46zM222 1100l3 5q17 24 29 38t33 26t46 12q40 0 89 -26q49 -27 72 -27q35 0 64 48l47 -39q-40 -82 -118 -82q-28 0 -83 26q-53 25 -78 25q-17 0 -32.5 -14t-24.5 -32z" />
    <glyph glyph-name="uni1ED7" unicode="&#x1ed7;" horiz-adv-x="540" 
d="M92 410q73 72 178 72t177 -72q73 -72 73 -177t-73 -177q-72 -72 -177 -72t-178 72q-72 72 -72 177t72 177zM110 233q0 -65 47 -115q46 -48 113 -48q66 0 113 48q47 50 47 115q0 66 -47 115q-47 48 -113 48q-67 0 -113 -48q-47 -49 -47 -115zM269 734l161 -145l-59 -46
l-102 96l-101 -96l-58 46zM78 799l3 5q17 24 29 38t33 26t46 12q40 0 89 -26q49 -27 72 -27q35 0 64 48l47 -39q-40 -82 -118 -82q-28 0 -83 26q-53 25 -78 25q-17 0 -32.5 -14t-24.5 -32z" />
    <glyph glyph-name="uni1ED8" unicode="&#x1ed8;" horiz-adv-x="828" 
d="M353 -130q0 25 18 42.5t43 17.5t42.5 -17.5t17.5 -42.5t-17.5 -43t-42.5 -18t-43 17.5t-18 43.5zM809 377q0 -168 -115 -280q-116 -113 -280 -113t-280 113q-115 112 -115 280q0 161 116 277q118 116 279 116q162 0 278 -116q117 -116 117 -277zM715 377q0 127 -86 216
t-215 89q-130 0 -216 -89q-85 -88 -85 -216t89 -217q88 -88 212 -88t212 88q89 89 89 217zM413 1020l161 -145l-59 -46l-102 96l-101 -96l-58 46z" />
    <glyph glyph-name="uni1ED9" unicode="&#x1ed9;" horiz-adv-x="540" 
d="M209 -130q0 25 18 42.5t43 17.5t42.5 -17.5t17.5 -42.5t-17.5 -43t-42.5 -18t-43 17.5t-18 43.5zM92 410q73 72 178 72t177 -72q73 -72 73 -177t-73 -177q-72 -72 -177 -72t-178 72q-72 72 -72 177t72 177zM110 233q0 -65 47 -115q46 -48 113 -48q66 0 113 48
q47 50 47 115q0 66 -47 115q-47 48 -113 48q-67 0 -113 -48q-47 -49 -47 -115zM269 734l161 -145l-59 -46l-102 96l-101 -96l-58 46z" />
    <glyph glyph-name="uni1EE4" unicode="&#x1ee4;" horiz-adv-x="669" 
d="M153 754v-445q0 -237 182 -237t182 237v445h94v-477q0 -129 -75 -211q-73 -82 -201 -82q-127 0 -202 82q-74 83 -74 211v477h94zM274 -130q0 25 18 42.5t43 17.5t42.5 -17.5t17.5 -42.5t-17.5 -43t-42.5 -18t-43 17.5t-18 43.5z" />
    <glyph glyph-name="uni1EE5" unicode="&#x1ee5;" horiz-adv-x="512" 
d="M148 468v-259q0 -66 23.5 -103.5t84.5 -37.5t84.5 37.5t23.5 103.5v259h90v-269q0 -100 -49 -157.5t-149 -57.5t-149 57.5t-49 157.5v269h90zM195 -130q0 25 18 42.5t43 17.5t42.5 -17.5t17.5 -42.5t-17.5 -43t-42.5 -18t-43 17.5t-18 43.5z" />
    <glyph glyph-name="uni1EE6" unicode="&#x1ee6;" horiz-adv-x="669" 
d="M153 754v-445q0 -237 182 -237t182 237v445h94v-477q0 -129 -75 -211q-73 -82 -201 -82q-127 0 -202 82q-74 83 -74 211v477h94zM423 900q-5 -17 -17 -29t-24 -22q-8 -7 -14 -13t-8 -14h-59q5 29 17.5 41.5t25.5 23.5q11 8 19 17.5t8 23.5q0 18 -12 28t-29 10
q-16 0 -26.5 -10.5t-10.5 -25.5q0 -5 0.5 -9t2.5 -13h-58l-1 22q0 38 28 63q29 26 66 26q40 0 68 -27q14 -14 23 -38.5t1 -53.5z" />
    <glyph glyph-name="uni1EE7" unicode="&#x1ee7;" horiz-adv-x="512" 
d="M148 468v-259q0 -66 23.5 -103.5t84.5 -37.5t84.5 37.5t23.5 103.5v259h90v-269q0 -100 -49 -157.5t-149 -57.5t-149 57.5t-49 157.5v269h90zM344 640q-5 -17 -17 -29t-24 -22q-8 -7 -14 -13t-8 -14h-59q5 29 17.5 41.5t25.5 23.5q11 8 19 17.5t8 23.5q0 18 -12 28
t-29 10q-16 0 -26.5 -10.5t-10.5 -25.5q0 -5 0.5 -9t2.5 -13h-58l-1 22q0 38 28 63q29 26 66 26q40 0 68 -27q14 -14 23 -38.5t1 -53.5z" />
    <glyph glyph-name="Ygrave" unicode="&#x1ef2;" horiz-adv-x="573" 
d="M-6 754h108l185 -322l185 322h108l-246 -426v-328h-94v328zM265 994l125 -166l-44 -27l-164 149z" />
    <glyph glyph-name="ygrave" unicode="&#x1ef3;" horiz-adv-x="484" 
d="M-13 468h105l158 -297l147 297h101l-379 -736h-102l184 348zM221 734l125 -166l-44 -27l-164 149z" />
    <glyph glyph-name="uni1EF4" unicode="&#x1ef4;" horiz-adv-x="573" 
d="M-6 754h108l185 -322l185 322h108l-246 -426v-328h-94v328zM226 -130q0 25 18 42.5t43 17.5t42.5 -17.5t17.5 -42.5t-17.5 -43t-42.5 -18t-43 17.5t-18 43.5z" />
    <glyph glyph-name="uni1EF5" unicode="&#x1ef5;" horiz-adv-x="484" 
d="M-13 468h105l158 -297l147 297h101l-379 -736h-102l184 348zM250 -130q0 25 18 42.5t43 17.5t42.5 -17.5t17.5 -42.5t-17.5 -43t-42.5 -18t-43 17.5t-18 43.5z" />
    <glyph glyph-name="uni1EF6" unicode="&#x1ef6;" horiz-adv-x="573" 
d="M-6 754h108l185 -322l185 322h108l-246 -426v-328h-94v328zM375 900q-5 -17 -17 -29t-24 -22q-8 -7 -14 -13t-8 -14h-59q5 29 17.5 41.5t25.5 23.5q11 8 19 17.5t8 23.5q0 18 -12 28t-29 10q-16 0 -26.5 -10.5t-10.5 -25.5q0 -5 0.5 -9t2.5 -13h-58l-1 22q0 38 28 63
q29 26 66 26q40 0 68 -27q14 -14 23 -38.5t1 -53.5z" />
    <glyph glyph-name="uni1EF7" unicode="&#x1ef7;" horiz-adv-x="484" 
d="M-13 468h105l158 -297l147 297h101l-379 -736h-102l184 348zM330 640q-5 -17 -17 -29t-24 -22q-8 -7 -14 -13t-8 -14h-59q5 29 17.5 41.5t25.5 23.5q11 8 19 17.5t8 23.5q0 18 -12 28t-29 10q-16 0 -26.5 -10.5t-10.5 -25.5q0 -5 0.5 -9t2.5 -13h-58l-1 22q0 38 28 63
q29 26 66 26q40 0 68 -27q14 -14 23 -38.5t1 -53.5z" />
    <glyph glyph-name="uni1EF8" unicode="&#x1ef8;" horiz-adv-x="573" 
d="M-6 754h108l185 -322l185 322h108l-246 -426v-328h-94v328zM95 873l3 5q17 24 29 38t33 26t46 12q40 0 89 -26q49 -27 72 -27q35 0 64 48l47 -39q-40 -82 -118 -82q-28 0 -83 26q-53 25 -78 25q-17 0 -32.5 -14t-24.5 -32z" />
    <glyph glyph-name="uni1EF9" unicode="&#x1ef9;" horiz-adv-x="484" 
d="M-13 468h105l158 -297l147 297h101l-379 -736h-102l184 348zM51 613l3 5q17 24 29 38t33 26t46 12q40 0 89 -26q49 -27 72 -27q35 0 64 48l47 -39q-40 -82 -118 -82q-28 0 -83 26q-53 25 -78 25q-17 0 -32.5 -14t-24.5 -32z" />
    <glyph glyph-name="Dcroat" unicode="&#x110;" horiz-adv-x="665" 
d="M64 754h156q184 0 303 -97q120 -96 120 -276q0 -185 -119 -283t-307 -98h-153v362h-64v88h64v304zM158 450h134v-88h-134v-276h33q73 0 138 14.5t113.5 49t77.5 90t29 137.5q0 81 -28.5 138.5t-79.5 89.5q-51 33 -112.5 48t-137.5 15h-33v-218z" />
    <glyph glyph-name="dcroat" unicode="&#x111;" horiz-adv-x="556" 
d="M411 697v171h90v-171h51v-75h-51v-622h-90v73h-2q-28 -42 -69.5 -65.5t-89.5 -23.5q-104 0 -164 73t-60 180q0 101 61 172q61 73 159 73q101 0 163 -92h2v232h-78v75h78zM264 64q71 0 111 49q41 50 41 121q0 70 -41 119q-40 49 -111 49q-67 0 -108 -50q-40 -49 -40 -118
q0 -71 40 -120q41 -50 108 -50z" />
    <glyph glyph-name="Itilde" unicode="&#x128;" horiz-adv-x="232" 
d="M163 0h-94v754h94v-754zM-75 873l3 5q17 24 29 38t33 26t46 12q40 0 89 -26q49 -27 72 -27q35 0 64 48l47 -39q-40 -82 -118 -82q-28 0 -83 26q-53 25 -78 25q-17 0 -32.5 -14t-24.5 -32z" />
    <glyph glyph-name="itilde" unicode="&#x129;" horiz-adv-x="254" 
d="M172 0h-90v468h90v-468zM-64 613l3 5q17 24 29 38t33 26t46 12q40 0 89 -26q49 -27 72 -27q35 0 64 48l47 -39q-40 -82 -118 -82q-28 0 -83 26q-53 25 -78 25q-17 0 -32.5 -14t-24.5 -32z" />
    <glyph glyph-name="Utilde" unicode="&#x168;" horiz-adv-x="669" 
d="M144 873l3 5q17 24 29 38t33 26t46 12q40 0 89 -26q49 -27 72 -27q35 0 64 48l47 -39q-40 -82 -118 -82q-28 0 -83 26q-53 25 -78 25q-17 0 -32.5 -14t-24.5 -32zM153 754v-445q0 -237 182 -237t182 237v445h94v-477q0 -129 -75 -211q-73 -82 -201 -82q-127 0 -202 82
q-74 83 -74 211v477h94z" />
    <glyph glyph-name="utilde" unicode="&#x169;" horiz-adv-x="512" 
d="M148 468v-259q0 -66 23.5 -103.5t84.5 -37.5t84.5 37.5t23.5 103.5v259h90v-269q0 -100 -49 -157.5t-149 -57.5t-149 57.5t-49 157.5v269h90zM65 613l3 5q17 24 29 38t33 26t46 12q40 0 89 -26q49 -27 72 -27q35 0 64 48l47 -39q-40 -82 -118 -82q-28 0 -83 26
q-53 25 -78 25q-17 0 -32.5 -14t-24.5 -32z" />
    <glyph glyph-name="uni1EA2" unicode="&#x1ea2;" horiz-adv-x="703" 
d="M179 189l-86 -189h-101l360 786l360 -786h-101l-86 189h-346zM352 580l-134 -305h268zM440 900q-5 -17 -17 -29t-24 -22q-8 -7 -14 -13t-8 -14h-59q5 29 17.5 41.5t25.5 23.5q11 8 19 17.5t8 23.5q0 18 -12 28t-29 10q-16 0 -26.5 -10.5t-10.5 -25.5q0 -5 0.5 -9t2.5 -13
h-58l-1 22q0 38 28 63q29 26 66 26q40 0 68 -27q14 -14 23 -38.5t1 -53.5z" />
    <glyph glyph-name="uni1EA3" unicode="&#x1ea3;" horiz-adv-x="556" 
d="M264 64q71 0 111 49q41 50 41 121q0 70 -41 119q-40 49 -111 49q-67 0 -108 -50q-40 -49 -40 -118q0 -71 40 -120q41 -50 108 -50zM501 0h-90v73h-2q-60 -89 -159 -89q-103 0 -164 73q-60 73 -60 180q0 101 61 172q61 73 160 73q100 0 162 -92h2v78h90v-468zM351 640
q-5 -17 -17 -29t-24 -22q-8 -7 -14 -13t-8 -14h-59q5 29 17.5 41.5t25.5 23.5q11 8 19 17.5t8 23.5q0 18 -12 28t-29 10q-16 0 -26.5 -10.5t-10.5 -25.5q0 -5 0.5 -9t2.5 -13h-58l-1 22q0 38 28 63q29 26 66 26q40 0 68 -27q14 -14 23 -38.5t1 -53.5z" />
    <glyph glyph-name="uni1EDA" unicode="&#x1eda;" horiz-adv-x="828" 
d="M518 976l-164 -149l-44 27l125 166zM809 377q0 -168 -115 -280q-116 -113 -280 -113t-280 113q-115 112 -115 280q0 161 116 277q118 116 279 116q162 0 278 -116l11.5 -12l10.5 -12q19 5 29.5 16t15 22t5 20t0.5 11v55h81v-53q0 -29 -9.5 -50t-24 -34.5t-31 -21.5
t-30.5 -12q59 -92 59 -206zM715 377q0 127 -86 216t-215 89q-130 0 -216 -89q-85 -88 -85 -216t89 -217q88 -88 212 -88t212 88q89 89 89 217z" />
    <glyph glyph-name="uni1EDC" unicode="&#x1edc;" horiz-adv-x="828" 
d="M393 1020l125 -166l-44 -27l-164 149zM809 377q0 -168 -115 -280q-116 -113 -280 -113t-280 113q-115 112 -115 280q0 161 116 277q118 116 279 116q162 0 278 -116l11.5 -12l10.5 -12q19 5 29.5 16t15 22t5 20t0.5 11v55h81v-53q0 -29 -9.5 -50t-24 -34.5t-31 -21.5
t-30.5 -12q59 -92 59 -206zM715 377q0 127 -86 216t-215 89q-130 0 -216 -89q-85 -88 -85 -216t89 -217q88 -88 212 -88t212 88q89 89 89 217z" />
    <glyph glyph-name="uni1EDB" unicode="&#x1edb;" horiz-adv-x="551" 
d="M92 410q73 72 178 72t177 -72q12 -12 22.5 -25t18.5 -27q9 7 13.5 16.5t6.5 17.5t2.5 14t0.5 8v55h81v-53q0 -26 -7.5 -45t-19 -32.5t-26 -22.5t-28.5 -14q9 -33 9 -69q0 -105 -73 -177q-72 -72 -177 -72t-178 72q-72 72 -72 177t72 177zM110 233q0 -65 47 -115
q46 -48 113 -48q66 0 113 48q47 50 47 115q0 66 -47 115q-47 48 -113 48q-67 0 -113 -48q-47 -49 -47 -115zM374 690l-164 -149l-44 27l125 166z" />
    <glyph glyph-name="uni1EDD" unicode="&#x1edd;" horiz-adv-x="551" 
d="M92 410q73 72 178 72t177 -72q12 -12 22.5 -25t18.5 -27q9 7 13.5 16.5t6.5 17.5t2.5 14t0.5 8v55h81v-53q0 -26 -7.5 -45t-19 -32.5t-26 -22.5t-28.5 -14q9 -33 9 -69q0 -105 -73 -177q-72 -72 -177 -72t-178 72q-72 72 -72 177t72 177zM110 233q0 -65 47 -115
q46 -48 113 -48q66 0 113 48q47 50 47 115q0 66 -47 115q-47 48 -113 48q-67 0 -113 -48q-47 -49 -47 -115zM254 734l125 -166l-44 -27l-164 149z" />
    <glyph glyph-name="uni1EDE" unicode="&#x1ede;" horiz-adv-x="828" 
d="M809 377q0 -168 -115 -280q-116 -113 -280 -113t-280 113q-115 112 -115 280q0 161 116 277q118 116 279 116q162 0 278 -116l11.5 -12l10.5 -12q19 5 29.5 16t15 22t5 20t0.5 11v55h81v-53q0 -29 -9.5 -50t-24 -34.5t-31 -21.5t-30.5 -12q59 -92 59 -206zM715 377
q0 127 -86 216t-215 89q-130 0 -216 -89q-85 -88 -85 -216t89 -217q88 -88 212 -88t212 88q89 89 89 217zM502 900q-5 -17 -17 -29t-24 -22q-8 -7 -14 -13t-8 -14h-59q5 29 17.5 41.5t25.5 23.5q11 8 19 17.5t8 23.5q0 18 -12 28t-29 10q-16 0 -26.5 -10.5t-10.5 -25.5
q0 -5 0.5 -9t2.5 -13h-58l-1 22q0 38 28 63q29 26 66 26q40 0 68 -27q14 -14 23 -38.5t1 -53.5z" />
    <glyph glyph-name="uni1EDF" unicode="&#x1edf;" horiz-adv-x="551" 
d="M92 410q73 72 178 72t177 -72q12 -12 22.5 -25t18.5 -27q9 7 13.5 16.5t6.5 17.5t2.5 14t0.5 8v55h81v-53q0 -26 -7.5 -45t-19 -32.5t-26 -22.5t-28.5 -14q9 -33 9 -69q0 -105 -73 -177q-72 -72 -177 -72t-178 72q-72 72 -72 177t72 177zM110 233q0 -65 47 -115
q46 -48 113 -48q66 0 113 48q47 50 47 115q0 66 -47 115q-47 48 -113 48q-67 0 -113 -48q-47 -49 -47 -115zM358 640q-5 -17 -17 -29t-24 -22q-8 -7 -14 -13t-8 -14h-59q5 29 17.5 41.5t25.5 23.5q11 8 19 17.5t8 23.5q0 18 -12 28t-29 10q-16 0 -26.5 -10.5t-10.5 -25.5
q0 -5 0.5 -9t2.5 -13h-58l-1 22q0 38 28 63q29 26 66 26q40 0 68 -27q14 -14 23 -38.5t1 -53.5z" />
    <glyph glyph-name="uni1EE0" unicode="&#x1ee0;" horiz-adv-x="828" 
d="M809 377q0 -168 -115 -280q-116 -113 -280 -113t-280 113q-115 112 -115 280q0 161 116 277q118 116 279 116q162 0 278 -116l11.5 -12l10.5 -12q19 5 29.5 16t15 22t5 20t0.5 11v55h81v-53q0 -29 -9.5 -50t-24 -34.5t-31 -21.5t-30.5 -12q59 -92 59 -206zM715 377
q0 127 -86 216t-215 89q-130 0 -216 -89q-85 -88 -85 -216t89 -217q88 -88 212 -88t212 88q89 89 89 217zM222 873l3 5q17 24 29 38t33 26t46 12q40 0 89 -26q49 -27 72 -27q35 0 64 48l47 -39q-40 -82 -118 -82q-28 0 -83 26q-53 25 -78 25q-17 0 -32.5 -14t-24.5 -32z" />
    <glyph glyph-name="uni1EE1" unicode="&#x1ee1;" horiz-adv-x="551" 
d="M92 410q73 72 178 72t177 -72q12 -12 22.5 -25t18.5 -27q9 7 13.5 16.5t6.5 17.5t2.5 14t0.5 8v55h81v-53q0 -26 -7.5 -45t-19 -32.5t-26 -22.5t-28.5 -14q9 -33 9 -69q0 -105 -73 -177q-72 -72 -177 -72t-178 72q-72 72 -72 177t72 177zM110 233q0 -65 47 -115
q46 -48 113 -48q66 0 113 48q47 50 47 115q0 66 -47 115q-47 48 -113 48q-67 0 -113 -48q-47 -49 -47 -115zM84 613l3 5q17 24 29 38t33 26t46 12q40 0 89 -26q49 -27 72 -27q35 0 64 48l47 -39q-40 -82 -118 -82q-28 0 -83 26q-53 25 -78 25q-17 0 -32.5 -14t-24.5 -32z
" />
    <glyph glyph-name="uni1EE2" unicode="&#x1ee2;" horiz-adv-x="828" 
d="M809 377q0 -168 -115 -280q-116 -113 -280 -113t-280 113q-115 112 -115 280q0 161 116 277q118 116 279 116q162 0 278 -116l11.5 -12l10.5 -12q19 5 29.5 16t15 22t5 20t0.5 11v55h81v-53q0 -29 -9.5 -50t-24 -34.5t-31 -21.5t-30.5 -12q59 -92 59 -206zM715 377
q0 127 -86 216t-215 89q-130 0 -216 -89q-85 -88 -85 -216t89 -217q88 -88 212 -88t212 88q89 89 89 217zM353 -130q0 25 18 42.5t43 17.5t42.5 -17.5t17.5 -42.5t-17.5 -43t-42.5 -18t-43 17.5t-18 43.5z" />
    <glyph glyph-name="uni1EE3" unicode="&#x1ee3;" horiz-adv-x="551" 
d="M92 410q73 72 178 72t177 -72q12 -12 22.5 -25t18.5 -27q9 7 13.5 16.5t6.5 17.5t2.5 14t0.5 8v55h81v-53q0 -26 -7.5 -45t-19 -32.5t-26 -22.5t-28.5 -14q9 -33 9 -69q0 -105 -73 -177q-72 -72 -177 -72t-178 72q-72 72 -72 177t72 177zM110 233q0 -65 47 -115
q46 -48 113 -48q66 0 113 48q47 50 47 115q0 66 -47 115q-47 48 -113 48q-67 0 -113 -48q-47 -49 -47 -115zM215 -130q0 25 18 42.5t43 17.5t42.5 -17.5t17.5 -42.5t-17.5 -43t-42.5 -18t-43 17.5t-18 43.5z" />
    <glyph glyph-name="uni1EE8" unicode="&#x1ee8;" horiz-adv-x="700" 
d="M439 976l-164 -149l-44 27l125 166zM153 754v-445q0 -237 182 -237t182 237v445h94v-123q18 6 27 16.5t13 21.5t4.5 19.5t0.5 10.5v55h81v-53q0 -40 -17 -64.5t-38.5 -37.5t-42.5 -17t-28 -4v-301q0 -129 -75 -211q-73 -82 -201 -82q-127 0 -202 82q-74 83 -74 211v477
h94z" />
    <glyph glyph-name="uni1EE9" unicode="&#x1ee9;" horiz-adv-x="522" 
d="M360 690l-164 -149l-44 27l125 166zM148 468v-259q0 -66 23.5 -103.5t84.5 -37.5t84.5 37.5t23.5 103.5v259h90v-119q13 7 20.5 17t10.5 20t3.5 17.5t0.5 9.5v55h81v-53q0 -35 -13.5 -58t-32 -36.5t-38.5 -20t-32 -7.5v-94q0 -100 -49 -157.5t-149 -57.5t-149 57.5
t-49 157.5v269h90z" />
    <glyph glyph-name="uni1EEA" unicode="&#x1eea;" horiz-adv-x="700" 
d="M302 1020l125 -166l-44 -27l-164 149zM153 754v-445q0 -237 182 -237t182 237v445h94v-123q18 6 27 16.5t13 21.5t4.5 19.5t0.5 10.5v55h81v-53q0 -40 -17 -64.5t-38.5 -37.5t-42.5 -17t-28 -4v-301q0 -129 -75 -211q-73 -82 -201 -82q-127 0 -202 82q-74 83 -74 211v477
h94z" />
    <glyph glyph-name="uni1EEB" unicode="&#x1eeb;" horiz-adv-x="522" 
d="M148 468v-259q0 -66 23.5 -103.5t84.5 -37.5t84.5 37.5t23.5 103.5v259h90v-119q13 7 20.5 17t10.5 20t3.5 17.5t0.5 9.5v55h81v-53q0 -35 -13.5 -58t-32 -36.5t-38.5 -20t-32 -7.5v-94q0 -100 -49 -157.5t-149 -57.5t-149 57.5t-49 157.5v269h90zM240 734l125 -166
l-44 -27l-164 149z" />
    <glyph glyph-name="uni1EEC" unicode="&#x1eec;" horiz-adv-x="700" 
d="M153 754v-445q0 -237 182 -237t182 237v445h94v-123q18 6 27 16.5t13 21.5t4.5 19.5t0.5 10.5v55h81v-53q0 -40 -17 -64.5t-38.5 -37.5t-42.5 -17t-28 -4v-301q0 -129 -75 -211q-73 -82 -201 -82q-127 0 -202 82q-74 83 -74 211v477h94zM438 900q-5 -17 -17 -29t-24 -22
q-8 -7 -14 -13t-8 -14h-59q5 29 17.5 41.5t25.5 23.5q11 8 19 17.5t8 23.5q0 18 -12 28t-29 10q-16 0 -26.5 -10.5t-10.5 -25.5q0 -5 0.5 -9t2.5 -13h-58l-1 22q0 38 28 63q29 26 66 26q40 0 68 -27q14 -14 23 -38.5t1 -53.5z" />
    <glyph glyph-name="uni1EED" unicode="&#x1eed;" horiz-adv-x="522" 
d="M148 468v-259q0 -66 23.5 -103.5t84.5 -37.5t84.5 37.5t23.5 103.5v259h90v-119q13 7 20.5 17t10.5 20t3.5 17.5t0.5 9.5v55h81v-53q0 -35 -13.5 -58t-32 -36.5t-38.5 -20t-32 -7.5v-94q0 -100 -49 -157.5t-149 -57.5t-149 57.5t-49 157.5v269h90zM344 640
q-5 -17 -17 -29t-24 -22q-8 -7 -14 -13t-8 -14h-59q5 29 17.5 41.5t25.5 23.5q11 8 19 17.5t8 23.5q0 18 -12 28t-29 10q-16 0 -26.5 -10.5t-10.5 -25.5q0 -5 0.5 -9t2.5 -13h-58l-1 22q0 38 28 63q29 26 66 26q40 0 68 -27q14 -14 23 -38.5t1 -53.5z" />
    <glyph glyph-name="uni1EEE" unicode="&#x1eee;" horiz-adv-x="700" 
d="M144 873l3 5q17 24 29 38t33 26t46 12q40 0 89 -26q49 -27 72 -27q35 0 64 48l47 -39q-40 -82 -118 -82q-28 0 -83 26q-53 25 -78 25q-17 0 -32.5 -14t-24.5 -32zM153 754v-445q0 -237 182 -237t182 237v445h94v-123q18 6 27 16.5t13 21.5t4.5 19.5t0.5 10.5v55h81v-53
q0 -40 -17 -64.5t-38.5 -37.5t-42.5 -17t-28 -4v-301q0 -129 -75 -211q-73 -82 -201 -82q-127 0 -202 82q-74 83 -74 211v477h94z" />
    <glyph glyph-name="uni1EEF" unicode="&#x1eef;" horiz-adv-x="522" 
d="M65 613l3 5q17 24 29 38t33 26t46 12q40 0 89 -26q49 -27 72 -27q35 0 64 48l47 -39q-40 -82 -118 -82q-28 0 -83 26q-53 25 -78 25q-17 0 -32.5 -14t-24.5 -32zM148 468v-259q0 -66 23.5 -103.5t84.5 -37.5t84.5 37.5t23.5 103.5v259h90v-119q13 7 20.5 17t10.5 20
t3.5 17.5t0.5 9.5v55h81v-53q0 -35 -13.5 -58t-32 -36.5t-38.5 -20t-32 -7.5v-94q0 -100 -49 -157.5t-149 -57.5t-149 57.5t-49 157.5v269h90z" />
    <glyph glyph-name="uni1EF0" unicode="&#x1ef0;" horiz-adv-x="700" 
d="M153 754v-445q0 -237 182 -237t182 237v445h94v-123q18 6 27 16.5t13 21.5t4.5 19.5t0.5 10.5v55h81v-53q0 -40 -17 -64.5t-38.5 -37.5t-42.5 -17t-28 -4v-301q0 -129 -75 -211q-73 -82 -201 -82q-127 0 -202 82q-74 83 -74 211v477h94zM289 -130q0 25 18 42.5t43 17.5
t42.5 -17.5t17.5 -42.5t-17.5 -43t-42.5 -18t-43 17.5t-18 43.5z" />
    <glyph glyph-name="uni1EF1" unicode="&#x1ef1;" horiz-adv-x="522" 
d="M148 468v-259q0 -66 23.5 -103.5t84.5 -37.5t84.5 37.5t23.5 103.5v259h90v-119q13 7 20.5 17t10.5 20t3.5 17.5t0.5 9.5v55h81v-53q0 -35 -13.5 -58t-32 -36.5t-38.5 -20t-32 -7.5v-94q0 -100 -49 -157.5t-149 -57.5t-149 57.5t-49 157.5v269h90zM200 -130q0 25 18 42.5
t43 17.5t42.5 -17.5t17.5 -42.5t-17.5 -43t-42.5 -18t-43 17.5t-18 43.5z" />
    </font>
</defs>
</svg>
